SplineFontDB: 3.0
FontName: Sansita-ExtraBold
FullName: Sansita-ExtraBold
FamilyName: Sansita
Weight: ExtraBold
Copyright: Copyright (c) 2011-2013, Omnibus-Type (www.omnibus-type.com omnibus.type@gmail.com) with Reserved Font Name 'Sansita'
Version: 001.004
ItalicAngle: 0
UnderlinePosition: -49.8047
UnderlineWidth: 49.8047
Ascent: 800
Descent: 200
sfntRevision: 0x00010106
LayerCount: 2
Layer: 0 1 "Back"  1
Layer: 1 1 "Fore"  0
XUID: [1021 809 -2065993493 584728]
FSType: 8
OS2Version: 3
OS2_WeightWidthSlopeOnly: 0
OS2_UseTypoMetrics: 1
CreationTime: 1387883376
ModificationTime: 1388332474
PfmFamily: 81
TTFWeight: 800
TTFWidth: 5
LineGap: 0
VLineGap: 0
Panose: 0 0 9 0 0 0 0 0 0 0
OS2TypoAscent: 700
OS2TypoAOffset: 0
OS2TypoDescent: -180
OS2TypoDOffset: 0
OS2TypoLinegap: 320
OS2WinAscent: 1020
OS2WinAOffset: 0
OS2WinDescent: 180
OS2WinDOffset: 0
HheadAscent: 1020
HheadAOffset: 0
HheadDescent: -180
HheadDOffset: 0
OS2SubXSize: 650
OS2SubYSize: 600
OS2SubXOff: 0
OS2SubYOff: 75
OS2SupXSize: 650
OS2SupYSize: 600
OS2SupXOff: 0
OS2SupYOff: 350
OS2StrikeYSize: 50
OS2StrikeYPos: 306
OS2Vendor: 'UKWN'
OS2CodePages: 20000093.00000000
OS2UnicodeRanges: 00000007.00000000.00000000.00000000
Lookup: 1 0 0 "'aalt' Access All Alternates lookup 0"  {"'aalt' Access All Alternates lookup 0 subtable"  } ['aalt' ('DFLT' <'dflt' > 'grek' <'dflt' > 'latn' <'AZE ' 'CAT ' 'CRT ' 'ESP ' 'KAZ ' 'MOL ' 'NLD ' 'PLK ' 'ROM ' 'TAT ' 'TRK ' 'dflt' > ) ]
Lookup: 3 0 0 "'aalt' Access All Alternates lookup 1"  {"'aalt' Access All Alternates lookup 1 subtable"  } ['aalt' ('DFLT' <'dflt' > 'grek' <'dflt' > 'latn' <'AZE ' 'CAT ' 'CRT ' 'ESP ' 'KAZ ' 'MOL ' 'NLD ' 'PLK ' 'ROM ' 'TAT ' 'TRK ' 'dflt' > ) ]

StartChar: .notdef
Encoding: 65536 -1 0
Width: 513
Flags: MW
HStem: 0 50<86 426 86 506> 650 50<85 425 85 85>
VStem: 6 49<95 95 95 605> 455 51<95 605 605 605>
LayerCount: 2
UndoRedoHistory
Layer: 0
Undoes
EndUndoes
Redoes
EndRedoes
EndUndoRedoHistory
UndoRedoHistory
Layer: 1
Undoes
EndUndoes
Redoes
EndRedoes
EndUndoRedoHistory
Fore
SplineSet
426 50 m 1,0,-1
 255 305 l 1,1,-1
 86 50 l 1,2,-1
 426 50 l 1,0,-1
455 95 m 1,3,-1
 455 605 l 1,4,-1
 286 350 l 1,5,-1
 455 95 l 1,3,-1
55 95 m 1,6,-1
 226 350 l 1,7,-1
 55 605 l 1,8,-1
 55 95 l 1,6,-1
425 650 m 1,9,-1
 85 650 l 1,10,-1
 256 395 l 1,11,-1
 425 650 l 1,9,-1
6 700 m 1,12,-1
 506 700 l 1,13,-1
 506 0 l 1,14,-1
 6 0 l 1,15,-1
 6 700 l 1,12,-1
EndSplineSet
Validated: 1
EndChar

StartChar: A
Encoding: 65 65 1
Width: 589
Flags: MW
HStem: 158 84<178 314 178 333 159 314> 538 122<245 245> 640 20G<173 422 422 422>
VStem: -7 596<0 0>
LayerCount: 2
UndoRedoHistory
Layer: 0
Undoes
EndUndoes
Redoes
EndRedoes
EndUndoRedoHistory
UndoRedoHistory
Layer: 1
Undoes
EndUndoes
Redoes
EndRedoes
EndUndoRedoHistory
Fore
SplineSet
314 242 m 1,0,-1
 245 538 l 1,1,-1
 178 242 l 1,2,-1
 314 242 l 1,0,-1
589 0 m 1,3,-1
 370 0 l 1,4,-1
 333 158 l 1,5,-1
 159 158 l 1,6,-1
 123 0 l 1,7,-1
 -7 0 l 1,8,-1
 173 660 l 1,9,-1
 422 660 l 1,10,-1
 589 0 l 1,3,-1
EndSplineSet
Validated: 8388609
Substitution2: "Single Substitution lookup 21 subtable" ordfeminine
Substitution2: "'aalt' Access All Alternates lookup 0 subtable" ordfeminine
Position2: "'cpsp' Capital Spacing lookup 3 subtable" dx=5 dy=0 dh=10 dv=0
EndChar

StartChar: Aacute
Encoding: 193 193 2
Width: 589
Flags: MW
HStem: 158 84<178 314 178 333 159 314> 538 122<245 245> 640 20G<173 422 422 422>
VStem: -7 596<0 0>
LayerCount: 2
UndoRedoHistory
Layer: 0
Undoes
EndUndoes
Redoes
EndRedoes
EndUndoRedoHistory
UndoRedoHistory
Layer: 1
Undoes
EndUndoes
Redoes
EndRedoes
EndUndoRedoHistory
Fore
SplineSet
245 538 m 1,0,-1
 178 242 l 1,1,-1
 314 242 l 1,2,-1
 245 538 l 1,0,-1
370 0 m 1,3,-1
 333 158 l 1,4,-1
 159 158 l 1,5,-1
 123 0 l 1,6,-1
 -7 0 l 1,7,-1
 173 660 l 1,8,-1
 422 660 l 1,9,-1
 589 0 l 1,10,-1
 370 0 l 1,3,-1
438 882 m 1,11,12
 455 868 455 868 465.5 848 c 128,-1,13
 476 828 476 828 476 808 c 0,14,15
 476 795 476 795 471.5 785 c 128,-1,16
 467 775 467 775 461 768.5 c 128,-1,17
 455 762 455 762 443 756.5 c 128,-1,18
 431 751 431 751 422.5 748.5 c 128,-1,19
 414 746 414 746 398 743.5 c 128,-1,20
 382 741 382 741 374 740.5 c 128,-1,21
 366 740 366 740 349 739 c 2,22,-1
 203 729 l 1,23,-1
 191 780 l 1,24,-1
 438 882 l 1,11,12
EndSplineSet
Validated: 8388609
Position2: "'cpsp' Capital Spacing lookup 3 subtable" dx=5 dy=0 dh=10 dv=0
EndChar

StartChar: Abreve
Encoding: 258 258 3
Width: 589
Flags: MW
HStem: 158 84<178 314 178 333 159 314> 538 122<245 245> 640 20G<173 422 422 422> 720 52<276 325 276 373>
VStem: 104 146<818 831 811 857> 344 147<837 857>
LayerCount: 2
UndoRedoHistory
Layer: 0
Undoes
EndUndoes
Redoes
EndRedoes
EndUndoRedoHistory
UndoRedoHistory
Layer: 1
Undoes
EndUndoes
Redoes
EndRedoes
EndUndoRedoHistory
Fore
SplineSet
245 538 m 1,0,-1
 178 242 l 1,1,-1
 314 242 l 1,2,-1
 245 538 l 1,0,-1
370 0 m 1,3,-1
 333 158 l 1,4,-1
 159 158 l 1,5,-1
 123 0 l 1,6,-1
 -7 0 l 1,7,-1
 173 660 l 1,8,-1
 422 660 l 1,9,-1
 589 0 l 1,10,-1
 370 0 l 1,3,-1
491 857 m 1,11,12
 491 833 491 833 485.5 813 c 128,-1,13
 480 793 480 793 466 775.5 c 128,-1,14
 452 758 452 758 430.5 746 c 128,-1,15
 409 734 409 734 375 727 c 128,-1,16
 341 720 341 720 297 720 c 0,17,18
 242 720 242 720 203.5 730 c 128,-1,19
 165 740 165 740 144 759.5 c 128,-1,20
 123 779 123 779 113.5 802.5 c 128,-1,21
 104 826 104 826 104 857 c 1,22,-1
 251 857 l 1,23,24
 251 852 251 852 250.5 841.5 c 128,-1,25
 250 831 250 831 250 825 c 0,26,27
 250 800 250 800 259.5 786 c 128,-1,28
 269 772 269 772 297 772 c 0,29,30
 326 772 326 772 335.5 787 c 128,-1,31
 345 802 345 802 345 828 c 0,32,33
 345 833 345 833 344.5 842.5 c 128,-1,34
 344 852 344 852 344 857 c 1,35,-1
 491 857 l 1,11,12
EndSplineSet
Validated: 8388609
Position2: "'cpsp' Capital Spacing lookup 3 subtable" dx=5 dy=0 dh=10 dv=0
EndChar

StartChar: Acircumflex
Encoding: 194 194 4
Width: 589
Flags: MW
HStem: 158 84<178 314 178 333 159 314> 538 122<245 245> 640 20G<173 422 422 422>
VStem: -7 596<0 0>
LayerCount: 2
UndoRedoHistory
Layer: 0
Undoes
EndUndoes
Redoes
EndRedoes
EndUndoRedoHistory
UndoRedoHistory
Layer: 1
Undoes
EndUndoes
Redoes
EndRedoes
EndUndoRedoHistory
Fore
SplineSet
245 538 m 1,0,-1
 178 242 l 1,1,-1
 314 242 l 1,2,-1
 245 538 l 1,0,-1
370 0 m 1,3,-1
 333 158 l 1,4,-1
 159 158 l 1,5,-1
 123 0 l 1,6,-1
 -7 0 l 1,7,-1
 173 660 l 1,8,-1
 422 660 l 1,9,-1
 589 0 l 1,10,-1
 370 0 l 1,3,-1
121 750 m 1,11,-1
 273 865 l 1,12,-1
 316 865 l 1,13,-1
 470 750 l 1,14,-1
 431 703 l 1,15,-1
 296 754 l 1,16,-1
 160 703 l 1,17,-1
 121 750 l 1,11,-1
EndSplineSet
Validated: 8388609
Position2: "'cpsp' Capital Spacing lookup 3 subtable" dx=5 dy=0 dh=10 dv=0
EndChar

StartChar: Adieresis
Encoding: 196 196 5
Width: 589
Flags: MW
HStem: 158 84<178 314 178 333 159 314> 538 122<245 245> 640 20G<173 422 422 422> 711 160<151 209 381 439>
VStem: -7 596<0 0> 71 217<765 815> 301 217<765 815>
LayerCount: 2
UndoRedoHistory
Layer: 0
Undoes
EndUndoes
Redoes
EndRedoes
EndUndoRedoHistory
UndoRedoHistory
Layer: 1
Undoes
EndUndoes
Redoes
EndRedoes
EndUndoRedoHistory
Fore
SplineSet
245 538 m 1,0,-1
 178 242 l 1,1,-1
 314 242 l 1,2,-1
 245 538 l 1,0,-1
370 0 m 1,3,-1
 333 158 l 1,4,-1
 159 158 l 1,5,-1
 123 0 l 1,6,-1
 -7 0 l 1,7,-1
 173 660 l 1,8,-1
 422 660 l 1,9,-1
 589 0 l 1,10,-1
 370 0 l 1,3,-1
412 871 m 0,11,12
 460 871 460 871 489 850 c 128,-1,13
 518 829 518 829 518 791 c 0,14,15
 518 752 518 752 488 731.5 c 128,-1,16
 458 711 458 711 408 711 c 0,17,18
 360 711 360 711 330.5 731.5 c 128,-1,19
 301 752 301 752 301 789 c 0,20,21
 301 828 301 828 332.5 849.5 c 128,-1,22
 364 871 364 871 412 871 c 0,11,12
182 871 m 0,23,24
 230 871 230 871 259 850 c 128,-1,25
 288 829 288 829 288 791 c 0,26,27
 288 752 288 752 258 731.5 c 128,-1,28
 228 711 228 711 178 711 c 0,29,30
 130 711 130 711 100.5 731.5 c 128,-1,31
 71 752 71 752 71 789 c 0,32,33
 71 828 71 828 102.5 849.5 c 128,-1,34
 134 871 134 871 182 871 c 0,23,24
EndSplineSet
Validated: 8388609
Position2: "'cpsp' Capital Spacing lookup 3 subtable" dx=5 dy=0 dh=10 dv=0
EndChar

StartChar: Agrave
Encoding: 192 192 6
Width: 589
Flags: MW
HStem: 158 84<178 314 178 333 159 314> 538 122<245 245> 640 20G<173 422 422 422>
VStem: -7 596<0 0>
LayerCount: 2
UndoRedoHistory
Layer: 0
Undoes
EndUndoes
Redoes
EndRedoes
EndUndoRedoHistory
UndoRedoHistory
Layer: 1
Undoes
EndUndoes
Redoes
EndRedoes
EndUndoRedoHistory
Fore
SplineSet
245 538 m 1,0,-1
 178 242 l 1,1,-1
 314 242 l 1,2,-1
 245 538 l 1,0,-1
370 0 m 1,3,-1
 333 158 l 1,4,-1
 159 158 l 1,5,-1
 123 0 l 1,6,-1
 -7 0 l 1,7,-1
 173 660 l 1,8,-1
 422 660 l 1,9,-1
 589 0 l 1,10,-1
 370 0 l 1,3,-1
245 740 m 2,11,12
 227 741 227 741 220 742 c 128,-1,13
 213 743 213 743 196.5 745 c 128,-1,14
 180 747 180 747 172 749.5 c 128,-1,15
 164 752 164 752 151.5 757.5 c 128,-1,16
 139 763 139 763 133 769.5 c 128,-1,17
 127 776 127 776 122.5 786 c 128,-1,18
 118 796 118 796 118 809 c 0,19,20
 118 829 118 829 128.5 849 c 128,-1,21
 139 869 139 869 156 883 c 1,22,-1
 403 781 l 1,23,-1
 391 730 l 1,24,-1
 245 740 l 2,11,12
EndSplineSet
Validated: 8388609
Position2: "'cpsp' Capital Spacing lookup 3 subtable" dx=5 dy=0 dh=10 dv=0
EndChar

StartChar: Amacron
Encoding: 256 256 7
Width: 589
Flags: MW
HStem: 158 84<178 314 178 333 159 314> 538 122<245 245> 640 20G<173 422 422 422> 771 92<198 392 150 440>
VStem: -7 596<0 0>
LayerCount: 2
UndoRedoHistory
Layer: 0
Undoes
EndUndoes
Redoes
EndRedoes
EndUndoRedoHistory
UndoRedoHistory
Layer: 1
Undoes
EndUndoes
Redoes
EndRedoes
EndUndoRedoHistory
Fore
SplineSet
245 538 m 1,0,-1
 178 242 l 1,1,-1
 314 242 l 1,2,-1
 245 538 l 1,0,-1
370 0 m 1,3,-1
 333 158 l 1,4,-1
 159 158 l 1,5,-1
 123 0 l 1,6,-1
 -7 0 l 1,7,-1
 173 660 l 1,8,-1
 422 660 l 1,9,-1
 589 0 l 1,10,-1
 370 0 l 1,3,-1
440 863 m 1,11,12
 449 847 449 847 449 824 c 0,13,14
 449 800 449 800 433.5 785.5 c 128,-1,15
 418 771 418 771 392 771 c 2,16,-1
 150 771 l 1,17,18
 141 786 141 786 141 810 c 128,-1,19
 141 834 141 834 156.5 848.5 c 128,-1,20
 172 863 172 863 198 863 c 2,21,-1
 440 863 l 1,11,12
EndSplineSet
Validated: 8388609
Position2: "'cpsp' Capital Spacing lookup 3 subtable" dx=5 dy=0 dh=10 dv=0
EndChar

StartChar: Aogonek
Encoding: 260 260 8
Width: 589
Flags: MW
HStem: -265 86<549 559> 158 84<178 314 178 333 159 314> 538 122<245 245> 640 20G<173 422 422 422>
VStem: 391 121<-147 -125>
LayerCount: 2
UndoRedoHistory
Layer: 0
Undoes
EndUndoes
Redoes
EndRedoes
EndUndoRedoHistory
UndoRedoHistory
Layer: 1
Undoes
EndUndoes
Redoes
EndRedoes
EndUndoRedoHistory
Fore
SplineSet
314 242 m 1,0,-1
 245 538 l 1,1,-1
 178 242 l 1,2,-1
 314 242 l 1,0,-1
589 0 m 2,3,4
 512 -58 512 -58 512 -127 c 0,5,6
 512 -157 512 -157 525 -168 c 128,-1,7
 538 -179 538 -179 568 -179 c 0,8,9
 584 -179 584 -179 600 -172.5 c 128,-1,10
 616 -166 616 -166 623 -154 c 1,11,12
 649 -173 649 -173 649 -197 c 0,13,14
 649 -215 649 -215 637.5 -229 c 128,-1,15
 626 -243 626 -243 608.5 -250.5 c 128,-1,16
 591 -258 591 -258 573.5 -261.5 c 128,-1,17
 556 -265 556 -265 539 -265 c 0,18,19
 509 -265 509 -265 483.5 -259.5 c 128,-1,20
 458 -254 458 -254 437 -242.5 c 128,-1,21
 416 -231 416 -231 403.5 -210 c 128,-1,22
 391 -189 391 -189 391 -162 c 0,23,24
 391 -68 391 -68 516 0 c 1,25,-1
 370 0 l 1,26,-1
 333 158 l 1,27,-1
 159 158 l 1,28,-1
 123 0 l 1,29,-1
 -7 0 l 1,30,-1
 173 660 l 1,31,-1
 422 660 l 1,32,-1
 586 11 l 1,33,-1
 601 9 l 1,34,-1
 589 0 l 2,3,4
EndSplineSet
Validated: 8388609
Position2: "'cpsp' Capital Spacing lookup 3 subtable" dx=5 dy=0 dh=10 dv=0
EndChar

StartChar: Aring
Encoding: 197 197 9
Width: 589
Flags: MW
HStem: 158 84<178 314 178 333 159 314> 538 122<245 245> 640 20G<173 422 422 422> 719 40<281 312 281 331> 870 41<282 312>
VStem: 182 70<800 831 800 847> 342 71<800 831>
LayerCount: 2
UndoRedoHistory
Layer: 0
Undoes
EndUndoes
Redoes
EndRedoes
EndUndoRedoHistory
UndoRedoHistory
Layer: 1
Undoes
EndUndoes
Redoes
EndRedoes
EndUndoRedoHistory
Fore
SplineSet
245 538 m 1,0,-1
 178 242 l 1,1,-1
 314 242 l 1,2,-1
 245 538 l 1,0,-1
370 0 m 1,3,-1
 333 158 l 1,4,-1
 159 158 l 1,5,-1
 123 0 l 1,6,-1
 -7 0 l 1,7,-1
 173 660 l 1,8,-1
 422 660 l 1,9,-1
 589 0 l 1,10,-1
 370 0 l 1,3,-1
297 759 m 0,11,12
 319 759 319 759 330.5 775 c 128,-1,13
 342 791 342 791 342 816 c 0,14,15
 342 840 342 840 330.5 855 c 128,-1,16
 319 870 319 870 297 870 c 128,-1,17
 275 870 275 870 263.5 855 c 128,-1,18
 252 840 252 840 252 816 c 0,19,20
 252 790 252 790 263 774.5 c 128,-1,21
 274 759 274 759 297 759 c 0,11,12
297 719 m 0,22,23
 247 719 247 719 214.5 745 c 128,-1,24
 182 771 182 771 182 816 c 0,25,26
 182 861 182 861 214 886 c 128,-1,27
 246 911 246 911 297 911 c 0,28,29
 349 911 349 911 381 886 c 128,-1,30
 413 861 413 861 413 816 c 0,31,32
 413 772 413 772 380.5 745.5 c 128,-1,33
 348 719 348 719 297 719 c 0,22,23
EndSplineSet
Validated: 8388609
Position2: "'cpsp' Capital Spacing lookup 3 subtable" dx=5 dy=0 dh=10 dv=0
EndChar

StartChar: Aringacute
Encoding: 506 506 10
Width: 589
Flags: MW
HStem: 158 84<178 314 178 333 159 314> 640 20G<173 201 201 201 281 312 393 422 422 422> 753 34<282 312>
VStem: 182 70<699 721 694 733> 342 70<699 721>
LayerCount: 2
UndoRedoHistory
Layer: 0
Undoes
EndUndoes
Redoes
EndRedoes
EndUndoRedoHistory
UndoRedoHistory
Layer: 1
Undoes
EndUndoes
Redoes
EndRedoes
EndUndoRedoHistory
Fore
SplineSet
314 242 m 1,0,-1
 245 538 l 1,1,-1
 178 242 l 1,2,-1
 314 242 l 1,0,-1
252 708 m 0,3,4
 252 687 252 687 263 673.5 c 128,-1,5
 274 660 274 660 297 660 c 0,6,7
 319 660 319 660 330.5 673.5 c 128,-1,8
 342 687 342 687 342 708 c 0,9,10
 342 728 342 728 330.5 740.5 c 128,-1,11
 319 753 319 753 297 753 c 128,-1,12
 275 753 275 753 263.5 740.5 c 128,-1,13
 252 728 252 728 252 708 c 0,3,4
589 0 m 1,14,-1
 370 0 l 1,15,-1
 333 158 l 1,16,-1
 159 158 l 1,17,-1
 123 0 l 1,18,-1
 -7 0 l 1,19,-1
 173 660 l 1,20,-1
 201 660 l 1,21,22
 182 681 182 681 182 708 c 0,23,24
 182 745 182 745 214 766 c 128,-1,25
 246 787 246 787 297 787 c 128,-1,26
 348 787 348 787 380 766 c 128,-1,27
 412 745 412 745 412 708 c 0,28,29
 412 681 412 681 393 660 c 1,30,-1
 422 660 l 1,31,-1
 589 0 l 1,14,-1
203 793 m 1,32,-1
 191 844 l 1,33,-1
 438 946 l 1,34,35
 455 932 455 932 465.5 912 c 128,-1,36
 476 892 476 892 476 872 c 0,37,38
 476 859 476 859 471.5 849 c 128,-1,39
 467 839 467 839 461 832.5 c 128,-1,40
 455 826 455 826 443 820.5 c 128,-1,41
 431 815 431 815 423 812.5 c 128,-1,42
 415 810 415 810 398 808 c 128,-1,43
 381 806 381 806 374 805.5 c 128,-1,44
 367 805 367 805 349 803 c 2,45,-1
 203 793 l 1,32,-1
EndSplineSet
Validated: 1
Position2: "'cpsp' Capital Spacing lookup 3 subtable" dx=5 dy=0 dh=10 dv=0
EndChar

StartChar: Atilde
Encoding: 195 195 11
Width: 589
Flags: MW
HStem: 158 84<178 314 178 333 159 314> 538 122<245 245> 640 20G<173 422 422 422> 731 104<382 421 382 424> 751 104<174 214>
VStem: -7 596<0 0>
LayerCount: 2
UndoRedoHistory
Layer: 0
Undoes
EndUndoes
Redoes
EndRedoes
EndUndoRedoHistory
UndoRedoHistory
Layer: 1
Undoes
EndUndoes
Redoes
EndRedoes
EndUndoRedoHistory
Fore
SplineSet
245 538 m 1,0,-1
 178 242 l 1,1,-1
 314 242 l 1,2,-1
 245 538 l 1,0,-1
370 0 m 1,3,-1
 333 158 l 1,4,-1
 159 158 l 1,5,-1
 123 0 l 1,6,-1
 -7 0 l 1,7,-1
 173 660 l 1,8,-1
 422 660 l 1,9,-1
 589 0 l 1,10,-1
 370 0 l 1,3,-1
474 855 m 1,11,12
 497 827 497 827 497 795 c 0,13,14
 497 758 497 758 470.5 744.5 c 128,-1,15
 444 731 444 731 397 731 c 0,16,17
 370 731 370 731 292.5 741 c 128,-1,18
 215 751 215 751 186 751 c 0,19,20
 142 751 142 751 122 731 c 1,21,22
 99 759 99 759 99 791 c 0,23,24
 99 828 99 828 125.5 841.5 c 128,-1,25
 152 855 152 855 199 855 c 0,26,27
 226 855 226 855 304 845 c 128,-1,28
 382 835 382 835 410 835 c 0,29,30
 454 835 454 835 474 855 c 1,11,12
EndSplineSet
Validated: 8388609
Position2: "'cpsp' Capital Spacing lookup 3 subtable" dx=5 dy=0 dh=10 dv=0
EndChar

StartChar: AE
Encoding: 198 198 12
Width: 734
Flags: MW
HStem: 0 84<563 727> 158 84<225 349 225 349 191 349> 297 84<563 690 563 690> 576 84<563 720 563 563>
VStem: 349 214<84 158 158 158 242 297 381 558 558 558>
LayerCount: 2
UndoRedoHistory
Layer: 0
Undoes
EndUndoes
Redoes
EndRedoes
EndUndoRedoHistory
UndoRedoHistory
Layer: 1
Undoes
EndUndoes
Redoes
EndRedoes
EndUndoRedoHistory
Fore
SplineSet
225 242 m 1,0,-1
 349 242 l 1,1,-1
 349 558 l 1,2,-1
 225 242 l 1,0,-1
720 576 m 1,3,-1
 563 576 l 1,4,-1
 563 381 l 1,5,-1
 690 381 l 1,6,-1
 690 297 l 1,7,-1
 563 297 l 1,8,-1
 563 84 l 1,9,-1
 735 84 l 1,10,-1
 727 0 l 1,11,-1
 349 0 l 1,12,-1
 349 158 l 1,13,-1
 191 158 l 1,14,-1
 127 0 l 1,15,-1
 -13 0 l 1,16,-1
 276 660 l 1,17,-1
 720 660 l 1,18,-1
 720 576 l 1,3,-1
EndSplineSet
Validated: 1
Position2: "'cpsp' Capital Spacing lookup 3 subtable" dx=5 dy=0 dh=10 dv=0
EndChar

StartChar: AEacute
Encoding: 508 508 13
Width: 734
Flags: MW
HStem: 0 84<563 727> 158 84<225 349 225 349 191 349> 297 84<563 690 563 690> 576 84<563 563 563 720>
VStem: 349 214<84 158 158 158 242 297 381 558 558 558>
LayerCount: 2
UndoRedoHistory
Layer: 0
Undoes
EndUndoes
Redoes
EndRedoes
EndUndoRedoHistory
UndoRedoHistory
Layer: 1
Undoes
EndUndoes
Redoes
EndRedoes
EndUndoRedoHistory
Fore
SplineSet
349 242 m 1,0,-1
 349 558 l 1,1,-1
 225 242 l 1,2,-1
 349 242 l 1,0,-1
563 576 m 1,3,-1
 563 381 l 1,4,-1
 690 381 l 1,5,-1
 690 297 l 1,6,-1
 563 297 l 1,7,-1
 563 84 l 1,8,-1
 735 84 l 1,9,-1
 727 0 l 1,10,-1
 349 0 l 1,11,-1
 349 158 l 1,12,-1
 191 158 l 1,13,-1
 127 0 l 1,14,-1
 -13 0 l 1,15,-1
 276 660 l 1,16,-1
 720 660 l 1,17,-1
 720 576 l 1,18,-1
 563 576 l 1,3,-1
552 863 m 1,19,20
 569 849 569 849 579.5 829 c 128,-1,21
 590 809 590 809 590 789 c 0,22,23
 590 776 590 776 585.5 766 c 128,-1,24
 581 756 581 756 575 749.5 c 128,-1,25
 569 743 569 743 556.5 737.5 c 128,-1,26
 544 732 544 732 536 729.5 c 128,-1,27
 528 727 528 727 511.5 725 c 128,-1,28
 495 723 495 723 487.5 722.5 c 128,-1,29
 480 722 480 722 463 720 c 2,30,-1
 317 710 l 1,31,-1
 305 761 l 1,32,-1
 552 863 l 1,19,20
EndSplineSet
Validated: 1
Position2: "'cpsp' Capital Spacing lookup 3 subtable" dx=5 dy=0 dh=10 dv=0
EndChar

StartChar: B
Encoding: 66 66 14
Width: 623
Flags: MW
HStem: -10 74<299 340 299 377> 318 67<288 324 287 332> 591 74<299 334>
VStem: 50 214<70 70 70 316 388 585> 383 174<475 526> 400 210<154 230>
LayerCount: 2
UndoRedoHistory
Layer: 0
Undoes
EndUndoes
Redoes
EndRedoes
EndUndoRedoHistory
UndoRedoHistory
Layer: 1
Undoes
EndUndoes
Redoes
EndRedoes
EndUndoRedoHistory
Fore
SplineSet
264 70 m 1,0,1
 284 64 284 64 305 64 c 0,2,3
 400 64 400 64 400 190 c 0,4,5
 400 253 400 253 375 285.5 c 128,-1,6
 350 318 350 318 292 318 c 0,7,8
 282 318 282 318 264 316 c 1,9,-1
 264 70 l 1,0,1
264 388 m 1,10,11
 279 385 279 385 291 385 c 0,12,13
 338 385 338 385 360.5 415.5 c 128,-1,14
 383 446 383 446 383 498 c 0,15,16
 383 591 383 591 306 591 c 0,17,18
 285 591 285 591 264 585 c 1,19,-1
 264 388 l 1,10,11
50 653 m 1,20,21
 193 665 193 665 305 665 c 0,22,23
 348 665 348 665 382.5 661.5 c 128,-1,24
 417 658 417 658 451 647.5 c 128,-1,25
 485 637 485 637 507 620 c 128,-1,26
 529 603 529 603 543 574.5 c 128,-1,27
 557 546 557 546 557 508 c 0,28,29
 557 460 557 460 526 424 c 128,-1,30
 495 388 495 388 446 373 c 1,31,32
 525 359 525 359 567.5 314 c 128,-1,33
 610 269 610 269 610 193 c 0,34,35
 610 149 610 149 592 114 c 128,-1,36
 574 79 574 79 545 56.5 c 128,-1,37
 516 34 516 34 475.5 18.5 c 128,-1,38
 435 3 435 3 391.5 -3.5 c 128,-1,39
 348 -10 348 -10 301 -10 c 0,40,41
 187 -10 187 -10 50 4 c 1,42,-1
 50 653 l 1,20,21
EndSplineSet
Validated: 8388609
Position2: "'cpsp' Capital Spacing lookup 3 subtable" dx=5 dy=0 dh=10 dv=0
EndChar

StartChar: C
Encoding: 67 67 15
Width: 588
Flags: MW
HStem: -22 147<342 397> 606 74<294 363>
VStem: 20 230<296 406 296 438> 402 171<509 521>
LayerCount: 2
UndoRedoHistory
Layer: 0
Undoes
EndUndoes
Redoes
EndRedoes
EndUndoRedoHistory
UndoRedoHistory
Layer: 1
Undoes
EndUndoes
Redoes
EndRedoes
EndUndoRedoHistory
Fore
SplineSet
335 606 m 0,0,1
 320 606 320 606 307.5 599.5 c 128,-1,2
 295 593 295 593 286.5 579.5 c 128,-1,3
 278 566 278 566 272 551.5 c 128,-1,4
 266 537 266 537 262 516 c 128,-1,5
 258 495 258 495 255.5 477.5 c 128,-1,6
 253 460 253 460 251.5 437 c 128,-1,7
 250 414 250 414 250 400 c 2,8,-1
 250 365 l 2,9,10
 250 310 250 310 257.5 268.5 c 128,-1,11
 265 227 265 227 281.5 193.5 c 128,-1,12
 298 160 298 160 327.5 142.5 c 128,-1,13
 357 125 357 125 400 125 c 0,14,15
 488 125 488 125 536 209 c 1,16,17
 575 185 575 185 575 136 c 0,18,19
 575 97 575 97 554.5 66 c 128,-1,20
 534 35 534 35 499.5 16.5 c 128,-1,21
 465 -2 465 -2 425 -12 c 128,-1,22
 385 -22 385 -22 343 -22 c 0,23,24
 260 -22 260 -22 196.5 5 c 128,-1,25
 133 32 133 32 95.5 80 c 128,-1,26
 58 128 58 128 39 189.5 c 128,-1,27
 20 251 20 251 20 326 c 0,28,29
 20 496 20 496 102.5 588 c 128,-1,30
 185 680 185 680 349 680 c 0,31,32
 383 680 383 680 413.5 676.5 c 128,-1,33
 444 673 444 673 474 663.5 c 128,-1,34
 504 654 504 654 525.5 639 c 128,-1,35
 547 624 547 624 560 600 c 128,-1,36
 573 576 573 576 573 545 c 0,37,38
 573 493 573 493 537 462.5 c 128,-1,39
 501 432 501 432 448 432 c 0,40,41
 415 432 415 432 396 438 c 1,42,43
 402 468 402 468 402 493 c 0,44,45
 402 517 402 517 399 535.5 c 128,-1,46
 396 554 396 554 389.5 570.5 c 128,-1,47
 383 587 383 587 369.5 596.5 c 128,-1,48
 356 606 356 606 335 606 c 0,0,1
EndSplineSet
Validated: 1
Position2: "'cpsp' Capital Spacing lookup 3 subtable" dx=5 dy=0 dh=10 dv=0
EndChar

StartChar: Cacute
Encoding: 262 262 16
Width: 588
Flags: MW
HStem: -22 147<342 397> 606 74<294 363>
VStem: 20 230<296 406 296 438> 402 171<509 521>
LayerCount: 2
UndoRedoHistory
Layer: 0
Undoes
EndUndoes
Redoes
EndRedoes
EndUndoRedoHistory
UndoRedoHistory
Layer: 1
Undoes
EndUndoes
Redoes
EndRedoes
EndUndoRedoHistory
Fore
SplineSet
335 606 m 0,0,1
 320 606 320 606 307.5 599.5 c 128,-1,2
 295 593 295 593 286.5 579.5 c 128,-1,3
 278 566 278 566 272 551.5 c 128,-1,4
 266 537 266 537 262 516 c 128,-1,5
 258 495 258 495 255.5 477.5 c 128,-1,6
 253 460 253 460 251.5 437 c 128,-1,7
 250 414 250 414 250 400 c 2,8,-1
 250 365 l 2,9,10
 250 310 250 310 257.5 268.5 c 128,-1,11
 265 227 265 227 281.5 193.5 c 128,-1,12
 298 160 298 160 327.5 142.5 c 128,-1,13
 357 125 357 125 400 125 c 0,14,15
 488 125 488 125 536 209 c 1,16,17
 575 185 575 185 575 136 c 0,18,19
 575 97 575 97 554.5 66 c 128,-1,20
 534 35 534 35 499.5 16.5 c 128,-1,21
 465 -2 465 -2 425 -12 c 128,-1,22
 385 -22 385 -22 343 -22 c 0,23,24
 260 -22 260 -22 196.5 5 c 128,-1,25
 133 32 133 32 95.5 80 c 128,-1,26
 58 128 58 128 39 189.5 c 128,-1,27
 20 251 20 251 20 326 c 0,28,29
 20 496 20 496 102.5 588 c 128,-1,30
 185 680 185 680 349 680 c 0,31,32
 383 680 383 680 413.5 676.5 c 128,-1,33
 444 673 444 673 474 663.5 c 128,-1,34
 504 654 504 654 525.5 639 c 128,-1,35
 547 624 547 624 560 600 c 128,-1,36
 573 576 573 576 573 545 c 0,37,38
 573 493 573 493 537 462.5 c 128,-1,39
 501 432 501 432 448 432 c 0,40,41
 415 432 415 432 396 438 c 1,42,43
 402 468 402 468 402 493 c 0,44,45
 402 517 402 517 399 535.5 c 128,-1,46
 396 554 396 554 389.5 570.5 c 128,-1,47
 383 587 383 587 369.5 596.5 c 128,-1,48
 356 606 356 606 335 606 c 0,0,1
476 862 m 1,49,50
 493 848 493 848 503.5 828 c 128,-1,51
 514 808 514 808 514 788 c 0,52,53
 514 775 514 775 509.5 765 c 128,-1,54
 505 755 505 755 499 748.5 c 128,-1,55
 493 742 493 742 481 736.5 c 128,-1,56
 469 731 469 731 461 728.5 c 128,-1,57
 453 726 453 726 436 724 c 128,-1,58
 419 722 419 722 412 721.5 c 128,-1,59
 405 721 405 721 387 719 c 2,60,-1
 241 709 l 1,61,-1
 229 760 l 1,62,-1
 476 862 l 1,49,50
EndSplineSet
Validated: 1
Substitution2: "'locl' Localized Forms in Latin lookup 13 subtable" Cacute.loclPLK
Substitution2: "'aalt' Access All Alternates lookup 0 subtable" Cacute.loclPLK
Position2: "'cpsp' Capital Spacing lookup 3 subtable" dx=5 dy=0 dh=10 dv=0
EndChar

StartChar: Ccaron
Encoding: 268 268 17
Width: 588
Flags: MW
HStem: -22 147<342 397> 606 74<294 363>
VStem: 20 230<296 406 296 438> 402 171<509 521>
LayerCount: 2
UndoRedoHistory
Layer: 0
Undoes
EndUndoes
Redoes
EndRedoes
EndUndoRedoHistory
UndoRedoHistory
Layer: 1
Undoes
EndUndoes
Redoes
EndRedoes
EndUndoRedoHistory
Fore
SplineSet
335 606 m 0,0,1
 320 606 320 606 307.5 599.5 c 128,-1,2
 295 593 295 593 286.5 579.5 c 128,-1,3
 278 566 278 566 272 551.5 c 128,-1,4
 266 537 266 537 262 516 c 128,-1,5
 258 495 258 495 255.5 477.5 c 128,-1,6
 253 460 253 460 251.5 437 c 128,-1,7
 250 414 250 414 250 400 c 2,8,-1
 250 365 l 2,9,10
 250 310 250 310 257.5 268.5 c 128,-1,11
 265 227 265 227 281.5 193.5 c 128,-1,12
 298 160 298 160 327.5 142.5 c 128,-1,13
 357 125 357 125 400 125 c 0,14,15
 488 125 488 125 536 209 c 1,16,17
 575 185 575 185 575 136 c 0,18,19
 575 97 575 97 554.5 66 c 128,-1,20
 534 35 534 35 499.5 16.5 c 128,-1,21
 465 -2 465 -2 425 -12 c 128,-1,22
 385 -22 385 -22 343 -22 c 0,23,24
 260 -22 260 -22 196.5 5 c 128,-1,25
 133 32 133 32 95.5 80 c 128,-1,26
 58 128 58 128 39 189.5 c 128,-1,27
 20 251 20 251 20 326 c 0,28,29
 20 496 20 496 102.5 588 c 128,-1,30
 185 680 185 680 349 680 c 0,31,32
 383 680 383 680 413.5 676.5 c 128,-1,33
 444 673 444 673 474 663.5 c 128,-1,34
 504 654 504 654 525.5 639 c 128,-1,35
 547 624 547 624 560 600 c 128,-1,36
 573 576 573 576 573 545 c 0,37,38
 573 493 573 493 537 462.5 c 128,-1,39
 501 432 501 432 448 432 c 0,40,41
 415 432 415 432 396 438 c 1,42,43
 402 468 402 468 402 493 c 0,44,45
 402 517 402 517 399 535.5 c 128,-1,46
 396 554 396 554 389.5 570.5 c 128,-1,47
 383 587 383 587 369.5 596.5 c 128,-1,48
 356 606 356 606 335 606 c 0,0,1
508 811 m 1,49,-1
 367 695 l 1,50,-1
 303 695 l 1,51,-1
 158 811 l 1,52,-1
 198 857 l 1,53,-1
 333 805 l 1,54,-1
 469 857 l 1,55,-1
 508 811 l 1,49,-1
EndSplineSet
Validated: 1
Position2: "'cpsp' Capital Spacing lookup 3 subtable" dx=5 dy=0 dh=10 dv=0
EndChar

StartChar: Ccedilla
Encoding: 199 199 18
Width: 588
Flags: MW
HStem: -258 68<310 325 294 366> -110 53<280 387> -22 147<342 343 341 431> 606 74<294 363>
VStem: 20 230<296 406 296 438> 354 122<-163 -133> 402 171<509 521>
LayerCount: 2
UndoRedoHistory
Layer: 0
Undoes
EndUndoes
Redoes
EndRedoes
EndUndoRedoHistory
UndoRedoHistory
Layer: 1
Undoes
EndUndoes
Redoes
EndRedoes
EndUndoRedoHistory
Fore
SplineSet
281 -18 m 1,0,1
 214 -9 214 -9 163 21.5 c 128,-1,2
 112 52 112 52 81.5 98.5 c 128,-1,3
 51 145 51 145 35.5 202 c 128,-1,4
 20 259 20 259 20 326 c 0,5,6
 20 496 20 496 102.5 588 c 128,-1,7
 185 680 185 680 349 680 c 0,8,9
 383 680 383 680 413.5 676.5 c 128,-1,10
 444 673 444 673 474 663.5 c 128,-1,11
 504 654 504 654 525.5 639 c 128,-1,12
 547 624 547 624 560 600 c 128,-1,13
 573 576 573 576 573 545 c 0,14,15
 573 493 573 493 537 462.5 c 128,-1,16
 501 432 501 432 448 432 c 0,17,18
 415 432 415 432 396 438 c 1,19,20
 402 468 402 468 402 493 c 0,21,22
 402 517 402 517 399 535.5 c 128,-1,23
 396 554 396 554 389.5 570.5 c 128,-1,24
 383 587 383 587 369 596.5 c 128,-1,25
 355 606 355 606 335 606 c 0,26,27
 320 606 320 606 307.5 599.5 c 128,-1,28
 295 593 295 593 286.5 579.5 c 128,-1,29
 278 566 278 566 272 551.5 c 128,-1,30
 266 537 266 537 262 516 c 128,-1,31
 258 495 258 495 255.5 477.5 c 128,-1,32
 253 460 253 460 251.5 437 c 128,-1,33
 250 414 250 414 250 400 c 2,34,-1
 250 365 l 2,35,36
 250 310 250 310 257.5 268.5 c 128,-1,37
 265 227 265 227 281.5 193.5 c 128,-1,38
 298 160 298 160 327.5 142.5 c 128,-1,39
 357 125 357 125 400 125 c 0,40,41
 488 125 488 125 536 209 c 1,42,43
 575 185 575 185 575 136 c 0,44,45
 575 97 575 97 554.5 66 c 128,-1,46
 534 35 534 35 499.5 16.5 c 128,-1,47
 465 -2 465 -2 425 -12 c 128,-1,48
 385 -22 385 -22 343 -22 c 2,49,-1
 341 -22 l 1,50,-1
 326 -58 l 1,51,52
 331 -58 331 -58 339.5 -57.5 c 128,-1,53
 348 -57 348 -57 351 -57 c 0,54,55
 408 -57 408 -57 442 -80.5 c 128,-1,56
 476 -104 476 -104 476 -154 c 0,57,58
 476 -188 476 -188 454 -212 c 128,-1,59
 432 -236 432 -236 399.5 -247 c 128,-1,60
 367 -258 367 -258 330 -258 c 0,61,62
 312 -258 312 -258 295.5 -255 c 128,-1,63
 279 -252 279 -252 262 -246 c 128,-1,64
 245 -240 245 -240 234 -227.5 c 128,-1,65
 223 -215 223 -215 223 -197 c 0,66,67
 223 -172 223 -172 235 -157 c 1,68,69
 261 -190 261 -190 314 -190 c 0,70,71
 330 -190 330 -190 342 -178.5 c 128,-1,72
 354 -167 354 -167 354 -151 c 0,73,74
 354 -110 354 -110 287 -110 c 0,75,76
 273 -110 273 -110 247 -112 c 1,77,-1
 281 -18 l 1,0,1
EndSplineSet
Validated: 8388609
Position2: "'cpsp' Capital Spacing lookup 3 subtable" dx=5 dy=0 dh=10 dv=0
EndChar

StartChar: Ccircumflex
Encoding: 264 264 19
Width: 588
Flags: MW
HStem: -22 147<342 397> 606 74<294 363>
VStem: 20 230<296 406 296 438> 402 171<509 521>
LayerCount: 2
UndoRedoHistory
Layer: 0
Undoes
EndUndoes
Redoes
EndRedoes
EndUndoRedoHistory
UndoRedoHistory
Layer: 1
Undoes
EndUndoes
Redoes
EndRedoes
EndUndoRedoHistory
Fore
SplineSet
335 606 m 0,0,1
 320 606 320 606 307.5 599.5 c 128,-1,2
 295 593 295 593 286.5 579.5 c 128,-1,3
 278 566 278 566 272 551.5 c 128,-1,4
 266 537 266 537 262 516 c 128,-1,5
 258 495 258 495 255.5 477.5 c 128,-1,6
 253 460 253 460 251.5 437 c 128,-1,7
 250 414 250 414 250 400 c 2,8,-1
 250 365 l 2,9,10
 250 310 250 310 257.5 268.5 c 128,-1,11
 265 227 265 227 281.5 193.5 c 128,-1,12
 298 160 298 160 327.5 142.5 c 128,-1,13
 357 125 357 125 400 125 c 0,14,15
 488 125 488 125 536 209 c 1,16,17
 575 185 575 185 575 136 c 0,18,19
 575 97 575 97 554.5 66 c 128,-1,20
 534 35 534 35 499.5 16.5 c 128,-1,21
 465 -2 465 -2 425 -12 c 128,-1,22
 385 -22 385 -22 343 -22 c 0,23,24
 260 -22 260 -22 196.5 5 c 128,-1,25
 133 32 133 32 95.5 80 c 128,-1,26
 58 128 58 128 39 189.5 c 128,-1,27
 20 251 20 251 20 326 c 0,28,29
 20 496 20 496 102.5 588 c 128,-1,30
 185 680 185 680 349 680 c 0,31,32
 383 680 383 680 413.5 676.5 c 128,-1,33
 444 673 444 673 474 663.5 c 128,-1,34
 504 654 504 654 525.5 639 c 128,-1,35
 547 624 547 624 560 600 c 128,-1,36
 573 576 573 576 573 545 c 0,37,38
 573 493 573 493 537 462.5 c 128,-1,39
 501 432 501 432 448 432 c 0,40,41
 415 432 415 432 396 438 c 1,42,43
 402 468 402 468 402 493 c 0,44,45
 402 517 402 517 399 535.5 c 128,-1,46
 396 554 396 554 389.5 570.5 c 128,-1,47
 383 587 383 587 369.5 596.5 c 128,-1,48
 356 606 356 606 335 606 c 0,0,1
160 731 m 1,49,-1
 312 846 l 1,50,-1
 355 846 l 1,51,-1
 509 731 l 1,52,-1
 470 684 l 1,53,-1
 335 735 l 1,54,-1
 199 684 l 1,55,-1
 160 731 l 1,49,-1
EndSplineSet
Validated: 1
Position2: "'cpsp' Capital Spacing lookup 3 subtable" dx=5 dy=0 dh=10 dv=0
EndChar

StartChar: Cdotaccent
Encoding: 266 266 20
Width: 588
Flags: MW
HStem: -22 147<342 397> 606 74<294 363> 740 160<308 367>
VStem: 20 230<296 406 296 438> 228 217<793 845> 402 171<509 521>
LayerCount: 2
UndoRedoHistory
Layer: 0
Undoes
EndUndoes
Redoes
EndRedoes
EndUndoRedoHistory
UndoRedoHistory
Layer: 1
Undoes
EndUndoes
Redoes
EndRedoes
EndUndoRedoHistory
Fore
SplineSet
335 606 m 0,0,1
 320 606 320 606 307.5 599.5 c 128,-1,2
 295 593 295 593 286.5 579.5 c 128,-1,3
 278 566 278 566 272 551.5 c 128,-1,4
 266 537 266 537 262 516 c 128,-1,5
 258 495 258 495 255.5 477.5 c 128,-1,6
 253 460 253 460 251.5 437 c 128,-1,7
 250 414 250 414 250 400 c 2,8,-1
 250 365 l 2,9,10
 250 310 250 310 257.5 268.5 c 128,-1,11
 265 227 265 227 281.5 193.5 c 128,-1,12
 298 160 298 160 327.5 142.5 c 128,-1,13
 357 125 357 125 400 125 c 0,14,15
 488 125 488 125 536 209 c 1,16,17
 575 185 575 185 575 136 c 0,18,19
 575 97 575 97 554.5 66 c 128,-1,20
 534 35 534 35 499.5 16.5 c 128,-1,21
 465 -2 465 -2 425 -12 c 128,-1,22
 385 -22 385 -22 343 -22 c 0,23,24
 260 -22 260 -22 196.5 5 c 128,-1,25
 133 32 133 32 95.5 80 c 128,-1,26
 58 128 58 128 39 189.5 c 128,-1,27
 20 251 20 251 20 326 c 0,28,29
 20 496 20 496 102.5 588 c 128,-1,30
 185 680 185 680 349 680 c 0,31,32
 383 680 383 680 413.5 676.5 c 128,-1,33
 444 673 444 673 474 663.5 c 128,-1,34
 504 654 504 654 525.5 639 c 128,-1,35
 547 624 547 624 560 600 c 128,-1,36
 573 576 573 576 573 545 c 0,37,38
 573 493 573 493 537 462.5 c 128,-1,39
 501 432 501 432 448 432 c 0,40,41
 415 432 415 432 396 438 c 1,42,43
 402 468 402 468 402 493 c 0,44,45
 402 517 402 517 399 535.5 c 128,-1,46
 396 554 396 554 389.5 570.5 c 128,-1,47
 383 587 383 587 369.5 596.5 c 128,-1,48
 356 606 356 606 335 606 c 0,0,1
339 900 m 128,-1,50
 387 900 387 900 416 878.5 c 128,-1,51
 445 857 445 857 445 820 c 0,52,53
 445 781 445 781 414.5 760.5 c 128,-1,54
 384 740 384 740 335 740 c 0,55,56
 287 740 287 740 257.5 760.5 c 128,-1,57
 228 781 228 781 228 818 c 0,58,59
 228 857 228 857 259.5 878.5 c 128,-1,49
 291 900 291 900 339 900 c 128,-1,50
EndSplineSet
Validated: 8388609
Position2: "'cpsp' Capital Spacing lookup 3 subtable" dx=5 dy=0 dh=10 dv=0
EndChar

StartChar: D
Encoding: 68 68 21
Width: 663
Flags: MW
HStem: -10 74<307 359 307 415> 591 74<305 358>
VStem: 50 214<71 71 71 583> 414 231<273 394>
LayerCount: 2
UndoRedoHistory
Layer: 0
Undoes
EndUndoes
Redoes
EndRedoes
EndUndoRedoHistory
UndoRedoHistory
Layer: 1
Undoes
EndUndoes
Redoes
EndRedoes
EndUndoRedoHistory
Fore
SplineSet
264 71 m 1,0,1
 289 64 289 64 316 64 c 0,2,3
 341 64 341 64 359 81 c 128,-1,4
 377 98 377 98 387.5 123.5 c 128,-1,5
 398 149 398 149 404 187 c 128,-1,6
 410 225 410 225 412 258.5 c 128,-1,7
 414 292 414 292 414 333 c 0,8,9
 414 367 414 367 412.5 394.5 c 128,-1,10
 411 422 411 422 407.5 453 c 128,-1,11
 404 484 404 484 397 507.5 c 128,-1,12
 390 531 390 531 379.5 550.5 c 128,-1,13
 369 570 369 570 352.5 580.5 c 128,-1,14
 336 591 336 591 315 591 c 0,15,16
 292 591 292 591 264 583 c 1,17,-1
 264 71 l 1,0,1
50 653 m 1,18,19
 193 665 193 665 315 665 c 0,20,21
 483 665 483 665 564 585.5 c 128,-1,22
 645 506 645 506 645 339 c 0,23,24
 645 168 645 168 558 79 c 128,-1,25
 471 -10 471 -10 301 -10 c 0,26,27
 187 -10 187 -10 50 4 c 1,28,-1
 50 653 l 1,18,19
EndSplineSet
Validated: 1
Position2: "'cpsp' Capital Spacing lookup 3 subtable" dx=5 dy=0 dh=10 dv=0
EndChar

StartChar: DZ
Encoding: 497 497 22
Width: 1143
Flags: MW
HStem: -10 74<307 359 307 415> 0 90<900 1136> 570 90<691 905 691 1127> 591 74<305 358>
VStem: 50 214<71 71 71 583> 414 231<273 394>
LayerCount: 2
UndoRedoHistory
Layer: 0
Undoes
EndUndoes
Redoes
EndRedoes
EndUndoRedoHistory
UndoRedoHistory
Layer: 1
Undoes
EndUndoes
Redoes
EndRedoes
EndUndoRedoHistory
Fore
SplineSet
264 71 m 1,0,1
 289 64 289 64 316 64 c 0,2,3
 341 64 341 64 359 81 c 128,-1,4
 377 98 377 98 387.5 123.5 c 128,-1,5
 398 149 398 149 404 187 c 128,-1,6
 410 225 410 225 412 258.5 c 128,-1,7
 414 292 414 292 414 333 c 0,8,9
 414 367 414 367 412.5 394.5 c 128,-1,10
 411 422 411 422 407.5 453 c 128,-1,11
 404 484 404 484 397 507.5 c 128,-1,12
 390 531 390 531 379.5 550.5 c 128,-1,13
 369 570 369 570 352.5 580.5 c 128,-1,14
 336 591 336 591 315 591 c 0,15,16
 292 591 292 591 264 583 c 1,17,-1
 264 71 l 1,0,1
1134 584 m 1,18,-1
 900 90 l 1,19,-1
 1147 90 l 1,20,-1
 1136 0 l 1,21,-1
 678 0 l 1,22,-1
 671 76 l 1,23,-1
 905 570 l 1,24,-1
 691 570 l 1,25,-1
 691 660 l 1,26,-1
 1127 660 l 1,27,-1
 1134 584 l 1,18,-1
50 653 m 1,28,29
 193 665 193 665 315 665 c 0,30,31
 483 665 483 665 564 585.5 c 128,-1,32
 645 506 645 506 645 339 c 0,33,34
 645 168 645 168 558 79 c 128,-1,35
 471 -10 471 -10 301 -10 c 0,36,37
 187 -10 187 -10 50 4 c 1,38,-1
 50 653 l 1,28,29
EndSplineSet
Validated: 8388609
Position2: "'cpsp' Capital Spacing lookup 3 subtable" dx=5 dy=0 dh=10 dv=0
EndChar

StartChar: DZcaron
Encoding: 452 452 23
Width: 1143
Flags: MW
HStem: -10 74<307 359 307 415> 0 90<900 1136> 570 90<691 905 691 1127> 591 74<305 358>
VStem: 50 214<71 71 71 583> 414 231<273 394>
LayerCount: 2
UndoRedoHistory
Layer: 0
Undoes
EndUndoes
Redoes
EndRedoes
EndUndoRedoHistory
UndoRedoHistory
Layer: 1
Undoes
EndUndoes
Redoes
EndRedoes
EndUndoRedoHistory
Fore
SplineSet
264 71 m 1,0,1
 289 64 289 64 316 64 c 0,2,3
 341 64 341 64 359 81 c 128,-1,4
 377 98 377 98 387.5 123.5 c 128,-1,5
 398 149 398 149 404 187 c 128,-1,6
 410 225 410 225 412 258.5 c 128,-1,7
 414 292 414 292 414 333 c 0,8,9
 414 367 414 367 412.5 394.5 c 128,-1,10
 411 422 411 422 407.5 453 c 128,-1,11
 404 484 404 484 397 507.5 c 128,-1,12
 390 531 390 531 379.5 550.5 c 128,-1,13
 369 570 369 570 352.5 580.5 c 128,-1,14
 336 591 336 591 315 591 c 0,15,16
 292 591 292 591 264 583 c 1,17,-1
 264 71 l 1,0,1
1134 584 m 1,18,-1
 900 90 l 1,19,-1
 1147 90 l 1,20,-1
 1136 0 l 1,21,-1
 678 0 l 1,22,-1
 671 76 l 1,23,-1
 905 570 l 1,24,-1
 691 570 l 1,25,-1
 691 660 l 1,26,-1
 1127 660 l 1,27,-1
 1134 584 l 1,18,-1
50 653 m 1,28,29
 193 665 193 665 315 665 c 0,30,31
 483 665 483 665 564 585.5 c 128,-1,32
 645 506 645 506 645 339 c 0,33,34
 645 168 645 168 558 79 c 128,-1,35
 471 -10 471 -10 301 -10 c 0,36,37
 187 -10 187 -10 50 4 c 1,38,-1
 50 653 l 1,28,29
1077 811 m 1,39,-1
 936 695 l 1,40,-1
 872 695 l 1,41,-1
 727 811 l 1,42,-1
 767 857 l 1,43,-1
 902 805 l 1,44,-1
 1038 857 l 1,45,-1
 1077 811 l 1,39,-1
EndSplineSet
Validated: 8388609
Position2: "'cpsp' Capital Spacing lookup 3 subtable" dx=5 dy=0 dh=10 dv=0
EndChar

StartChar: Eth
Encoding: 208 208 24
Width: 663
Flags: MW
HStem: -10 74<307 359 307 415> 290 92<264 355 264 290> 591 74<305 358>
VStem: 50 214<71 71 71 290 382 583> 414 231<273 394>
LayerCount: 2
UndoRedoHistory
Layer: 0
Undoes
EndUndoes
Redoes
EndRedoes
EndUndoRedoHistory
UndoRedoHistory
Layer: 1
Undoes
EndUndoes
Redoes
EndRedoes
EndUndoRedoHistory
Fore
SplineSet
264 71 m 1,0,1
 289 64 289 64 316 64 c 0,2,3
 341 64 341 64 359 81 c 128,-1,4
 377 98 377 98 387.5 123.5 c 128,-1,5
 398 149 398 149 404 187 c 128,-1,6
 410 225 410 225 412 258.5 c 128,-1,7
 414 292 414 292 414 333 c 0,8,9
 414 367 414 367 412.5 394.5 c 128,-1,10
 411 422 411 422 407.5 453 c 128,-1,11
 404 484 404 484 397 507.5 c 128,-1,12
 390 531 390 531 379.5 550.5 c 128,-1,13
 369 570 369 570 352.5 580.5 c 128,-1,14
 336 591 336 591 315 591 c 0,15,16
 292 591 292 591 264 583 c 1,17,-1
 264 382 l 1,18,-1
 355 382 l 1,19,20
 359 370 359 370 359 352 c 0,21,22
 359 321 359 321 341 305.5 c 128,-1,23
 323 290 323 290 290 290 c 2,24,-1
 264 290 l 1,25,-1
 264 71 l 1,0,1
50 653 m 1,26,27
 193 665 193 665 315 665 c 0,28,29
 483 665 483 665 564 585.5 c 128,-1,30
 645 506 645 506 645 339 c 0,31,32
 645 168 645 168 558 79 c 128,-1,33
 471 -10 471 -10 301 -10 c 0,34,35
 187 -10 187 -10 50 4 c 1,36,-1
 50 290 l 1,37,-1
 -3 290 l 1,38,39
 -7 302 -7 302 -7 320 c 0,40,41
 -7 377 -7 377 50 381 c 1,42,-1
 50 653 l 1,26,27
EndSplineSet
Validated: 1
Position2: "'cpsp' Capital Spacing lookup 3 subtable" dx=5 dy=0 dh=10 dv=0
EndChar

StartChar: Dcaron
Encoding: 270 270 25
Width: 663
Flags: MW
HStem: -10 74<307 359 307 415> 591 74<305 358>
VStem: 50 214<71 71 71 583> 414 231<273 394>
LayerCount: 2
UndoRedoHistory
Layer: 0
Undoes
EndUndoes
Redoes
EndRedoes
EndUndoRedoHistory
UndoRedoHistory
Layer: 1
Undoes
EndUndoes
Redoes
EndRedoes
EndUndoRedoHistory
Fore
SplineSet
264 71 m 1,0,1
 289 64 289 64 316 64 c 0,2,3
 341 64 341 64 359 81 c 128,-1,4
 377 98 377 98 387.5 123.5 c 128,-1,5
 398 149 398 149 404 187 c 128,-1,6
 410 225 410 225 412 258.5 c 128,-1,7
 414 292 414 292 414 333 c 0,8,9
 414 367 414 367 412.5 394.5 c 128,-1,10
 411 422 411 422 407.5 453 c 128,-1,11
 404 484 404 484 397 507.5 c 128,-1,12
 390 531 390 531 379.5 550.5 c 128,-1,13
 369 570 369 570 352.5 580.5 c 128,-1,14
 336 591 336 591 315 591 c 0,15,16
 292 591 292 591 264 583 c 1,17,-1
 264 71 l 1,0,1
50 653 m 1,18,19
 193 665 193 665 315 665 c 0,20,21
 483 665 483 665 564 585.5 c 128,-1,22
 645 506 645 506 645 339 c 0,23,24
 645 168 645 168 558 79 c 128,-1,25
 471 -10 471 -10 301 -10 c 0,26,27
 187 -10 187 -10 50 4 c 1,28,-1
 50 653 l 1,18,19
488 811 m 1,29,-1
 347 695 l 1,30,-1
 283 695 l 1,31,-1
 138 811 l 1,32,-1
 178 857 l 1,33,-1
 313 805 l 1,34,-1
 449 857 l 1,35,-1
 488 811 l 1,29,-1
EndSplineSet
Validated: 1
Position2: "'cpsp' Capital Spacing lookup 3 subtable" dx=5 dy=0 dh=10 dv=0
EndChar

StartChar: Dcroat
Encoding: 272 272 26
Width: 663
Flags: MW
HStem: -10 74<307 359 307 415> 290 92<264 354 264 290> 591 74<305 358>
VStem: 50 214<71 71 71 290 382 583> 414 231<273 394>
LayerCount: 2
UndoRedoHistory
Layer: 0
Undoes
EndUndoes
Redoes
EndRedoes
EndUndoRedoHistory
UndoRedoHistory
Layer: 1
Undoes
EndUndoes
Redoes
EndRedoes
EndUndoRedoHistory
Fore
SplineSet
264 71 m 1,0,1
 289 64 289 64 316 64 c 0,2,3
 341 64 341 64 359 81 c 128,-1,4
 377 98 377 98 387.5 123.5 c 128,-1,5
 398 149 398 149 404 187 c 128,-1,6
 410 225 410 225 412 258.5 c 128,-1,7
 414 292 414 292 414 333 c 0,8,9
 414 367 414 367 412.5 394.5 c 128,-1,10
 411 422 411 422 407.5 453 c 128,-1,11
 404 484 404 484 397 507.5 c 128,-1,12
 390 531 390 531 379.5 550.5 c 128,-1,13
 369 570 369 570 352.5 580.5 c 128,-1,14
 336 591 336 591 315 591 c 0,15,16
 292 591 292 591 264 583 c 1,17,-1
 264 382 l 1,18,-1
 354 382 l 1,19,20
 359 367 359 367 359 352 c 0,21,22
 359 321 359 321 341 305.5 c 128,-1,23
 323 290 323 290 290 290 c 2,24,-1
 264 290 l 1,25,-1
 264 71 l 1,0,1
50 653 m 1,26,27
 193 665 193 665 315 665 c 0,28,29
 483 665 483 665 564 585.5 c 128,-1,30
 645 506 645 506 645 339 c 0,31,32
 645 168 645 168 558 79 c 128,-1,33
 471 -10 471 -10 301 -10 c 0,34,35
 187 -10 187 -10 50 4 c 1,36,-1
 50 290 l 1,37,-1
 -3 290 l 1,38,39
 -7 302 -7 302 -7 320 c 0,40,41
 -7 377 -7 377 50 381 c 1,42,-1
 50 653 l 1,26,27
EndSplineSet
Validated: 1
Position2: "'cpsp' Capital Spacing lookup 3 subtable" dx=5 dy=0 dh=10 dv=0
EndChar

StartChar: Ddotbelow
Encoding: 7692 7692 27
Width: 663
Flags: MW
HStem: -201 160<280 338> -10 74<307 359 307 415> 591 74<305 358>
VStem: 50 214<71 71 71 583> 200 217<-147 -97> 414 231<273 394>
LayerCount: 2
UndoRedoHistory
Layer: 0
Undoes
EndUndoes
Redoes
EndRedoes
EndUndoRedoHistory
UndoRedoHistory
Layer: 1
Undoes
EndUndoes
Redoes
EndRedoes
EndUndoRedoHistory
Fore
SplineSet
311 -41 m 0,0,1
 359 -41 359 -41 388 -62 c 128,-1,2
 417 -83 417 -83 417 -121 c 0,3,4
 417 -160 417 -160 386.5 -180.5 c 128,-1,5
 356 -201 356 -201 307 -201 c 0,6,7
 259 -201 259 -201 229.5 -180.5 c 128,-1,8
 200 -160 200 -160 200 -123 c 0,9,10
 200 -84 200 -84 231.5 -62.5 c 128,-1,11
 263 -41 263 -41 311 -41 c 0,0,1
264 71 m 1,12,13
 289 64 289 64 316 64 c 0,14,15
 341 64 341 64 359 81 c 128,-1,16
 377 98 377 98 387.5 123.5 c 128,-1,17
 398 149 398 149 404 187 c 128,-1,18
 410 225 410 225 412 258.5 c 128,-1,19
 414 292 414 292 414 333 c 0,20,21
 414 367 414 367 412.5 394.5 c 128,-1,22
 411 422 411 422 407.5 453 c 128,-1,23
 404 484 404 484 397 507.5 c 128,-1,24
 390 531 390 531 379.5 550.5 c 128,-1,25
 369 570 369 570 352.5 580.5 c 128,-1,26
 336 591 336 591 315 591 c 0,27,28
 292 591 292 591 264 583 c 1,29,-1
 264 71 l 1,12,13
50 653 m 1,30,31
 193 665 193 665 315 665 c 0,32,33
 483 665 483 665 564 585.5 c 128,-1,34
 645 506 645 506 645 339 c 0,35,36
 645 168 645 168 558 79 c 128,-1,37
 471 -10 471 -10 301 -10 c 0,38,39
 187 -10 187 -10 50 4 c 1,40,-1
 50 653 l 1,30,31
EndSplineSet
Validated: 8388609
Position2: "'cpsp' Capital Spacing lookup 3 subtable" dx=5 dy=0 dh=10 dv=0
EndChar

StartChar: Dz
Encoding: 498 498 28
Width: 1096
Flags: MW
HStem: -10 74<307 359 307 415> 0 92 418 92 591 74<305 358>
VStem: 50 214<71 71 71 583> 414 231<273 394>
LayerCount: 2
UndoRedoHistory
Layer: 0
Undoes
EndUndoes
Redoes
EndRedoes
EndUndoRedoHistory
UndoRedoHistory
Layer: 1
Undoes
EndUndoes
Redoes
EndRedoes
EndUndoRedoHistory
Fore
SplineSet
1081 451 m 1,0,-1
 888 84 l 1,1,-1
 1083 99 l 1,2,-1
 1073 0 l 1,3,-1
 671 0 l 1,4,-1
 665 59 l 1,5,-1
 857 425 l 1,6,-1
 684 412 l 1,7,-1
 694 510 l 1,8,-1
 1075 510 l 1,9,-1
 1081 451 l 1,0,-1
264 71 m 1,10,11
 289 64 289 64 316 64 c 0,12,13
 341 64 341 64 359 81 c 128,-1,14
 377 98 377 98 387.5 123.5 c 128,-1,15
 398 149 398 149 404 187 c 128,-1,16
 410 225 410 225 412 258.5 c 128,-1,17
 414 292 414 292 414 333 c 0,18,19
 414 367 414 367 412.5 394.5 c 128,-1,20
 411 422 411 422 407.5 453 c 128,-1,21
 404 484 404 484 397 507.5 c 128,-1,22
 390 531 390 531 379.5 550.5 c 128,-1,23
 369 570 369 570 352.5 580.5 c 128,-1,24
 336 591 336 591 315 591 c 0,25,26
 292 591 292 591 264 583 c 1,27,-1
 264 71 l 1,10,11
50 653 m 1,28,29
 193 665 193 665 315 665 c 0,30,31
 483 665 483 665 564 585.5 c 128,-1,32
 645 506 645 506 645 339 c 0,33,34
 645 168 645 168 558 79 c 128,-1,35
 471 -10 471 -10 301 -10 c 0,36,37
 187 -10 187 -10 50 4 c 1,38,-1
 50 653 l 1,28,29
EndSplineSet
Validated: 8388609
Position2: "'cpsp' Capital Spacing lookup 3 subtable" dx=5 dy=0 dh=10 dv=0
EndChar

StartChar: Dzcaron
Encoding: 453 453 29
Width: 1096
Flags: MW
HStem: -10 74<307 359 307 415> 0 92 418 92 591 74<305 358> 641 20G<704 704 1054 1054> 687 20G<744 744 1015 1015>
VStem: 50 214<71 71 71 583> 414 231<273 394>
LayerCount: 2
UndoRedoHistory
Layer: 0
Undoes
EndUndoes
Redoes
EndRedoes
EndUndoRedoHistory
UndoRedoHistory
Layer: 1
Undoes
EndUndoes
Redoes
EndRedoes
EndUndoRedoHistory
Fore
SplineSet
1081 451 m 1,0,-1
 888 84 l 1,1,-1
 1083 99 l 1,2,-1
 1073 0 l 1,3,-1
 671 0 l 1,4,-1
 665 59 l 1,5,-1
 857 425 l 1,6,-1
 684 412 l 1,7,-1
 694 510 l 1,8,-1
 1075 510 l 1,9,-1
 1081 451 l 1,0,-1
264 71 m 1,10,11
 289 64 289 64 316 64 c 0,12,13
 341 64 341 64 359 81 c 128,-1,14
 377 98 377 98 387.5 123.5 c 128,-1,15
 398 149 398 149 404 187 c 128,-1,16
 410 225 410 225 412 258.5 c 128,-1,17
 414 292 414 292 414 333 c 0,18,19
 414 367 414 367 412.5 394.5 c 128,-1,20
 411 422 411 422 407.5 453 c 128,-1,21
 404 484 404 484 397 507.5 c 128,-1,22
 390 531 390 531 379.5 550.5 c 128,-1,23
 369 570 369 570 352.5 580.5 c 128,-1,24
 336 591 336 591 315 591 c 0,25,26
 292 591 292 591 264 583 c 1,27,-1
 264 71 l 1,10,11
50 653 m 1,28,29
 193 665 193 665 315 665 c 0,30,31
 483 665 483 665 564 585.5 c 128,-1,32
 645 506 645 506 645 339 c 0,33,34
 645 168 645 168 558 79 c 128,-1,35
 471 -10 471 -10 301 -10 c 0,36,37
 187 -10 187 -10 50 4 c 1,38,-1
 50 653 l 1,28,29
1054 661 m 1,39,-1
 913 545 l 1,40,-1
 849 545 l 1,41,-1
 704 661 l 1,42,-1
 744 707 l 1,43,-1
 879 655 l 1,44,-1
 1015 707 l 1,45,-1
 1054 661 l 1,39,-1
EndSplineSet
Validated: 8388609
Position2: "'cpsp' Capital Spacing lookup 3 subtable" dx=5 dy=0 dh=10 dv=0
EndChar

StartChar: E
Encoding: 69 69 30
Width: 455
Flags: MW
HStem: 0 84<264 448> 297 84<264 411 264 411> 576 84<264 441 264 264>
VStem: 50 214<84 297 381 576>
LayerCount: 2
UndoRedoHistory
Layer: 0
Undoes
EndUndoes
Redoes
EndRedoes
EndUndoRedoHistory
UndoRedoHistory
Layer: 1
Undoes
EndUndoes
Redoes
EndRedoes
EndUndoRedoHistory
Fore
SplineSet
441 576 m 1,0,-1
 264 576 l 1,1,-1
 264 381 l 1,2,-1
 411 381 l 1,3,-1
 411 297 l 1,4,-1
 264 297 l 1,5,-1
 264 84 l 1,6,-1
 456 84 l 1,7,-1
 448 0 l 1,8,-1
 50 0 l 1,9,-1
 50 660 l 1,10,-1
 441 660 l 1,11,-1
 441 576 l 1,0,-1
EndSplineSet
Validated: 1
Position2: "'cpsp' Capital Spacing lookup 3 subtable" dx=5 dy=0 dh=10 dv=0
EndChar

StartChar: Eacute
Encoding: 201 201 31
Width: 455
Flags: MW
HStem: 0 84<264 448> 297 84<264 411 264 411> 576 84<264 264 264 441>
VStem: 50 214<84 297 381 576>
LayerCount: 2
UndoRedoHistory
Layer: 0
Undoes
EndUndoes
Redoes
EndRedoes
EndUndoRedoHistory
UndoRedoHistory
Layer: 1
Undoes
EndUndoes
Redoes
EndRedoes
EndUndoRedoHistory
Fore
SplineSet
264 576 m 1,0,-1
 264 381 l 1,1,-1
 411 381 l 1,2,-1
 411 297 l 1,3,-1
 264 297 l 1,4,-1
 264 84 l 1,5,-1
 456 84 l 1,6,-1
 448 0 l 1,7,-1
 50 0 l 1,8,-1
 50 660 l 1,9,-1
 441 660 l 1,10,-1
 441 576 l 1,11,-1
 264 576 l 1,0,-1
387 862 m 1,12,13
 404 848 404 848 414.5 828 c 128,-1,14
 425 808 425 808 425 788 c 0,15,16
 425 775 425 775 420.5 765 c 128,-1,17
 416 755 416 755 410 748.5 c 128,-1,18
 404 742 404 742 391.5 736.5 c 128,-1,19
 379 731 379 731 371 728.5 c 128,-1,20
 363 726 363 726 346.5 724 c 128,-1,21
 330 722 330 722 322.5 721.5 c 128,-1,22
 315 721 315 721 298 719 c 2,23,-1
 152 709 l 1,24,-1
 140 760 l 1,25,-1
 387 862 l 1,12,13
EndSplineSet
Validated: 1
Position2: "'cpsp' Capital Spacing lookup 3 subtable" dx=5 dy=0 dh=10 dv=0
EndChar

StartChar: Ebreve
Encoding: 276 276 32
Width: 455
Flags: MW
HStem: 0 84<264 448> 297 84<264 411 264 411> 576 84<264 264 264 441> 700 52<225 273 225 320>
VStem: 50 214<84 297 381 576> 52 146<798 811 791 837> 292 147<817 837>
LayerCount: 2
UndoRedoHistory
Layer: 0
Undoes
EndUndoes
Redoes
EndRedoes
EndUndoRedoHistory
UndoRedoHistory
Layer: 1
Undoes
EndUndoes
Redoes
EndRedoes
EndUndoRedoHistory
Fore
SplineSet
264 576 m 1,0,-1
 264 381 l 1,1,-1
 411 381 l 1,2,-1
 411 297 l 1,3,-1
 264 297 l 1,4,-1
 264 84 l 1,5,-1
 456 84 l 1,6,-1
 448 0 l 1,7,-1
 50 0 l 1,8,-1
 50 660 l 1,9,-1
 441 660 l 1,10,-1
 441 576 l 1,11,-1
 264 576 l 1,0,-1
439 837 m 1,12,13
 439 806 439 806 429.5 782.5 c 128,-1,14
 420 759 420 759 398.5 739.5 c 128,-1,15
 377 720 377 720 338.5 710 c 128,-1,16
 300 700 300 700 245 700 c 128,-1,17
 190 700 190 700 151.5 710 c 128,-1,18
 113 720 113 720 91.5 739.5 c 128,-1,19
 70 759 70 759 61 782.5 c 128,-1,20
 52 806 52 806 52 837 c 1,21,-1
 199 837 l 1,22,23
 199 831 199 831 198.5 821 c 128,-1,24
 198 811 198 811 198 805 c 0,25,26
 198 780 198 780 207.5 766 c 128,-1,27
 217 752 217 752 245 752 c 0,28,29
 274 752 274 752 283.5 766.5 c 128,-1,30
 293 781 293 781 293 808 c 0,31,32
 293 813 293 813 292.5 822.5 c 128,-1,33
 292 832 292 832 292 837 c 1,34,-1
 439 837 l 1,12,13
EndSplineSet
Validated: 8388609
Position2: "'cpsp' Capital Spacing lookup 3 subtable" dx=5 dy=0 dh=10 dv=0
EndChar

StartChar: Ecaron
Encoding: 282 282 33
Width: 455
Flags: MW
HStem: 0 84<264 448> 297 84<264 411 264 411> 576 84<264 264 264 441>
VStem: 50 214<84 297 381 576>
LayerCount: 2
UndoRedoHistory
Layer: 0
Undoes
EndUndoes
Redoes
EndRedoes
EndUndoRedoHistory
UndoRedoHistory
Layer: 1
Undoes
EndUndoes
Redoes
EndRedoes
EndUndoRedoHistory
Fore
SplineSet
264 576 m 1,0,-1
 264 381 l 1,1,-1
 411 381 l 1,2,-1
 411 297 l 1,3,-1
 264 297 l 1,4,-1
 264 84 l 1,5,-1
 456 84 l 1,6,-1
 448 0 l 1,7,-1
 50 0 l 1,8,-1
 50 660 l 1,9,-1
 441 660 l 1,10,-1
 441 576 l 1,11,-1
 264 576 l 1,0,-1
418 811 m 1,12,-1
 277 695 l 1,13,-1
 213 695 l 1,14,-1
 68 811 l 1,15,-1
 108 857 l 1,16,-1
 243 805 l 1,17,-1
 379 857 l 1,18,-1
 418 811 l 1,12,-1
EndSplineSet
Validated: 1
Position2: "'cpsp' Capital Spacing lookup 3 subtable" dx=5 dy=0 dh=10 dv=0
EndChar

StartChar: Ecircumflex
Encoding: 202 202 34
Width: 455
Flags: MW
HStem: 0 84<264 448> 297 84<264 411 264 411> 576 84<264 264 264 441>
VStem: 50 214<84 297 381 576>
LayerCount: 2
UndoRedoHistory
Layer: 0
Undoes
EndUndoes
Redoes
EndRedoes
EndUndoRedoHistory
UndoRedoHistory
Layer: 1
Undoes
EndUndoes
Redoes
EndRedoes
EndUndoRedoHistory
Fore
SplineSet
264 576 m 1,0,-1
 264 381 l 1,1,-1
 411 381 l 1,2,-1
 411 297 l 1,3,-1
 264 297 l 1,4,-1
 264 84 l 1,5,-1
 456 84 l 1,6,-1
 448 0 l 1,7,-1
 50 0 l 1,8,-1
 50 660 l 1,9,-1
 441 660 l 1,10,-1
 441 576 l 1,11,-1
 264 576 l 1,0,-1
70 731 m 1,12,-1
 222 846 l 1,13,-1
 265 846 l 1,14,-1
 419 731 l 1,15,-1
 380 684 l 1,16,-1
 245 735 l 1,17,-1
 109 684 l 1,18,-1
 70 731 l 1,12,-1
EndSplineSet
Validated: 1
Position2: "'cpsp' Capital Spacing lookup 3 subtable" dx=5 dy=0 dh=10 dv=0
EndChar

StartChar: Edieresis
Encoding: 203 203 35
Width: 455
Flags: MW
HStem: 0 84<264 448> 297 84<264 411 264 411> 576 84<264 264 264 441> 711 160<102 161 332 391>
VStem: 22 217<765 815> 50 214<84 297 381 576> 252 217<765 815>
LayerCount: 2
UndoRedoHistory
Layer: 0
Undoes
EndUndoes
Redoes
EndRedoes
EndUndoRedoHistory
UndoRedoHistory
Layer: 1
Undoes
EndUndoes
Redoes
EndRedoes
EndUndoRedoHistory
Fore
SplineSet
264 576 m 1,0,-1
 264 381 l 1,1,-1
 411 381 l 1,2,-1
 411 297 l 1,3,-1
 264 297 l 1,4,-1
 264 84 l 1,5,-1
 456 84 l 1,6,-1
 448 0 l 1,7,-1
 50 0 l 1,8,-1
 50 660 l 1,9,-1
 441 660 l 1,10,-1
 441 576 l 1,11,-1
 264 576 l 1,0,-1
363 871 m 0,12,13
 411 871 411 871 440 850 c 128,-1,14
 469 829 469 829 469 791 c 0,15,16
 469 752 469 752 438.5 731.5 c 128,-1,17
 408 711 408 711 359 711 c 0,18,19
 311 711 311 711 281.5 731.5 c 128,-1,20
 252 752 252 752 252 789 c 0,21,22
 252 828 252 828 283.5 849.5 c 128,-1,23
 315 871 315 871 363 871 c 0,12,13
133 871 m 0,24,25
 181 871 181 871 210 850 c 128,-1,26
 239 829 239 829 239 791 c 0,27,28
 239 752 239 752 208.5 731.5 c 128,-1,29
 178 711 178 711 129 711 c 0,30,31
 81 711 81 711 51.5 731.5 c 128,-1,32
 22 752 22 752 22 789 c 0,33,34
 22 828 22 828 53.5 849.5 c 128,-1,35
 85 871 85 871 133 871 c 0,24,25
EndSplineSet
Validated: 8388609
Position2: "'cpsp' Capital Spacing lookup 3 subtable" dx=5 dy=0 dh=10 dv=0
EndChar

StartChar: Edotaccent
Encoding: 278 278 36
Width: 455
Flags: MW
HStem: 0 84<264 448> 297 84<264 411 264 411> 576 84<264 264 264 441> 709 160<219 277>
VStem: 50 214<84 297 381 576> 139 217<763 813>
LayerCount: 2
UndoRedoHistory
Layer: 0
Undoes
EndUndoes
Redoes
EndRedoes
EndUndoRedoHistory
UndoRedoHistory
Layer: 1
Undoes
EndUndoes
Redoes
EndRedoes
EndUndoRedoHistory
Fore
SplineSet
264 576 m 1,0,-1
 264 381 l 1,1,-1
 411 381 l 1,2,-1
 411 297 l 1,3,-1
 264 297 l 1,4,-1
 264 84 l 1,5,-1
 456 84 l 1,6,-1
 448 0 l 1,7,-1
 50 0 l 1,8,-1
 50 660 l 1,9,-1
 441 660 l 1,10,-1
 441 576 l 1,11,-1
 264 576 l 1,0,-1
250 869 m 0,12,13
 298 869 298 869 327 848 c 128,-1,14
 356 827 356 827 356 789 c 0,15,16
 356 750 356 750 325.5 729.5 c 128,-1,17
 295 709 295 709 246 709 c 0,18,19
 198 709 198 709 168.5 729.5 c 128,-1,20
 139 750 139 750 139 787 c 0,21,22
 139 826 139 826 170.5 847.5 c 128,-1,23
 202 869 202 869 250 869 c 0,12,13
EndSplineSet
Validated: 8388609
Position2: "'cpsp' Capital Spacing lookup 3 subtable" dx=5 dy=0 dh=10 dv=0
EndChar

StartChar: Edotbelow
Encoding: 7864 7864 37
Width: 455
Flags: MW
HStem: -201 160<202 261> 0 84<264 448> 297 84<264 411 264 411> 576 84<264 264 264 441>
VStem: 50 214<84 297 381 576> 122 217<-147 -97>
LayerCount: 2
UndoRedoHistory
Layer: 0
Undoes
EndUndoes
Redoes
EndRedoes
EndUndoRedoHistory
UndoRedoHistory
Layer: 1
Undoes
EndUndoes
Redoes
EndRedoes
EndUndoRedoHistory
Fore
SplineSet
233 -41 m 0,0,1
 281 -41 281 -41 310 -62 c 128,-1,2
 339 -83 339 -83 339 -121 c 0,3,4
 339 -160 339 -160 308.5 -180.5 c 128,-1,5
 278 -201 278 -201 229 -201 c 0,6,7
 181 -201 181 -201 151.5 -180.5 c 128,-1,8
 122 -160 122 -160 122 -123 c 0,9,10
 122 -84 122 -84 153.5 -62.5 c 128,-1,11
 185 -41 185 -41 233 -41 c 0,0,1
264 576 m 1,12,-1
 264 381 l 1,13,-1
 411 381 l 1,14,-1
 411 297 l 1,15,-1
 264 297 l 1,16,-1
 264 84 l 1,17,-1
 456 84 l 1,18,-1
 448 0 l 1,19,-1
 50 0 l 1,20,-1
 50 660 l 1,21,-1
 441 660 l 1,22,-1
 441 576 l 1,23,-1
 264 576 l 1,12,-1
EndSplineSet
Validated: 8388609
Position2: "'cpsp' Capital Spacing lookup 3 subtable" dx=5 dy=0 dh=10 dv=0
EndChar

StartChar: Egrave
Encoding: 200 200 38
Width: 455
Flags: MW
HStem: 0 84<264 448> 297 84<264 411 264 411> 576 84<264 264 264 441>
VStem: 50 214<84 297 381 576>
LayerCount: 2
UndoRedoHistory
Layer: 0
Undoes
EndUndoes
Redoes
EndRedoes
EndUndoRedoHistory
UndoRedoHistory
Layer: 1
Undoes
EndUndoes
Redoes
EndRedoes
EndUndoRedoHistory
Fore
SplineSet
264 576 m 1,0,-1
 264 381 l 1,1,-1
 411 381 l 1,2,-1
 411 297 l 1,3,-1
 264 297 l 1,4,-1
 264 84 l 1,5,-1
 456 84 l 1,6,-1
 448 0 l 1,7,-1
 50 0 l 1,8,-1
 50 660 l 1,9,-1
 441 660 l 1,10,-1
 441 576 l 1,11,-1
 264 576 l 1,0,-1
193 720 m 2,12,13
 175 721 175 721 168 722 c 128,-1,14
 161 723 161 723 144 725 c 128,-1,15
 127 727 127 727 119 729.5 c 128,-1,16
 111 732 111 732 99 737.5 c 128,-1,17
 87 743 87 743 81 749.5 c 128,-1,18
 75 756 75 756 70.5 766 c 128,-1,19
 66 776 66 776 66 789 c 0,20,21
 66 809 66 809 76.5 829 c 128,-1,22
 87 849 87 849 104 863 c 1,23,-1
 351 761 l 1,24,-1
 339 710 l 1,25,-1
 193 720 l 2,12,13
EndSplineSet
Validated: 1
Position2: "'cpsp' Capital Spacing lookup 3 subtable" dx=5 dy=0 dh=10 dv=0
EndChar

StartChar: Emacron
Encoding: 274 274 39
Width: 455
Flags: MW
HStem: 0 84<264 448> 297 84<264 411 264 411> 576 84<264 264 264 441> 734 92<164 358 116 406>
VStem: 50 214<84 297 381 576>
LayerCount: 2
UndoRedoHistory
Layer: 0
Undoes
EndUndoes
Redoes
EndRedoes
EndUndoRedoHistory
UndoRedoHistory
Layer: 1
Undoes
EndUndoes
Redoes
EndRedoes
EndUndoRedoHistory
Fore
SplineSet
264 576 m 1,0,-1
 264 381 l 1,1,-1
 411 381 l 1,2,-1
 411 297 l 1,3,-1
 264 297 l 1,4,-1
 264 84 l 1,5,-1
 456 84 l 1,6,-1
 448 0 l 1,7,-1
 50 0 l 1,8,-1
 50 660 l 1,9,-1
 441 660 l 1,10,-1
 441 576 l 1,11,-1
 264 576 l 1,0,-1
406 826 m 1,12,13
 415 810 415 810 415 787 c 0,14,15
 415 763 415 763 399.5 748.5 c 128,-1,16
 384 734 384 734 358 734 c 2,17,-1
 116 734 l 1,18,19
 107 750 107 750 107 773 c 0,20,21
 107 797 107 797 122.5 811.5 c 128,-1,22
 138 826 138 826 164 826 c 2,23,-1
 406 826 l 1,12,13
EndSplineSet
Validated: 1
Position2: "'cpsp' Capital Spacing lookup 3 subtable" dx=5 dy=0 dh=10 dv=0
EndChar

StartChar: Eogonek
Encoding: 280 280 40
Width: 455
Flags: MW
HStem: -264 86<403 413> 0 84<264 368 441 448 441 441> 297 84<264 411 264 411> 576 84<264 441 264 264>
VStem: 50 214<84 297 381 576> 245 121<-146 -125>
LayerCount: 2
UndoRedoHistory
Layer: 0
Undoes
EndUndoes
Redoes
EndRedoes
EndUndoRedoHistory
UndoRedoHistory
Layer: 1
Undoes
EndUndoes
Redoes
EndRedoes
EndUndoRedoHistory
Fore
SplineSet
441 0 m 1,0,1
 366 -59 366 -59 366 -126 c 0,2,3
 366 -156 366 -156 379 -167 c 128,-1,4
 392 -178 392 -178 422 -178 c 0,5,6
 438 -178 438 -178 454 -171.5 c 128,-1,7
 470 -165 470 -165 477 -153 c 1,8,9
 503 -172 503 -172 503 -196 c 0,10,11
 503 -214 503 -214 491.5 -228 c 128,-1,12
 480 -242 480 -242 462.5 -249.5 c 128,-1,13
 445 -257 445 -257 427.5 -260.5 c 128,-1,14
 410 -264 410 -264 393 -264 c 0,15,16
 363 -264 363 -264 337.5 -258.5 c 128,-1,17
 312 -253 312 -253 291 -241.5 c 128,-1,18
 270 -230 270 -230 257.5 -209 c 128,-1,19
 245 -188 245 -188 245 -161 c 0,20,21
 245 -66 245 -66 368 0 c 1,22,-1
 50 0 l 1,23,-1
 50 660 l 1,24,-1
 441 660 l 1,25,-1
 441 576 l 1,26,-1
 264 576 l 1,27,-1
 264 381 l 1,28,-1
 411 381 l 1,29,-1
 411 297 l 1,30,-1
 264 297 l 1,31,-1
 264 84 l 1,32,-1
 456 84 l 1,33,-1
 449 11 l 1,34,-1
 455 10 l 1,35,-1
 449 5 l 1,36,-1
 448 0 l 1,37,-1
 441 0 l 1,0,1
EndSplineSet
Validated: 8388609
Position2: "'cpsp' Capital Spacing lookup 3 subtable" dx=5 dy=0 dh=10 dv=0
EndChar

StartChar: Etilde
Encoding: 7868 7868 41
Width: 455
Flags: MW
HStem: 0 84<264 448> 297 84<264 411 264 411> 576 84<264 264 264 441> 711 104<330 370 330 372> 731 104<123 163>
VStem: 50 214<84 297 381 576>
LayerCount: 2
UndoRedoHistory
Layer: 0
Undoes
EndUndoes
Redoes
EndRedoes
EndUndoRedoHistory
UndoRedoHistory
Layer: 1
Undoes
EndUndoes
Redoes
EndRedoes
EndUndoRedoHistory
Fore
SplineSet
264 576 m 1,0,-1
 264 381 l 1,1,-1
 411 381 l 1,2,-1
 411 297 l 1,3,-1
 264 297 l 1,4,-1
 264 84 l 1,5,-1
 456 84 l 1,6,-1
 448 0 l 1,7,-1
 50 0 l 1,8,-1
 50 660 l 1,9,-1
 441 660 l 1,10,-1
 441 576 l 1,11,-1
 264 576 l 1,0,-1
422 835 m 1,12,13
 445 807 445 807 445 775 c 0,14,15
 445 738 445 738 418.5 724.5 c 128,-1,16
 392 711 392 711 345 711 c 0,17,18
 318 711 318 711 240.5 721 c 128,-1,19
 163 731 163 731 134 731 c 0,20,21
 90 731 90 731 70 711 c 1,22,23
 47 739 47 739 47 771 c 0,24,25
 47 808 47 808 73.5 821.5 c 128,-1,26
 100 835 100 835 147 835 c 0,27,28
 174 835 174 835 252 825 c 128,-1,29
 330 815 330 815 358 815 c 0,30,31
 402 815 402 815 422 835 c 1,12,13
EndSplineSet
Validated: 8388609
Position2: "'cpsp' Capital Spacing lookup 3 subtable" dx=5 dy=0 dh=10 dv=0
EndChar

StartChar: F
Encoding: 70 70 42
Width: 441
Flags: MW
HStem: 283 84<264 411 264 411> 576 84<264 441 264 264>
VStem: 50 214<0 283 367 576>
LayerCount: 2
UndoRedoHistory
Layer: 0
Undoes
EndUndoes
Redoes
EndRedoes
EndUndoRedoHistory
UndoRedoHistory
Layer: 1
Undoes
EndUndoes
Redoes
EndRedoes
EndUndoRedoHistory
Fore
SplineSet
441 576 m 1,0,-1
 264 576 l 1,1,-1
 264 367 l 1,2,-1
 411 367 l 1,3,-1
 411 283 l 1,4,-1
 264 283 l 1,5,-1
 264 0 l 1,6,-1
 50 0 l 1,7,-1
 50 660 l 1,8,-1
 441 660 l 1,9,-1
 441 576 l 1,0,-1
EndSplineSet
Validated: 1
Position2: "'cpsp' Capital Spacing lookup 3 subtable" dx=5 dy=0 dh=10 dv=0
EndChar

StartChar: G
Encoding: 71 71 43
Width: 610
Flags: MW
HStem: -22 126<320 383> 606 74<301 375>
VStem: 20 230<301 409 301 440> 422 171<509 522> 426 152
LayerCount: 2
UndoRedoHistory
Layer: 0
Undoes
EndUndoes
Redoes
EndRedoes
EndUndoRedoHistory
UndoRedoHistory
Layer: 1
Undoes
EndUndoes
Redoes
EndRedoes
EndUndoRedoHistory
Fore
SplineSet
578 19 m 1,0,1
 473 -22 473 -22 343 -22 c 0,2,3
 276 -22 276 -22 221.5 -4.5 c 128,-1,4
 167 13 167 13 130 44.5 c 128,-1,5
 93 76 93 76 68 120 c 128,-1,6
 43 164 43 164 31.5 215.5 c 128,-1,7
 20 267 20 267 20 326 c 0,8,9
 20 499 20 499 105 589.5 c 128,-1,10
 190 680 190 680 359 680 c 0,11,12
 593 680 593 680 593 545 c 0,13,14
 593 493 593 493 557 462.5 c 128,-1,15
 521 432 521 432 468 432 c 0,16,17
 436 432 436 432 416 438 c 1,18,19
 422 468 422 468 422 493 c 0,20,21
 422 543 422 543 404 574.5 c 128,-1,22
 386 606 386 606 345 606 c 0,23,24
 250 606 250 606 250 365 c 0,25,26
 250 334 250 334 251 310.5 c 128,-1,27
 252 287 252 287 255 258.5 c 128,-1,28
 258 230 258 230 263.5 209 c 128,-1,29
 269 188 269 188 279 167 c 128,-1,30
 289 146 289 146 302 133 c 128,-1,31
 315 120 315 120 334.5 112 c 128,-1,32
 354 104 354 104 379 104 c 0,33,34
 406 104 406 104 430 112 c 1,35,-1
 423 303 l 1,36,-1
 578 317 l 1,37,-1
 578 19 l 1,0,1
EndSplineSet
Validated: 8388609
Position2: "'cpsp' Capital Spacing lookup 3 subtable" dx=5 dy=0 dh=10 dv=0
EndChar

StartChar: Gbreve
Encoding: 286 286 44
Width: 610
Flags: MW
HStem: -22 126<320 383> 606 74<301 375> 700 52<326 374 326 421>
VStem: 20 230<301 409 301 440> 153 146<798 811 791 837> 393 147<817 837> 422 171<509 522> 426 152
LayerCount: 2
UndoRedoHistory
Layer: 0
Undoes
EndUndoes
Redoes
EndRedoes
EndUndoRedoHistory
UndoRedoHistory
Layer: 1
Undoes
EndUndoes
Redoes
EndRedoes
EndUndoRedoHistory
Fore
SplineSet
578 19 m 1,0,1
 473 -22 473 -22 343 -22 c 0,2,3
 276 -22 276 -22 221.5 -4.5 c 128,-1,4
 167 13 167 13 130 44.5 c 128,-1,5
 93 76 93 76 68 120 c 128,-1,6
 43 164 43 164 31.5 215.5 c 128,-1,7
 20 267 20 267 20 326 c 0,8,9
 20 499 20 499 105 589.5 c 128,-1,10
 190 680 190 680 359 680 c 0,11,12
 593 680 593 680 593 545 c 0,13,14
 593 493 593 493 557 462.5 c 128,-1,15
 521 432 521 432 468 432 c 0,16,17
 436 432 436 432 416 438 c 1,18,19
 422 468 422 468 422 493 c 0,20,21
 422 543 422 543 404 574.5 c 128,-1,22
 386 606 386 606 345 606 c 0,23,24
 250 606 250 606 250 365 c 0,25,26
 250 334 250 334 251 310.5 c 128,-1,27
 252 287 252 287 255 258.5 c 128,-1,28
 258 230 258 230 263.5 209 c 128,-1,29
 269 188 269 188 279 167 c 128,-1,30
 289 146 289 146 302 133 c 128,-1,31
 315 120 315 120 334.5 112 c 128,-1,32
 354 104 354 104 379 104 c 0,33,34
 406 104 406 104 430 112 c 1,35,-1
 423 303 l 1,36,-1
 578 317 l 1,37,-1
 578 19 l 1,0,1
540 837 m 1,38,39
 540 806 540 806 530.5 782.5 c 128,-1,40
 521 759 521 759 500 739.5 c 128,-1,41
 479 720 479 720 440 710 c 128,-1,42
 401 700 401 700 346.5 700 c 128,-1,43
 292 700 292 700 253 710 c 128,-1,44
 214 720 214 720 192.5 739.5 c 128,-1,45
 171 759 171 759 162 782.5 c 128,-1,46
 153 806 153 806 153 837 c 1,47,-1
 300 837 l 1,48,49
 300 831 300 831 299.5 821 c 128,-1,50
 299 811 299 811 299 805 c 0,51,52
 299 780 299 780 308.5 766 c 128,-1,53
 318 752 318 752 346 752 c 0,54,55
 375 752 375 752 384.5 766.5 c 128,-1,56
 394 781 394 781 394 808 c 0,57,58
 394 813 394 813 393.5 822.5 c 128,-1,59
 393 832 393 832 393 837 c 1,60,-1
 540 837 l 1,38,39
EndSplineSet
Validated: 8388609
Position2: "'cpsp' Capital Spacing lookup 3 subtable" dx=5 dy=0 dh=10 dv=0
EndChar

StartChar: Gcircumflex
Encoding: 284 284 45
Width: 610
Flags: MW
HStem: -22 126<320 383> 606 74<301 375>
VStem: 20 230<301 409 301 440> 422 171<509 522> 426 152
LayerCount: 2
UndoRedoHistory
Layer: 0
Undoes
EndUndoes
Redoes
EndRedoes
EndUndoRedoHistory
UndoRedoHistory
Layer: 1
Undoes
EndUndoes
Redoes
EndRedoes
EndUndoRedoHistory
Fore
SplineSet
578 19 m 1,0,1
 473 -22 473 -22 343 -22 c 0,2,3
 276 -22 276 -22 221.5 -4.5 c 128,-1,4
 167 13 167 13 130 44.5 c 128,-1,5
 93 76 93 76 68 120 c 128,-1,6
 43 164 43 164 31.5 215.5 c 128,-1,7
 20 267 20 267 20 326 c 0,8,9
 20 499 20 499 105 589.5 c 128,-1,10
 190 680 190 680 359 680 c 0,11,12
 593 680 593 680 593 545 c 0,13,14
 593 493 593 493 557 462.5 c 128,-1,15
 521 432 521 432 468 432 c 0,16,17
 436 432 436 432 416 438 c 1,18,19
 422 468 422 468 422 493 c 0,20,21
 422 543 422 543 404 574.5 c 128,-1,22
 386 606 386 606 345 606 c 0,23,24
 250 606 250 606 250 365 c 0,25,26
 250 334 250 334 251 310.5 c 128,-1,27
 252 287 252 287 255 258.5 c 128,-1,28
 258 230 258 230 263.5 209 c 128,-1,29
 269 188 269 188 279 167 c 128,-1,30
 289 146 289 146 302 133 c 128,-1,31
 315 120 315 120 334.5 112 c 128,-1,32
 354 104 354 104 379 104 c 0,33,34
 406 104 406 104 430 112 c 1,35,-1
 423 303 l 1,36,-1
 578 317 l 1,37,-1
 578 19 l 1,0,1
171 731 m 1,38,-1
 323 846 l 1,39,-1
 366 846 l 1,40,-1
 520 731 l 1,41,-1
 481 684 l 1,42,-1
 346 735 l 1,43,-1
 210 684 l 1,44,-1
 171 731 l 1,38,-1
EndSplineSet
Validated: 8388609
Position2: "'cpsp' Capital Spacing lookup 3 subtable" dx=5 dy=0 dh=10 dv=0
EndChar

StartChar: Gcommaaccent
Encoding: 290 290 46
Width: 610
Flags: MW
HStem: -258 207<349 355> -22 126<320 383> 606 74<301 375>
VStem: 20 230<301 409 301 440> 317 137<-165 -134> 422 171<509 522> 426 152
LayerCount: 2
UndoRedoHistory
Layer: 0
Undoes
EndUndoes
Redoes
EndRedoes
EndUndoRedoHistory
UndoRedoHistory
Layer: 1
Undoes
EndUndoes
Redoes
EndRedoes
EndUndoRedoHistory
Fore
SplineSet
360 -51 m 0,0,1
 409 -51 409 -51 431.5 -70.5 c 128,-1,2
 454 -90 454 -90 454 -132 c 0,3,4
 454 -182 454 -182 414 -220 c 128,-1,5
 374 -258 374 -258 316 -258 c 0,6,7
 313 -258 313 -258 276 -255 c 1,8,9
 317 -202 317 -202 317 -150 c 0,10,11
 317 -103 317 -103 294 -66 c 1,12,13
 303 -60 303 -60 322.5 -55.5 c 128,-1,14
 342 -51 342 -51 360 -51 c 0,0,1
578 19 m 1,15,16
 473 -22 473 -22 343 -22 c 0,17,18
 276 -22 276 -22 221.5 -4.5 c 128,-1,19
 167 13 167 13 130 44.5 c 128,-1,20
 93 76 93 76 68 120 c 128,-1,21
 43 164 43 164 31.5 215.5 c 128,-1,22
 20 267 20 267 20 326 c 0,23,24
 20 499 20 499 105 589.5 c 128,-1,25
 190 680 190 680 359 680 c 0,26,27
 593 680 593 680 593 545 c 0,28,29
 593 493 593 493 557 462.5 c 128,-1,30
 521 432 521 432 468 432 c 0,31,32
 436 432 436 432 416 438 c 1,33,34
 422 468 422 468 422 493 c 0,35,36
 422 543 422 543 404 574.5 c 128,-1,37
 386 606 386 606 345 606 c 0,38,39
 250 606 250 606 250 365 c 0,40,41
 250 334 250 334 251 310.5 c 128,-1,42
 252 287 252 287 255 258.5 c 128,-1,43
 258 230 258 230 263.5 209 c 128,-1,44
 269 188 269 188 279 167 c 128,-1,45
 289 146 289 146 302 133 c 128,-1,46
 315 120 315 120 334.5 112 c 128,-1,47
 354 104 354 104 379 104 c 0,48,49
 406 104 406 104 430 112 c 1,50,-1
 423 303 l 1,51,-1
 578 317 l 1,52,-1
 578 19 l 1,15,16
EndSplineSet
Validated: 8388609
Position2: "'cpsp' Capital Spacing lookup 3 subtable" dx=5 dy=0 dh=10 dv=0
EndChar

StartChar: Gdotaccent
Encoding: 288 288 47
Width: 610
Flags: MW
HStem: -22 126<320 383> 606 74<301 375> 740 160<316 375>
VStem: 20 230<301 409 301 440> 236 217<793 845> 422 171<509 522> 426 152
LayerCount: 2
UndoRedoHistory
Layer: 0
Undoes
EndUndoes
Redoes
EndRedoes
EndUndoRedoHistory
UndoRedoHistory
Layer: 1
Undoes
EndUndoes
Redoes
EndRedoes
EndUndoRedoHistory
Fore
SplineSet
578 19 m 1,0,1
 473 -22 473 -22 343 -22 c 0,2,3
 276 -22 276 -22 221.5 -4.5 c 128,-1,4
 167 13 167 13 130 44.5 c 128,-1,5
 93 76 93 76 68 120 c 128,-1,6
 43 164 43 164 31.5 215.5 c 128,-1,7
 20 267 20 267 20 326 c 0,8,9
 20 499 20 499 105 589.5 c 128,-1,10
 190 680 190 680 359 680 c 0,11,12
 593 680 593 680 593 545 c 0,13,14
 593 493 593 493 557 462.5 c 128,-1,15
 521 432 521 432 468 432 c 0,16,17
 436 432 436 432 416 438 c 1,18,19
 422 468 422 468 422 493 c 0,20,21
 422 543 422 543 404 574.5 c 128,-1,22
 386 606 386 606 345 606 c 0,23,24
 250 606 250 606 250 365 c 0,25,26
 250 334 250 334 251 310.5 c 128,-1,27
 252 287 252 287 255 258.5 c 128,-1,28
 258 230 258 230 263.5 209 c 128,-1,29
 269 188 269 188 279 167 c 128,-1,30
 289 146 289 146 302 133 c 128,-1,31
 315 120 315 120 334.5 112 c 128,-1,32
 354 104 354 104 379 104 c 0,33,34
 406 104 406 104 430 112 c 1,35,-1
 423 303 l 1,36,-1
 578 317 l 1,37,-1
 578 19 l 1,0,1
347 900 m 0,38,39
 395 900 395 900 424 878.5 c 128,-1,40
 453 857 453 857 453 820 c 0,41,42
 453 781 453 781 422.5 760.5 c 128,-1,43
 392 740 392 740 343 740 c 0,44,45
 295 740 295 740 265.5 760.5 c 128,-1,46
 236 781 236 781 236 818 c 0,47,48
 236 857 236 857 267.5 878.5 c 128,-1,49
 299 900 299 900 347 900 c 0,38,39
EndSplineSet
Validated: 8388609
Position2: "'cpsp' Capital Spacing lookup 3 subtable" dx=5 dy=0 dh=10 dv=0
EndChar

StartChar: H
Encoding: 72 72 48
Width: 673
Flags: MW
HStem: 292 84<264 410 264 410> 640 20G<50 264 264 264 410 624 624 624>
VStem: 50 214<0 292 0 376 376 660> 410 214<0 292 292 292 376 660>
LayerCount: 2
UndoRedoHistory
Layer: 0
Undoes
EndUndoes
Redoes
EndRedoes
EndUndoRedoHistory
UndoRedoHistory
Layer: 1
Undoes
EndUndoes
Redoes
EndRedoes
EndUndoRedoHistory
Fore
SplineSet
624 0 m 1,0,-1
 410 0 l 1,1,-1
 410 292 l 1,2,-1
 264 292 l 1,3,-1
 264 0 l 1,4,-1
 50 0 l 1,5,-1
 50 660 l 1,6,-1
 264 660 l 1,7,-1
 264 376 l 1,8,-1
 410 376 l 1,9,-1
 410 660 l 1,10,-1
 624 660 l 1,11,-1
 624 0 l 1,0,-1
EndSplineSet
Validated: 1
Position2: "'cpsp' Capital Spacing lookup 3 subtable" dx=5 dy=0 dh=10 dv=0
EndChar

StartChar: Hbar
Encoding: 294 294 49
Width: 710
Flags: MW
HStem: 292 84<282 429 282 429> 484 92<47 68 47 68 5 68 282 429 643 663> 484 176<5 282 5 282 68 282 68 429>
VStem: 68 214<0 292 0 376 376 484 0 484 576 660> 429 214<0 292 292 292 376 484 0 484 576 660 0 660>
LayerCount: 2
UndoRedoHistory
Layer: 0
Undoes
EndUndoes
Redoes
EndRedoes
EndUndoRedoHistory
UndoRedoHistory
Layer: 1
Undoes
EndUndoes
Redoes
EndRedoes
EndUndoRedoHistory
Fore
SplineSet
429 484 m 1,0,-1
 282 484 l 1,1,-1
 282 376 l 1,2,-1
 429 376 l 1,3,-1
 429 484 l 1,0,-1
707 576 m 1,4,5
 711 558 711 558 711 546 c 0,6,7
 711 515 711 515 692.5 499.5 c 128,-1,8
 674 484 674 484 643 484 c 1,9,-1
 643 0 l 1,10,-1
 429 0 l 1,11,-1
 429 292 l 1,12,-1
 282 292 l 1,13,-1
 282 0 l 1,14,-1
 68 0 l 1,15,-1
 68 484 l 1,16,-1
 5 484 l 1,17,18
 1 496 1 496 1 514 c 0,19,20
 1 545 1 545 18.5 560.5 c 128,-1,21
 36 576 36 576 68 576 c 1,22,-1
 68 660 l 1,23,-1
 282 660 l 1,24,-1
 282 576 l 1,25,-1
 429 576 l 1,26,-1
 429 660 l 1,27,-1
 643 660 l 1,28,-1
 643 576 l 1,29,-1
 707 576 l 1,4,5
EndSplineSet
Validated: 8388609
Position2: "'cpsp' Capital Spacing lookup 3 subtable" dx=5 dy=0 dh=10 dv=0
EndChar

StartChar: Hcircumflex
Encoding: 292 292 50
Width: 673
Flags: MW
HStem: 292 84<264 410 264 410> 640 20G<50 264 264 264 410 624 624 624>
VStem: 50 214<0 292 0 376 376 660> 410 214<0 292 292 292 376 660 0 660>
LayerCount: 2
UndoRedoHistory
Layer: 0
Undoes
EndUndoes
Redoes
EndRedoes
EndUndoRedoHistory
UndoRedoHistory
Layer: 1
Undoes
EndUndoes
Redoes
EndRedoes
EndUndoRedoHistory
Fore
SplineSet
410 0 m 1,0,-1
 410 292 l 1,1,-1
 264 292 l 1,2,-1
 264 0 l 1,3,-1
 50 0 l 1,4,-1
 50 660 l 1,5,-1
 264 660 l 1,6,-1
 264 376 l 1,7,-1
 410 376 l 1,8,-1
 410 660 l 1,9,-1
 624 660 l 1,10,-1
 624 0 l 1,11,-1
 410 0 l 1,0,-1
162 731 m 1,12,-1
 314 846 l 1,13,-1
 357 846 l 1,14,-1
 511 731 l 1,15,-1
 472 684 l 1,16,-1
 337 735 l 1,17,-1
 201 684 l 1,18,-1
 162 731 l 1,12,-1
EndSplineSet
Validated: 1
Position2: "'cpsp' Capital Spacing lookup 3 subtable" dx=5 dy=0 dh=10 dv=0
EndChar

StartChar: Hdotbelow
Encoding: 7716 7716 51
Width: 673
Flags: MW
HStem: -201 160<304 362> 292 84<264 410 264 410> 640 20G<50 264 264 264 410 624 624 624>
VStem: 50 214<0 292 0 376 376 660> 224 217<-147 -97> 410 214<0 292 292 292 376 660 0 660>
LayerCount: 2
UndoRedoHistory
Layer: 0
Undoes
EndUndoes
Redoes
EndRedoes
EndUndoRedoHistory
UndoRedoHistory
Layer: 1
Undoes
EndUndoes
Redoes
EndRedoes
EndUndoRedoHistory
Fore
SplineSet
335 -41 m 0,0,1
 383 -41 383 -41 412 -62 c 128,-1,2
 441 -83 441 -83 441 -121 c 0,3,4
 441 -160 441 -160 410.5 -180.5 c 128,-1,5
 380 -201 380 -201 331 -201 c 0,6,7
 283 -201 283 -201 253.5 -180.5 c 128,-1,8
 224 -160 224 -160 224 -123 c 0,9,10
 224 -84 224 -84 255.5 -62.5 c 128,-1,11
 287 -41 287 -41 335 -41 c 0,0,1
410 0 m 1,12,-1
 410 292 l 1,13,-1
 264 292 l 1,14,-1
 264 0 l 1,15,-1
 50 0 l 1,16,-1
 50 660 l 1,17,-1
 264 660 l 1,18,-1
 264 376 l 1,19,-1
 410 376 l 1,20,-1
 410 660 l 1,21,-1
 624 660 l 1,22,-1
 624 0 l 1,23,-1
 410 0 l 1,12,-1
EndSplineSet
Validated: 8388609
Position2: "'cpsp' Capital Spacing lookup 3 subtable" dx=5 dy=0 dh=10 dv=0
EndChar

StartChar: I
Encoding: 73 73 52
Width: 313
Flags: MW
HStem: 640 20G<50 264 264 264>
VStem: 50 214<0 660>
LayerCount: 2
UndoRedoHistory
Layer: 0
Undoes
EndUndoes
Redoes
EndRedoes
EndUndoRedoHistory
UndoRedoHistory
Layer: 1
Undoes
EndUndoes
Redoes
EndRedoes
EndUndoRedoHistory
Fore
SplineSet
264 0 m 1,0,-1
 50 0 l 1,1,-1
 50 660 l 1,2,-1
 264 660 l 1,3,-1
 264 0 l 1,0,-1
EndSplineSet
Validated: 1
Position2: "'cpsp' Capital Spacing lookup 3 subtable" dx=5 dy=0 dh=10 dv=0
EndChar

StartChar: IJ
Encoding: 306 306 53
Width: 627
Flags: MW
HStem: 640 20G<50 264 264 264 364 578 578 578>
VStem: 50 214<0 660 0 660> 364 214<52 79 79 660>
LayerCount: 2
UndoRedoHistory
Layer: 0
Undoes
EndUndoes
Redoes
EndRedoes
EndUndoRedoHistory
UndoRedoHistory
Layer: 1
Undoes
EndUndoes
Redoes
EndRedoes
EndUndoRedoHistory
Fore
SplineSet
578 79 m 2,0,1
 578 33 578 33 573.5 -4.5 c 128,-1,2
 569 -42 569 -42 556.5 -78 c 128,-1,3
 544 -114 544 -114 524.5 -138 c 128,-1,4
 505 -162 505 -162 473 -176.5 c 128,-1,5
 441 -191 441 -191 399 -191 c 0,6,7
 357 -191 357 -191 322.5 -178.5 c 128,-1,8
 288 -166 288 -166 274 -136 c 1,9,10
 293 -134 293 -134 307 -126.5 c 128,-1,11
 321 -119 321 -119 330 -110 c 128,-1,12
 339 -101 339 -101 346 -85 c 128,-1,13
 353 -69 353 -69 356 -56 c 128,-1,14
 359 -43 359 -43 361 -21.5 c 128,-1,15
 363 -0 363 -0 363.5 14 c 128,-1,16
 364 28 364 28 364 52 c 2,17,-1
 364 660 l 1,18,-1
 578 660 l 1,19,-1
 578 79 l 2,0,1
50 0 m 1,20,-1
 50 660 l 1,21,-1
 264 660 l 1,22,-1
 264 0 l 1,23,-1
 50 0 l 1,20,-1
EndSplineSet
Validated: 1
Position2: "'cpsp' Capital Spacing lookup 3 subtable" dx=5 dy=0 dh=10 dv=0
EndChar

StartChar: Iacute
Encoding: 205 205 54
Width: 313
Flags: MW
HStem: 640 20G<50 264 264 264>
VStem: 50 214<0 660 0 660>
LayerCount: 2
UndoRedoHistory
Layer: 0
Undoes
EndUndoes
Redoes
EndRedoes
EndUndoRedoHistory
UndoRedoHistory
Layer: 1
Undoes
EndUndoes
Redoes
EndRedoes
EndUndoRedoHistory
Fore
SplineSet
50 0 m 1,0,-1
 50 660 l 1,1,-1
 264 660 l 1,2,-1
 264 0 l 1,3,-1
 50 0 l 1,0,-1
298 862 m 1,4,5
 315 848 315 848 325.5 828 c 128,-1,6
 336 808 336 808 336 788 c 0,7,8
 336 775 336 775 331.5 765 c 128,-1,9
 327 755 327 755 321 748.5 c 128,-1,10
 315 742 315 742 303 736.5 c 128,-1,11
 291 731 291 731 282.5 728.5 c 128,-1,12
 274 726 274 726 257.5 724 c 128,-1,13
 241 722 241 722 234 721.5 c 128,-1,14
 227 721 227 721 209 719 c 2,15,-1
 63 709 l 1,16,-1
 51 760 l 1,17,-1
 298 862 l 1,4,5
EndSplineSet
Validated: 1
Position2: "'cpsp' Capital Spacing lookup 3 subtable" dx=5 dy=0 dh=10 dv=0
EndChar

StartChar: Ibreve
Encoding: 300 300 55
Width: 313
Flags: MW
HStem: 640 20G<50 264 264 264> 700 52<137 185 137 232>
VStem: -36 146<798 811 791 837> 50 214<0 660 0 660> 204 147<817 837>
LayerCount: 2
UndoRedoHistory
Layer: 0
Undoes
EndUndoes
Redoes
EndRedoes
EndUndoRedoHistory
UndoRedoHistory
Layer: 1
Undoes
EndUndoes
Redoes
EndRedoes
EndUndoRedoHistory
Fore
SplineSet
50 0 m 1,0,-1
 50 660 l 1,1,-1
 264 660 l 1,2,-1
 264 0 l 1,3,-1
 50 0 l 1,0,-1
351 837 m 1,4,5
 351 806 351 806 342 782.5 c 128,-1,6
 333 759 333 759 311.5 739.5 c 128,-1,7
 290 720 290 720 251 710 c 128,-1,8
 212 700 212 700 157.5 700 c 128,-1,9
 103 700 103 700 64 710 c 128,-1,10
 25 720 25 720 3.5 739.5 c 128,-1,11
 -18 759 -18 759 -27 782.5 c 128,-1,12
 -36 806 -36 806 -36 837 c 1,13,-1
 111 837 l 1,14,15
 111 831 111 831 110.5 821 c 128,-1,16
 110 811 110 811 110 805 c 0,17,18
 110 780 110 780 119.5 766 c 128,-1,19
 129 752 129 752 157 752 c 0,20,21
 186 752 186 752 195.5 766.5 c 128,-1,22
 205 781 205 781 205 808 c 0,23,24
 205 813 205 813 204.5 822.5 c 128,-1,25
 204 832 204 832 204 837 c 1,26,-1
 351 837 l 1,4,5
EndSplineSet
Validated: 8388609
Position2: "'cpsp' Capital Spacing lookup 3 subtable" dx=5 dy=0 dh=10 dv=0
EndChar

StartChar: Icircumflex
Encoding: 206 206 56
Width: 313
Flags: MW
HStem: 640 20G<50 264 264 264>
VStem: 50 214<0 660 0 660>
LayerCount: 2
UndoRedoHistory
Layer: 0
Undoes
EndUndoes
Redoes
EndRedoes
EndUndoRedoHistory
UndoRedoHistory
Layer: 1
Undoes
EndUndoes
Redoes
EndRedoes
EndUndoRedoHistory
Fore
SplineSet
50 0 m 1,0,-1
 50 660 l 1,1,-1
 264 660 l 1,2,-1
 264 0 l 1,3,-1
 50 0 l 1,0,-1
-19 731 m 1,4,-1
 133 846 l 1,5,-1
 176 846 l 1,6,-1
 330 731 l 1,7,-1
 291 684 l 1,8,-1
 156 735 l 1,9,-1
 20 684 l 1,10,-1
 -19 731 l 1,4,-1
EndSplineSet
Validated: 1
Position2: "'cpsp' Capital Spacing lookup 3 subtable" dx=5 dy=0 dh=10 dv=0
EndChar

StartChar: Idieresis
Encoding: 207 207 57
Width: 313
Flags: MW
HStem: 640 20G<50 264 264 264> 711 160<13 71 243 301>
VStem: 50 214<0 660 0 660>
LayerCount: 2
UndoRedoHistory
Layer: 0
Undoes
EndUndoes
Redoes
EndRedoes
EndUndoRedoHistory
UndoRedoHistory
Layer: 1
Undoes
EndUndoes
Redoes
EndRedoes
EndUndoRedoHistory
Fore
SplineSet
50 0 m 1,0,-1
 50 660 l 1,1,-1
 264 660 l 1,2,-1
 264 0 l 1,3,-1
 50 0 l 1,0,-1
274 871 m 0,4,5
 322 871 322 871 351 850 c 128,-1,6
 380 829 380 829 380 791 c 0,7,8
 380 752 380 752 349.5 731.5 c 128,-1,9
 319 711 319 711 270 711 c 0,10,11
 222 711 222 711 192.5 731.5 c 128,-1,12
 163 752 163 752 163 789 c 0,13,14
 163 828 163 828 194.5 849.5 c 128,-1,15
 226 871 226 871 274 871 c 0,4,5
44 871 m 0,16,17
 92 871 92 871 121 850 c 128,-1,18
 150 829 150 829 150 791 c 0,19,20
 150 752 150 752 119.5 731.5 c 128,-1,21
 89 711 89 711 40 711 c 0,22,23
 -8 711 -8 711 -37.5 731.5 c 128,-1,24
 -67 752 -67 752 -67 789 c 0,25,26
 -67 828 -67 828 -35.5 849.5 c 128,-1,27
 -4 871 -4 871 44 871 c 0,16,17
EndSplineSet
Validated: 1
Position2: "'cpsp' Capital Spacing lookup 3 subtable" dx=5 dy=0 dh=10 dv=0
EndChar

StartChar: Idotaccent
Encoding: 304 304 58
Width: 313
Flags: MW
HStem: 640 20G<50 264 264 264> 740 160<132 190>
VStem: 50 214<0 660 0 660> 52 217<793 845>
LayerCount: 2
UndoRedoHistory
Layer: 0
Undoes
EndUndoes
Redoes
EndRedoes
EndUndoRedoHistory
UndoRedoHistory
Layer: 1
Undoes
EndUndoes
Redoes
EndRedoes
EndUndoRedoHistory
Fore
SplineSet
50 0 m 1,0,-1
 50 660 l 1,1,-1
 264 660 l 1,2,-1
 264 0 l 1,3,-1
 50 0 l 1,0,-1
163 900 m 0,4,5
 211 900 211 900 240 878.5 c 128,-1,6
 269 857 269 857 269 820 c 0,7,8
 269 781 269 781 238.5 760.5 c 128,-1,9
 208 740 208 740 159 740 c 0,10,11
 111 740 111 740 81.5 760.5 c 128,-1,12
 52 781 52 781 52 818 c 0,13,14
 52 857 52 857 83.5 878.5 c 128,-1,15
 115 900 115 900 163 900 c 0,4,5
EndSplineSet
Validated: 8388609
Position2: "'cpsp' Capital Spacing lookup 3 subtable" dx=5 dy=0 dh=10 dv=0
EndChar

StartChar: Idotbelow
Encoding: 7882 7882 59
Width: 313
Flags: MW
HStem: -201 160<128 187> 640 20G<50 264 264 264>
VStem: 50 214<0 660 0 660>
LayerCount: 2
UndoRedoHistory
Layer: 0
Undoes
EndUndoes
Redoes
EndRedoes
EndUndoRedoHistory
UndoRedoHistory
Layer: 1
Undoes
EndUndoes
Redoes
EndRedoes
EndUndoRedoHistory
Fore
SplineSet
159 -41 m 0,0,1
 207 -41 207 -41 236 -62 c 128,-1,2
 265 -83 265 -83 265 -121 c 0,3,4
 265 -160 265 -160 234.5 -180.5 c 128,-1,5
 204 -201 204 -201 155 -201 c 0,6,7
 107 -201 107 -201 77.5 -180.5 c 128,-1,8
 48 -160 48 -160 48 -123 c 0,9,10
 48 -84 48 -84 79.5 -62.5 c 128,-1,11
 111 -41 111 -41 159 -41 c 0,0,1
50 0 m 1,12,-1
 50 660 l 1,13,-1
 264 660 l 1,14,-1
 264 0 l 1,15,-1
 50 0 l 1,12,-1
EndSplineSet
Validated: 1
Position2: "'cpsp' Capital Spacing lookup 3 subtable" dx=5 dy=0 dh=10 dv=0
EndChar

StartChar: Igrave
Encoding: 204 204 60
Width: 313
Flags: MW
HStem: 640 20G<50 264 264 264>
VStem: 50 214<0 660 0 660>
LayerCount: 2
UndoRedoHistory
Layer: 0
Undoes
EndUndoes
Redoes
EndRedoes
EndUndoRedoHistory
UndoRedoHistory
Layer: 1
Undoes
EndUndoes
Redoes
EndRedoes
EndUndoRedoHistory
Fore
SplineSet
50 0 m 1,0,-1
 50 660 l 1,1,-1
 264 660 l 1,2,-1
 264 0 l 1,3,-1
 50 0 l 1,0,-1
105 720 m 2,4,5
 87 721 87 721 80 722 c 128,-1,6
 73 723 73 723 56.5 725 c 128,-1,7
 40 727 40 727 31.5 729.5 c 128,-1,8
 23 732 23 732 11 737.5 c 128,-1,9
 -1 743 -1 743 -7 749.5 c 128,-1,10
 -13 756 -13 756 -17.5 766 c 128,-1,11
 -22 776 -22 776 -22 789 c 0,12,13
 -22 809 -22 809 -11 829 c 128,-1,14
 0 849 0 849 16 863 c 1,15,-1
 263 761 l 1,16,-1
 251 710 l 1,17,-1
 105 720 l 2,4,5
EndSplineSet
Validated: 1
Position2: "'cpsp' Capital Spacing lookup 3 subtable" dx=5 dy=0 dh=10 dv=0
EndChar

StartChar: Imacron
Encoding: 298 298 61
Width: 313
Flags: MW
HStem: 640 20G<50 264 264 264> 771 92<60 254 12 302>
VStem: 50 214<0 660 0 660>
LayerCount: 2
UndoRedoHistory
Layer: 0
Undoes
EndUndoes
Redoes
EndRedoes
EndUndoRedoHistory
UndoRedoHistory
Layer: 1
Undoes
EndUndoes
Redoes
EndRedoes
EndUndoRedoHistory
Fore
SplineSet
50 0 m 1,0,-1
 50 660 l 1,1,-1
 264 660 l 1,2,-1
 264 0 l 1,3,-1
 50 0 l 1,0,-1
302 863 m 1,4,5
 311 847 311 847 311 824 c 0,6,7
 311 800 311 800 295.5 785.5 c 128,-1,8
 280 771 280 771 254 771 c 2,9,-1
 12 771 l 1,10,11
 3 787 3 787 3 810 c 0,12,13
 3 834 3 834 18.5 848.5 c 128,-1,14
 34 863 34 863 60 863 c 2,15,-1
 302 863 l 1,4,5
EndSplineSet
Validated: 1
Position2: "'cpsp' Capital Spacing lookup 3 subtable" dx=5 dy=0 dh=10 dv=0
EndChar

StartChar: Iogonek
Encoding: 302 302 62
Width: 313
Flags: MW
HStem: -264 86<218 228> 0 10 640 20G<50 264 264 264>
VStem: 50 214<0 6 11 660> 60 121<-146 -125>
LayerCount: 2
UndoRedoHistory
Layer: 0
Undoes
EndUndoes
Redoes
EndRedoes
EndUndoRedoHistory
UndoRedoHistory
Layer: 1
Undoes
EndUndoes
Redoes
EndRedoes
EndUndoRedoHistory
Fore
SplineSet
256 0 m 1,0,1
 181 -59 181 -59 181 -126 c 0,2,3
 181 -156 181 -156 194 -167 c 128,-1,4
 207 -178 207 -178 237 -178 c 0,5,6
 253 -178 253 -178 269 -171.5 c 128,-1,7
 285 -165 285 -165 292 -153 c 1,8,9
 318 -172 318 -172 318 -196 c 0,10,11
 318 -214 318 -214 306.5 -228 c 128,-1,12
 295 -242 295 -242 277.5 -249.5 c 128,-1,13
 260 -257 260 -257 242.5 -260.5 c 128,-1,14
 225 -264 225 -264 208 -264 c 0,15,16
 178 -264 178 -264 152.5 -258.5 c 128,-1,17
 127 -253 127 -253 105.5 -241.5 c 128,-1,18
 84 -230 84 -230 72 -209 c 128,-1,19
 60 -188 60 -188 60 -161 c 0,20,21
 60 -66 60 -66 183 0 c 1,22,-1
 50 0 l 1,23,-1
 50 660 l 1,24,-1
 264 660 l 1,25,-1
 264 11 l 1,26,-1
 270 10 l 1,27,-1
 264 6 l 1,28,-1
 264 0 l 1,29,-1
 256 0 l 1,0,1
EndSplineSet
Validated: 8388609
Position2: "'cpsp' Capital Spacing lookup 3 subtable" dx=5 dy=0 dh=10 dv=0
EndChar

StartChar: Itilde
Encoding: 296 296 63
Width: 313
Flags: MW
HStem: 640 20G<50 264 264 264> 711 104<242 282 242 284> 731 104<35 75>
VStem: 50 214<0 660 0 660>
LayerCount: 2
UndoRedoHistory
Layer: 0
Undoes
EndUndoes
Redoes
EndRedoes
EndUndoRedoHistory
UndoRedoHistory
Layer: 1
Undoes
EndUndoes
Redoes
EndRedoes
EndUndoRedoHistory
Fore
SplineSet
50 0 m 1,0,-1
 50 660 l 1,1,-1
 264 660 l 1,2,-1
 264 0 l 1,3,-1
 50 0 l 1,0,-1
334 835 m 1,4,5
 357 807 357 807 357 775 c 0,6,7
 357 738 357 738 330.5 724.5 c 128,-1,8
 304 711 304 711 257 711 c 0,9,10
 230 711 230 711 152.5 721 c 128,-1,11
 75 731 75 731 46 731 c 0,12,13
 2 731 2 731 -18 711 c 1,14,15
 -41 739 -41 739 -41 771 c 0,16,17
 -41 808 -41 808 -14.5 821.5 c 128,-1,18
 12 835 12 835 59 835 c 0,19,20
 86 835 86 835 164 825 c 128,-1,21
 242 815 242 815 270 815 c 0,22,23
 314 815 314 815 334 835 c 1,4,5
EndSplineSet
Validated: 8388609
Position2: "'cpsp' Capital Spacing lookup 3 subtable" dx=5 dy=0 dh=10 dv=0
EndChar

StartChar: J
Encoding: 74 74 64
Width: 313
Flags: MW
HStem: 640 20G<50 264 264 264>
VStem: 50 214<52 79 79 660>
LayerCount: 2
UndoRedoHistory
Layer: 0
Undoes
EndUndoes
Redoes
EndRedoes
EndUndoRedoHistory
UndoRedoHistory
Layer: 1
Undoes
EndUndoes
Redoes
EndRedoes
EndUndoRedoHistory
Fore
SplineSet
264 79 m 2,0,1
 264 33 264 33 259.5 -4.5 c 128,-1,2
 255 -42 255 -42 242.5 -78 c 128,-1,3
 230 -114 230 -114 210.5 -138 c 128,-1,4
 191 -162 191 -162 159 -176.5 c 128,-1,5
 127 -191 127 -191 85 -191 c 0,6,7
 43 -191 43 -191 8.5 -178.5 c 128,-1,8
 -26 -166 -26 -166 -40 -136 c 1,9,10
 -21 -134 -21 -134 -7 -126.5 c 128,-1,11
 7 -119 7 -119 16 -110 c 128,-1,12
 25 -101 25 -101 32 -85 c 128,-1,13
 39 -69 39 -69 42 -56 c 128,-1,14
 45 -43 45 -43 47 -21.5 c 128,-1,15
 49 -0 49 -0 49.5 14 c 128,-1,16
 50 28 50 28 50 52 c 2,17,-1
 50 660 l 1,18,-1
 264 660 l 1,19,-1
 264 79 l 2,0,1
EndSplineSet
Validated: 1
Position2: "'cpsp' Capital Spacing lookup 3 subtable" dx=5 dy=0 dh=10 dv=0
EndChar

StartChar: Jcircumflex
Encoding: 308 308 65
Width: 313
Flags: MW
HStem: 640 20G<50 264 264 264>
VStem: 50 214<52 79 79 660>
LayerCount: 2
UndoRedoHistory
Layer: 0
Undoes
EndUndoes
Redoes
EndRedoes
EndUndoRedoHistory
UndoRedoHistory
Layer: 1
Undoes
EndUndoes
Redoes
EndRedoes
EndUndoRedoHistory
Fore
SplineSet
264 79 m 2,0,1
 264 33 264 33 259.5 -4.5 c 128,-1,2
 255 -42 255 -42 242.5 -78 c 128,-1,3
 230 -114 230 -114 210.5 -138 c 128,-1,4
 191 -162 191 -162 159 -176.5 c 128,-1,5
 127 -191 127 -191 85 -191 c 0,6,7
 43 -191 43 -191 8.5 -178.5 c 128,-1,8
 -26 -166 -26 -166 -40 -136 c 1,9,10
 -21 -134 -21 -134 -7 -126.5 c 128,-1,11
 7 -119 7 -119 16 -110 c 128,-1,12
 25 -101 25 -101 32 -85 c 128,-1,13
 39 -69 39 -69 42 -56 c 128,-1,14
 45 -43 45 -43 47 -21.5 c 128,-1,15
 49 -0 49 -0 49.5 14 c 128,-1,16
 50 28 50 28 50 52 c 2,17,-1
 50 660 l 1,18,-1
 264 660 l 1,19,-1
 264 79 l 2,0,1
-19 731 m 1,20,-1
 133 846 l 1,21,-1
 176 846 l 1,22,-1
 330 731 l 1,23,-1
 291 684 l 1,24,-1
 156 735 l 1,25,-1
 20 684 l 1,26,-1
 -19 731 l 1,20,-1
EndSplineSet
Validated: 1
Position2: "'cpsp' Capital Spacing lookup 3 subtable" dx=5 dy=0 dh=10 dv=0
EndChar

StartChar: K
Encoding: 75 75 66
Width: 643
Flags: MW
HStem: 640 20G<50 264 264 264 432 644 644 644>
VStem: 50 214<0 660 0 660>
LayerCount: 2
UndoRedoHistory
Layer: 0
Undoes
EndUndoes
Redoes
EndRedoes
EndUndoRedoHistory
UndoRedoHistory
Layer: 1
Undoes
EndUndoes
Redoes
EndRedoes
EndUndoRedoHistory
Fore
SplineSet
644 660 m 1,0,-1
 487 353 l 1,1,-1
 658 0 l 1,2,-1
 439 0 l 1,3,-1
 284 334 l 1,4,-1
 432 660 l 1,5,-1
 644 660 l 1,0,-1
50 0 m 1,6,-1
 50 660 l 1,7,-1
 264 660 l 1,8,-1
 264 0 l 1,9,-1
 50 0 l 1,6,-1
EndSplineSet
Validated: 1
Position2: "'cpsp' Capital Spacing lookup 3 subtable" dx=5 dy=0 dh=10 dv=0
EndChar

StartChar: Kcommaaccent
Encoding: 310 310 67
Width: 643
Flags: MW
HStem: -258 207<319 326> 640 20G<50 264 264 264 432 644 644 644>
VStem: 50 214<0 660 0 660> 288 137<-165 -134>
LayerCount: 2
UndoRedoHistory
Layer: 0
Undoes
EndUndoes
Redoes
EndRedoes
EndUndoRedoHistory
UndoRedoHistory
Layer: 1
Undoes
EndUndoes
Redoes
EndRedoes
EndUndoRedoHistory
Fore
SplineSet
331 -51 m 0,0,1
 380 -51 380 -51 402.5 -70 c 128,-1,2
 425 -89 425 -89 425 -132 c 0,3,4
 425 -182 425 -182 385 -220 c 128,-1,5
 345 -258 345 -258 287 -258 c 0,6,7
 284 -258 284 -258 247 -255 c 1,8,9
 288 -202 288 -202 288 -150 c 0,10,11
 288 -103 288 -103 265 -66 c 1,12,13
 274 -60 274 -60 293.5 -55.5 c 128,-1,14
 313 -51 313 -51 331 -51 c 0,0,1
487 353 m 1,15,-1
 658 0 l 1,16,-1
 439 0 l 1,17,-1
 284 334 l 1,18,-1
 432 660 l 1,19,-1
 644 660 l 1,20,-1
 487 353 l 1,15,-1
50 660 m 1,21,-1
 264 660 l 1,22,-1
 264 0 l 1,23,-1
 50 0 l 1,24,-1
 50 660 l 1,21,-1
EndSplineSet
Validated: 1
Position2: "'cpsp' Capital Spacing lookup 3 subtable" dx=5 dy=0 dh=10 dv=0
EndChar

StartChar: L
Encoding: 76 76 68
Width: 448
Flags: MW
HStem: 0 90<264 434> 640 20G<50 264 264 264>
VStem: 50 214<90 660 90 660 90 660>
LayerCount: 2
UndoRedoHistory
Layer: 0
Undoes
EndUndoes
Redoes
EndRedoes
EndUndoRedoHistory
UndoRedoHistory
Layer: 1
Undoes
EndUndoes
Redoes
EndRedoes
EndUndoRedoHistory
Fore
SplineSet
264 660 m 1,0,-1
 264 90 l 1,1,-1
 444 90 l 1,2,-1
 434 0 l 1,3,-1
 50 0 l 1,4,-1
 50 660 l 1,5,-1
 264 660 l 1,0,-1
EndSplineSet
Validated: 1
Position2: "'cpsp' Capital Spacing lookup 3 subtable" dx=5 dy=0 dh=10 dv=0
EndChar

StartChar: LJ
Encoding: 455 455 69
Width: 762
Flags: MW
HStem: 0 90<264 434> 640 20G<50 264 264 264 499 713 713 713>
VStem: 50 214<90 90 90 660> 499 214<52 79 79 660>
LayerCount: 2
UndoRedoHistory
Layer: 0
Undoes
EndUndoes
Redoes
EndRedoes
EndUndoRedoHistory
UndoRedoHistory
Layer: 1
Undoes
EndUndoes
Redoes
EndRedoes
EndUndoRedoHistory
Fore
SplineSet
713 79 m 2,0,1
 713 33 713 33 708.5 -4.5 c 128,-1,2
 704 -42 704 -42 692 -78 c 128,-1,3
 680 -114 680 -114 660 -138 c 128,-1,4
 640 -162 640 -162 608.5 -176.5 c 128,-1,5
 577 -191 577 -191 534 -191 c 0,6,7
 492 -191 492 -191 457.5 -178.5 c 128,-1,8
 423 -166 423 -166 409 -136 c 1,9,10
 428 -134 428 -134 442 -126.5 c 128,-1,11
 456 -119 456 -119 465.5 -110 c 128,-1,12
 475 -101 475 -101 481.5 -85 c 128,-1,13
 488 -69 488 -69 491.5 -56 c 128,-1,14
 495 -43 495 -43 497 -21.5 c 128,-1,15
 499 0 499 0 499 14 c 2,16,-1
 499 52 l 1,17,-1
 499 660 l 1,18,-1
 713 660 l 1,19,-1
 713 79 l 2,0,1
264 90 m 1,20,-1
 444 90 l 1,21,-1
 434 0 l 1,22,-1
 50 0 l 1,23,-1
 50 660 l 1,24,-1
 264 660 l 1,25,-1
 264 90 l 1,20,-1
EndSplineSet
Validated: 1
Position2: "'cpsp' Capital Spacing lookup 3 subtable" dx=5 dy=0 dh=10 dv=0
EndChar

StartChar: Lacute
Encoding: 313 313 70
Width: 448
Flags: MW
HStem: 0 90<264 434> 640 20G<50 264 264 264>
VStem: 50 214<90 90 90 660>
LayerCount: 2
UndoRedoHistory
Layer: 0
Undoes
EndUndoes
Redoes
EndRedoes
EndUndoRedoHistory
UndoRedoHistory
Layer: 1
Undoes
EndUndoes
Redoes
EndRedoes
EndUndoRedoHistory
Fore
SplineSet
264 90 m 1,0,-1
 444 90 l 1,1,-1
 434 0 l 1,2,-1
 50 0 l 1,3,-1
 50 660 l 1,4,-1
 264 660 l 1,5,-1
 264 90 l 1,0,-1
298 862 m 1,6,7
 315 848 315 848 325.5 828 c 128,-1,8
 336 808 336 808 336 788 c 0,9,10
 336 775 336 775 331.5 765 c 128,-1,11
 327 755 327 755 321 748.5 c 128,-1,12
 315 742 315 742 303 736.5 c 128,-1,13
 291 731 291 731 282.5 728.5 c 128,-1,14
 274 726 274 726 257.5 724 c 128,-1,15
 241 722 241 722 234 721.5 c 128,-1,16
 227 721 227 721 209 719 c 2,17,-1
 63 709 l 1,18,-1
 51 760 l 1,19,-1
 298 862 l 1,6,7
EndSplineSet
Validated: 1
Position2: "'cpsp' Capital Spacing lookup 3 subtable" dx=5 dy=0 dh=10 dv=0
EndChar

StartChar: Lcaron
Encoding: 317 317 71
Width: 448
Flags: MW
HStem: 0 90<264 434> 526 134<50 383> 700 20G<371 404>
VStem: 50 214<90 90 90 660> 339 120<611 637>
LayerCount: 2
UndoRedoHistory
Layer: 0
Undoes
EndUndoes
Redoes
EndRedoes
EndUndoRedoHistory
UndoRedoHistory
Layer: 1
Undoes
EndUndoes
Redoes
EndRedoes
EndUndoRedoHistory
Fore
SplineSet
264 90 m 1,0,-1
 444 90 l 1,1,-1
 434 0 l 1,2,-1
 50 0 l 1,3,-1
 50 660 l 1,4,-1
 264 660 l 1,5,-1
 264 90 l 1,0,-1
316 705 m 1,6,7
 325 711 325 711 344.5 715.5 c 128,-1,8
 364 720 364 720 383 720 c 0,9,10
 417 720 417 720 438 698.5 c 128,-1,11
 459 677 459 677 459 635 c 0,12,13
 459 595 459 595 428.5 560.5 c 128,-1,14
 398 526 398 526 345 526 c 0,15,16
 328 526 328 526 310 532 c 1,17,18
 326 552 326 552 332.5 572.5 c 128,-1,19
 339 593 339 593 339 622 c 0,20,21
 339 668 339 668 316 705 c 1,6,7
EndSplineSet
Validated: 1
Position2: "'cpsp' Capital Spacing lookup 3 subtable" dx=5 dy=0 dh=10 dv=0
EndChar

StartChar: Lcommaaccent
Encoding: 315 315 72
Width: 448
Flags: MW
HStem: -258 207<217 224> 0 90<264 434> 640 20G<50 264 264 264>
VStem: 50 214<90 90 90 660> 186 137<-165 -134>
LayerCount: 2
UndoRedoHistory
Layer: 0
Undoes
EndUndoes
Redoes
EndRedoes
EndUndoRedoHistory
UndoRedoHistory
Layer: 1
Undoes
EndUndoes
Redoes
EndRedoes
EndUndoRedoHistory
Fore
SplineSet
229 -51 m 0,0,1
 278 -51 278 -51 300.5 -70.5 c 128,-1,2
 323 -90 323 -90 323 -132 c 0,3,4
 323 -182 323 -182 283 -220 c 128,-1,5
 243 -258 243 -258 185 -258 c 0,6,7
 182 -258 182 -258 145 -255 c 1,8,9
 186 -202 186 -202 186 -150 c 0,10,11
 186 -103 186 -103 163 -66 c 1,12,13
 172 -60 172 -60 191.5 -55.5 c 128,-1,14
 211 -51 211 -51 229 -51 c 0,0,1
264 90 m 1,15,-1
 444 90 l 1,16,-1
 434 0 l 1,17,-1
 50 0 l 1,18,-1
 50 660 l 1,19,-1
 264 660 l 1,20,-1
 264 90 l 1,15,-1
EndSplineSet
Validated: 8388609
Position2: "'cpsp' Capital Spacing lookup 3 subtable" dx=5 dy=0 dh=10 dv=0
EndChar

StartChar: Ldot
Encoding: 319 319 73
Width: 486
Flags: MW
HStem: 0 90<264 434> 255 140<368 405> 640 20G<50 264 264 264>
VStem: 50 214<90 90 90 660> 318 134<304 344>
LayerCount: 2
UndoRedoHistory
Layer: 0
Undoes
EndUndoes
Redoes
EndRedoes
EndUndoRedoHistory
UndoRedoHistory
Layer: 1
Undoes
EndUndoes
Redoes
EndRedoes
EndUndoRedoHistory
Fore
SplineSet
388 395 m 0,0,1
 418 395 418 395 435 376 c 128,-1,2
 452 357 452 357 452 325 c 128,-1,3
 452 293 452 293 433.5 274 c 128,-1,4
 415 255 415 255 384 255 c 0,5,6
 353 255 353 255 335.5 273.5 c 128,-1,7
 318 292 318 292 318 322 c 0,8,9
 318 355 318 355 337.5 375 c 128,-1,10
 357 395 357 395 388 395 c 0,0,1
264 90 m 1,11,-1
 444 90 l 1,12,-1
 434 0 l 1,13,-1
 50 0 l 1,14,-1
 50 660 l 1,15,-1
 264 660 l 1,16,-1
 264 90 l 1,11,-1
EndSplineSet
Validated: 1
Ligature2: "Ligature Substitution lookup 20 subtable" L periodcentered
Position2: "'cpsp' Capital Spacing lookup 3 subtable" dx=5 dy=0 dh=10 dv=0
EndChar

StartChar: Lj
Encoding: 456 456 74
Width: 751
Flags: MW
HStem: 0 90<264 434> 490 20G<503 699 699 699> 590 160<574 632> 640 20G<50 264 264 264>
VStem: 50 214<90 90 90 660> 494 217<644 694> 503 196<21 46 46 510>
LayerCount: 2
UndoRedoHistory
Layer: 0
Undoes
EndUndoes
Redoes
EndRedoes
EndUndoRedoHistory
UndoRedoHistory
Layer: 1
Undoes
EndUndoes
Redoes
EndRedoes
EndUndoRedoHistory
Fore
SplineSet
699 46 m 2,0,1
 699 -7 699 -7 692 -48.5 c 128,-1,2
 685 -90 685 -90 667 -125.5 c 128,-1,3
 649 -161 649 -161 616 -180.5 c 128,-1,4
 583 -200 583 -200 536 -200 c 0,5,6
 498 -200 498 -200 465.5 -188.5 c 128,-1,7
 433 -177 433 -177 421 -150 c 1,8,9
 436 -148 436 -148 447.5 -143.5 c 128,-1,10
 459 -139 459 -139 467.5 -130.5 c 128,-1,11
 476 -122 476 -122 482 -113 c 128,-1,12
 488 -104 488 -104 492 -90.5 c 128,-1,13
 496 -77 496 -77 498 -66 c 128,-1,14
 500 -55 500 -55 501 -38 c 128,-1,15
 502 -21 502 -21 502.5 -9.5 c 128,-1,16
 503 2 503 2 503 21 c 2,17,-1
 503 510 l 1,18,-1
 699 510 l 1,19,-1
 699 46 l 2,0,1
264 90 m 1,20,-1
 444 90 l 1,21,-1
 434 0 l 1,22,-1
 50 0 l 1,23,-1
 50 660 l 1,24,-1
 264 660 l 1,25,-1
 264 90 l 1,20,-1
605 750 m 0,26,27
 653 750 653 750 682 729 c 128,-1,28
 711 708 711 708 711 670 c 0,29,30
 711 631 711 631 680.5 610.5 c 128,-1,31
 650 590 650 590 601 590 c 0,32,33
 553 590 553 590 523.5 610.5 c 128,-1,34
 494 631 494 631 494 668 c 0,35,36
 494 707 494 707 525.5 728.5 c 128,-1,37
 557 750 557 750 605 750 c 0,26,27
EndSplineSet
Validated: 8388609
Position2: "'cpsp' Capital Spacing lookup 3 subtable" dx=5 dy=0 dh=10 dv=0
EndChar

StartChar: Lslash
Encoding: 321 321 75
Width: 509
Flags: MW
HStem: 0 90<324 495> 640 20G<110 324 324 324>
VStem: 110 214<90 231 231 231 408 660>
LayerCount: 2
UndoRedoHistory
Layer: 0
Undoes
EndUndoes
Redoes
EndRedoes
EndUndoRedoHistory
UndoRedoHistory
Layer: 1
Undoes
EndUndoes
Redoes
EndRedoes
EndUndoRedoHistory
Fore
SplineSet
24 200 m 1,0,1
 5 224 5 224 5 253 c 0,2,3
 5 274 5 274 17 287 c 128,-1,4
 29 300 29 300 53 309 c 2,5,-1
 110 329 l 1,6,-1
 110 660 l 1,7,-1
 324 660 l 1,8,-1
 324 408 l 1,9,-1
 429 446 l 1,10,11
 448 421 448 421 448 393 c 0,12,13
 448 372 448 372 436 358.5 c 128,-1,14
 424 345 424 345 400 336 c 2,15,-1
 324 309 l 1,16,-1
 324 90 l 1,17,-1
 505 90 l 1,18,-1
 495 0 l 1,19,-1
 110 0 l 1,20,-1
 110 231 l 1,21,-1
 24 200 l 1,0,1
EndSplineSet
Validated: 1
Position2: "'cpsp' Capital Spacing lookup 3 subtable" dx=5 dy=0 dh=10 dv=0
EndChar

StartChar: M
Encoding: 77 77 76
Width: 866
Flags: MW
HStem: 511 149<163 163 603 603>
VStem: 50 113<0 511 0 660> 603 214<0 511 511 511>
LayerCount: 2
UndoRedoHistory
Layer: 0
Undoes
EndUndoes
Redoes
EndRedoes
EndUndoRedoHistory
UndoRedoHistory
Layer: 1
Undoes
EndUndoes
Redoes
EndRedoes
EndUndoRedoHistory
Fore
SplineSet
817 0 m 1,0,-1
 603 0 l 1,1,-1
 603 511 l 1,2,-1
 441 0 l 1,3,-1
 325 0 l 1,4,-1
 163 511 l 1,5,-1
 163 0 l 1,6,-1
 50 0 l 1,7,-1
 50 660 l 1,8,-1
 326 660 l 1,9,-1
 435 292 l 1,10,-1
 543 660 l 1,11,-1
 817 660 l 1,12,-1
 817 0 l 1,0,-1
EndSplineSet
Validated: 1
Position2: "'cpsp' Capital Spacing lookup 3 subtable" dx=5 dy=0 dh=10 dv=0
EndChar

StartChar: N
Encoding: 78 78 77
Width: 667
Flags: MW
HStem: 489 171<163 163>
VStem: 50 113<0 489 0 660> 505 114<171 660 0 660>
LayerCount: 2
UndoRedoHistory
Layer: 0
Undoes
EndUndoes
Redoes
EndRedoes
EndUndoRedoHistory
UndoRedoHistory
Layer: 1
Undoes
EndUndoes
Redoes
EndRedoes
EndUndoRedoHistory
Fore
SplineSet
163 489 m 1,0,-1
 163 0 l 1,1,-1
 50 0 l 1,2,-1
 50 660 l 1,3,-1
 301 660 l 1,4,-1
 505 171 l 1,5,-1
 505 660 l 1,6,-1
 619 660 l 1,7,-1
 619 0 l 1,8,-1
 368 0 l 1,9,-1
 163 489 l 1,0,-1
EndSplineSet
Validated: 1
Position2: "'cpsp' Capital Spacing lookup 3 subtable" dx=5 dy=0 dh=10 dv=0
EndChar

StartChar: NJ
Encoding: 458 458 78
Width: 981
Flags: MW
HStem: 489 171<163 163> 640 20G<50 301 301 301 505 619 619 619 718 932 932 932>
VStem: 50 113<0 489> 505 114<171 660 0 660> 718 214<52 79 79 660>
LayerCount: 2
UndoRedoHistory
Layer: 0
Undoes
EndUndoes
Redoes
EndRedoes
EndUndoRedoHistory
UndoRedoHistory
Layer: 1
Undoes
EndUndoes
Redoes
EndRedoes
EndUndoRedoHistory
Fore
SplineSet
932 79 m 2,0,1
 932 33 932 33 927.5 -4.5 c 128,-1,2
 923 -42 923 -42 910.5 -78 c 128,-1,3
 898 -114 898 -114 878.5 -138 c 128,-1,4
 859 -162 859 -162 827 -176.5 c 128,-1,5
 795 -191 795 -191 753 -191 c 0,6,7
 711 -191 711 -191 676.5 -178.5 c 128,-1,8
 642 -166 642 -166 628 -136 c 1,9,10
 647 -134 647 -134 661 -126.5 c 128,-1,11
 675 -119 675 -119 684 -110 c 128,-1,12
 693 -101 693 -101 700 -85 c 128,-1,13
 707 -69 707 -69 710 -56 c 128,-1,14
 713 -43 713 -43 715 -21.5 c 128,-1,15
 717 -0 717 -0 717.5 14 c 128,-1,16
 718 28 718 28 718 52 c 2,17,-1
 718 660 l 1,18,-1
 932 660 l 1,19,-1
 932 79 l 2,0,1
163 0 m 1,20,-1
 50 0 l 1,21,-1
 50 660 l 1,22,-1
 301 660 l 1,23,-1
 505 171 l 1,24,-1
 505 660 l 1,25,-1
 619 660 l 1,26,-1
 619 0 l 1,27,-1
 368 0 l 1,28,-1
 163 489 l 1,29,-1
 163 0 l 1,20,-1
EndSplineSet
Validated: 8388609
Position2: "'cpsp' Capital Spacing lookup 3 subtable" dx=5 dy=0 dh=10 dv=0
EndChar

StartChar: Nacute
Encoding: 323 323 79
Width: 667
Flags: MW
HStem: 489 171<163 163> 640 20G<50 301 301 301 505 619 619 619>
VStem: 50 113<0 489> 505 114<171 660 0 660>
LayerCount: 2
UndoRedoHistory
Layer: 0
Undoes
EndUndoes
Redoes
EndRedoes
EndUndoRedoHistory
UndoRedoHistory
Layer: 1
Undoes
EndUndoes
Redoes
EndRedoes
EndUndoRedoHistory
Fore
SplineSet
163 0 m 1,0,-1
 50 0 l 1,1,-1
 50 660 l 1,2,-1
 301 660 l 1,3,-1
 505 171 l 1,4,-1
 505 660 l 1,5,-1
 619 660 l 1,6,-1
 619 0 l 1,7,-1
 368 0 l 1,8,-1
 163 489 l 1,9,-1
 163 0 l 1,0,-1
476 862 m 1,10,11
 493 848 493 848 503.5 828 c 128,-1,12
 514 808 514 808 514 788 c 0,13,14
 514 775 514 775 509.5 765 c 128,-1,15
 505 755 505 755 499 748.5 c 128,-1,16
 493 742 493 742 481 736.5 c 128,-1,17
 469 731 469 731 461 728.5 c 128,-1,18
 453 726 453 726 436 724 c 128,-1,19
 419 722 419 722 412 721.5 c 128,-1,20
 405 721 405 721 387 719 c 2,21,-1
 241 709 l 1,22,-1
 229 760 l 1,23,-1
 476 862 l 1,10,11
EndSplineSet
Validated: 8388609
Substitution2: "'locl' Localized Forms in Latin lookup 13 subtable" Nacute.loclPLK
Substitution2: "'aalt' Access All Alternates lookup 0 subtable" Nacute.loclPLK
Position2: "'cpsp' Capital Spacing lookup 3 subtable" dx=5 dy=0 dh=10 dv=0
EndChar

StartChar: Ncaron
Encoding: 327 327 80
Width: 667
Flags: MW
HStem: 489 171<163 163> 640 20G<50 301 301 301 505 619 619 619>
VStem: 50 113<0 489> 505 114<171 660 0 660>
LayerCount: 2
UndoRedoHistory
Layer: 0
Undoes
EndUndoes
Redoes
EndRedoes
EndUndoRedoHistory
UndoRedoHistory
Layer: 1
Undoes
EndUndoes
Redoes
EndRedoes
EndUndoRedoHistory
Fore
SplineSet
163 0 m 1,0,-1
 50 0 l 1,1,-1
 50 660 l 1,2,-1
 301 660 l 1,3,-1
 505 171 l 1,4,-1
 505 660 l 1,5,-1
 619 660 l 1,6,-1
 619 0 l 1,7,-1
 368 0 l 1,8,-1
 163 489 l 1,9,-1
 163 0 l 1,0,-1
507 811 m 1,10,-1
 366 695 l 1,11,-1
 302 695 l 1,12,-1
 157 811 l 1,13,-1
 197 857 l 1,14,-1
 332 805 l 1,15,-1
 468 857 l 1,16,-1
 507 811 l 1,10,-1
EndSplineSet
Validated: 8388609
Position2: "'cpsp' Capital Spacing lookup 3 subtable" dx=5 dy=0 dh=10 dv=0
EndChar

StartChar: Ncommaaccent
Encoding: 325 325 81
Width: 667
Flags: MW
HStem: -258 207<304 310> 489 171<163 163> 640 20G<50 301 301 301 505 619 619 619>
VStem: 50 113<0 489> 272 137<-165 -134> 505 114<171 660 0 660>
LayerCount: 2
UndoRedoHistory
Layer: 0
Undoes
EndUndoes
Redoes
EndRedoes
EndUndoRedoHistory
UndoRedoHistory
Layer: 1
Undoes
EndUndoes
Redoes
EndRedoes
EndUndoRedoHistory
Fore
SplineSet
315 -51 m 0,0,1
 364 -51 364 -51 386.5 -70.5 c 128,-1,2
 409 -90 409 -90 409 -132 c 0,3,4
 409 -182 409 -182 369 -220 c 128,-1,5
 329 -258 329 -258 271 -258 c 0,6,7
 268 -258 268 -258 231 -255 c 1,8,9
 272 -202 272 -202 272 -150 c 0,10,11
 272 -103 272 -103 249 -66 c 1,12,13
 258 -60 258 -60 277.5 -55.5 c 128,-1,14
 297 -51 297 -51 315 -51 c 0,0,1
163 0 m 1,15,-1
 50 0 l 1,16,-1
 50 660 l 1,17,-1
 301 660 l 1,18,-1
 505 171 l 1,19,-1
 505 660 l 1,20,-1
 619 660 l 1,21,-1
 619 0 l 1,22,-1
 368 0 l 1,23,-1
 163 489 l 1,24,-1
 163 0 l 1,15,-1
EndSplineSet
Validated: 8388609
Position2: "'cpsp' Capital Spacing lookup 3 subtable" dx=5 dy=0 dh=10 dv=0
EndChar

StartChar: Ndotaccent
Encoding: 7748 7748 82
Width: 667
Flags: MW
HStem: 489 171<163 163> 640 20G<50 301 301 301 505 619 619 619> 740 160<309 368>
VStem: 50 113<0 489> 229 217<793 845> 505 114<171 660 0 660>
LayerCount: 2
UndoRedoHistory
Layer: 0
Undoes
EndUndoes
Redoes
EndRedoes
EndUndoRedoHistory
UndoRedoHistory
Layer: 1
Undoes
EndUndoes
Redoes
EndRedoes
EndUndoRedoHistory
Fore
SplineSet
163 0 m 1,0,-1
 50 0 l 1,1,-1
 50 660 l 1,2,-1
 301 660 l 1,3,-1
 505 171 l 1,4,-1
 505 660 l 1,5,-1
 619 660 l 1,6,-1
 619 0 l 1,7,-1
 368 0 l 1,8,-1
 163 489 l 1,9,-1
 163 0 l 1,0,-1
340 900 m 0,10,11
 388 900 388 900 417 878.5 c 128,-1,12
 446 857 446 857 446 820 c 0,13,14
 446 781 446 781 415.5 760.5 c 128,-1,15
 385 740 385 740 336 740 c 0,16,17
 288 740 288 740 258.5 760.5 c 128,-1,18
 229 781 229 781 229 818 c 0,19,20
 229 857 229 857 260.5 878.5 c 128,-1,21
 292 900 292 900 340 900 c 0,10,11
EndSplineSet
Validated: 8388609
Position2: "'cpsp' Capital Spacing lookup 3 subtable" dx=5 dy=0 dh=10 dv=0
EndChar

StartChar: Eng
Encoding: 330 330 83
Width: 667
Flags: MW
HStem: 489 171<163 163> 640 20G<50 301 301 301 505 619 619 619>
VStem: 50 113<0 489 0 660> 505 114<0 0 171 660>
LayerCount: 2
UndoRedoHistory
Layer: 0
Undoes
EndUndoes
Redoes
EndRedoes
EndUndoRedoHistory
UndoRedoHistory
Layer: 1
Undoes
EndUndoes
Redoes
EndRedoes
EndUndoRedoHistory
Fore
SplineSet
619 660 m 1,0,-1
 619 55 l 2,1,2
 619 15 619 15 618.5 -5.5 c 128,-1,3
 618 -26 618 -26 615 -62 c 128,-1,4
 612 -98 612 -98 604.5 -118 c 128,-1,5
 597 -138 597 -138 584.5 -160 c 128,-1,6
 572 -182 572 -182 550.5 -191.5 c 128,-1,7
 529 -201 529 -201 501 -201 c 0,8,9
 445 -201 445 -201 423 -167 c 1,10,11
 441 -165 441 -165 455 -157 c 128,-1,12
 469 -149 469 -149 477.5 -136 c 128,-1,13
 486 -123 486 -123 491.5 -109 c 128,-1,14
 497 -95 497 -95 499.5 -75 c 128,-1,15
 502 -55 502 -55 503 -39 c 128,-1,16
 504 -23 504 -23 505 0 c 1,17,-1
 368 0 l 1,18,-1
 163 489 l 1,19,-1
 163 0 l 1,20,-1
 50 0 l 1,21,-1
 50 660 l 1,22,-1
 301 660 l 1,23,-1
 505 171 l 1,24,-1
 505 660 l 1,25,-1
 619 660 l 1,0,-1
EndSplineSet
Validated: 8388609
Position2: "'cpsp' Capital Spacing lookup 3 subtable" dx=5 dy=0 dh=10 dv=0
EndChar

StartChar: Nj
Encoding: 459 459 84
Width: 971
Flags: MW
HStem: 490 20G<722 918 918 918> 590 160<793 852> 640 20G<50 301 301 301 505 619 619 619>
VStem: 50 113<0 489> 505 114<171 660 0 660> 713 217<644 694> 722 196<21 46 46 510>
LayerCount: 2
UndoRedoHistory
Layer: 0
Undoes
EndUndoes
Redoes
EndRedoes
EndUndoRedoHistory
UndoRedoHistory
Layer: 1
Undoes
EndUndoes
Redoes
EndRedoes
EndUndoRedoHistory
Fore
SplineSet
918 46 m 2,0,1
 918 -7 918 -7 910.5 -48.5 c 128,-1,2
 903 -90 903 -90 885.5 -125.5 c 128,-1,3
 868 -161 868 -161 835 -180.5 c 128,-1,4
 802 -200 802 -200 755 -200 c 0,5,6
 717 -200 717 -200 684.5 -188.5 c 128,-1,7
 652 -177 652 -177 640 -150 c 1,8,9
 655 -148 655 -148 666.5 -143.5 c 128,-1,10
 678 -139 678 -139 686.5 -130.5 c 128,-1,11
 695 -122 695 -122 701.5 -113 c 128,-1,12
 708 -104 708 -104 711.5 -90.5 c 128,-1,13
 715 -77 715 -77 717.5 -66 c 128,-1,14
 720 -55 720 -55 721 -38 c 0,15,16
 722 -22 722 -22 722 -10 c 2,17,-1
 722 21 l 1,18,-1
 722 510 l 1,19,-1
 918 510 l 1,20,-1
 918 46 l 2,0,1
163 0 m 1,21,-1
 50 0 l 1,22,-1
 50 660 l 1,23,-1
 301 660 l 1,24,-1
 505 171 l 1,25,-1
 505 660 l 1,26,-1
 619 660 l 1,27,-1
 619 0 l 1,28,-1
 368 0 l 1,29,-1
 163 489 l 1,30,-1
 163 0 l 1,21,-1
824 750 m 128,-1,32
 872 750 872 750 901 729 c 128,-1,33
 930 708 930 708 930 670 c 0,34,35
 930 631 930 631 899.5 610.5 c 128,-1,36
 869 590 869 590 820 590 c 0,37,38
 772 590 772 590 742.5 610.5 c 128,-1,39
 713 631 713 631 713 668 c 0,40,41
 713 707 713 707 744.5 728.5 c 128,-1,31
 776 750 776 750 824 750 c 128,-1,32
EndSplineSet
Validated: 8388609
Position2: "'cpsp' Capital Spacing lookup 3 subtable" dx=5 dy=0 dh=10 dv=0
EndChar

StartChar: Ntilde
Encoding: 209 209 85
Width: 667
Flags: MW
HStem: 489 171<163 163> 640 20G<50 301 301 301 505 619 619 619> 711 104<419 458 419 461> 731 104<211 251>
VStem: 50 113<0 489> 505 114<171 660 0 660>
LayerCount: 2
UndoRedoHistory
Layer: 0
Undoes
EndUndoes
Redoes
EndRedoes
EndUndoRedoHistory
UndoRedoHistory
Layer: 1
Undoes
EndUndoes
Redoes
EndRedoes
EndUndoRedoHistory
Fore
SplineSet
163 0 m 1,0,-1
 50 0 l 1,1,-1
 50 660 l 1,2,-1
 301 660 l 1,3,-1
 505 171 l 1,4,-1
 505 660 l 1,5,-1
 619 660 l 1,6,-1
 619 0 l 1,7,-1
 368 0 l 1,8,-1
 163 489 l 1,9,-1
 163 0 l 1,0,-1
511 835 m 1,10,11
 534 807 534 807 534 775 c 0,12,13
 534 738 534 738 507.5 724.5 c 128,-1,14
 481 711 481 711 434 711 c 0,15,16
 407 711 407 711 329.5 721 c 128,-1,17
 252 731 252 731 223 731 c 0,18,19
 179 731 179 731 159 711 c 1,20,21
 136 739 136 739 136 771 c 0,22,23
 136 808 136 808 162.5 821.5 c 128,-1,24
 189 835 189 835 236 835 c 0,25,26
 263 835 263 835 340.5 825 c 128,-1,27
 418 815 418 815 447 815 c 0,28,29
 491 815 491 815 511 835 c 1,10,11
EndSplineSet
Validated: 8388609
Position2: "'cpsp' Capital Spacing lookup 3 subtable" dx=5 dy=0 dh=10 dv=0
EndChar

StartChar: O
Encoding: 79 79 86
Width: 669
Flags: MW
HStem: -22 74<295 375 295 441> 606 74<295 375>
VStem: 20 230<276 390 276 434> 420 230<276 390>
LayerCount: 2
UndoRedoHistory
Layer: 0
Undoes
EndUndoes
Redoes
EndRedoes
EndUndoRedoHistory
UndoRedoHistory
Layer: 1
Undoes
EndUndoes
Redoes
EndRedoes
EndUndoRedoHistory
Fore
SplineSet
335 52 m 128,-1,1
 352 52 352 52 365 62 c 128,-1,2
 378 72 378 72 387 87.5 c 128,-1,3
 396 103 396 103 402 127 c 128,-1,4
 408 151 408 151 411.5 174 c 128,-1,5
 415 197 415 197 417 228 c 128,-1,6
 419 259 419 259 419.5 281.5 c 128,-1,7
 420 304 420 304 420 333 c 128,-1,8
 420 362 420 362 419.5 384.5 c 128,-1,9
 419 407 419 407 417 436.5 c 128,-1,10
 415 466 415 466 411.5 488.5 c 128,-1,11
 408 511 408 511 402 534 c 128,-1,12
 396 557 396 557 387 572 c 128,-1,13
 378 587 378 587 365 596.5 c 128,-1,14
 352 606 352 606 335 606 c 128,-1,15
 318 606 318 606 305 596.5 c 128,-1,16
 292 587 292 587 283 572 c 128,-1,17
 274 557 274 557 268 534 c 128,-1,18
 262 511 262 511 258.5 488.5 c 128,-1,19
 255 466 255 466 253 436.5 c 128,-1,20
 251 407 251 407 250.5 384.5 c 128,-1,21
 250 362 250 362 250 333 c 128,-1,22
 250 304 250 304 250.5 281.5 c 128,-1,23
 251 259 251 259 253 228 c 128,-1,24
 255 197 255 197 258.5 174 c 128,-1,25
 262 151 262 151 268 127 c 128,-1,26
 274 103 274 103 283 87.5 c 128,-1,27
 292 72 292 72 305 62 c 128,-1,0
 318 52 318 52 335 52 c 128,-1,1
335 680 m 0,28,29
 494 680 494 680 572 591.5 c 128,-1,30
 650 503 650 503 650 339 c 0,31,32
 650 259 650 259 630 193 c 128,-1,33
 610 127 610 127 572 79 c 128,-1,34
 534 31 534 31 473.5 4.5 c 128,-1,35
 413 -22 413 -22 335 -22 c 0,36,37
 259 -22 259 -22 199.5 3.5 c 128,-1,38
 140 29 140 29 100.5 75.5 c 128,-1,39
 61 122 61 122 40.5 185.5 c 128,-1,40
 20 249 20 249 20 326 c 0,41,42
 20 492 20 492 99 586 c 128,-1,43
 178 680 178 680 335 680 c 0,28,29
EndSplineSet
Validated: 1
Substitution2: "Single Substitution lookup 21 subtable" ordmasculine
Substitution2: "'aalt' Access All Alternates lookup 0 subtable" ordmasculine
Position2: "'cpsp' Capital Spacing lookup 3 subtable" dx=5 dy=0 dh=10 dv=0
EndChar

StartChar: Oacute
Encoding: 211 211 87
Width: 669
Flags: MW
HStem: -22 74<295 375 295 441> 606 74<295 375>
VStem: 20 230<276 390 276 434> 420 230<276 390>
LayerCount: 2
UndoRedoHistory
Layer: 0
Undoes
EndUndoes
Redoes
EndRedoes
EndUndoRedoHistory
UndoRedoHistory
Layer: 1
Undoes
EndUndoes
Redoes
EndRedoes
EndUndoRedoHistory
Fore
SplineSet
335 52 m 128,-1,1
 352 52 352 52 365 62 c 128,-1,2
 378 72 378 72 387 87.5 c 128,-1,3
 396 103 396 103 402 127 c 128,-1,4
 408 151 408 151 411.5 174 c 128,-1,5
 415 197 415 197 417 228 c 128,-1,6
 419 259 419 259 419.5 281.5 c 128,-1,7
 420 304 420 304 420 333 c 128,-1,8
 420 362 420 362 419.5 384.5 c 128,-1,9
 419 407 419 407 417 436.5 c 128,-1,10
 415 466 415 466 411.5 488.5 c 128,-1,11
 408 511 408 511 402 534 c 128,-1,12
 396 557 396 557 387 572 c 128,-1,13
 378 587 378 587 365 596.5 c 128,-1,14
 352 606 352 606 335 606 c 128,-1,15
 318 606 318 606 305 596.5 c 128,-1,16
 292 587 292 587 283 572 c 128,-1,17
 274 557 274 557 268 534 c 128,-1,18
 262 511 262 511 258.5 488.5 c 128,-1,19
 255 466 255 466 253 436.5 c 128,-1,20
 251 407 251 407 250.5 384.5 c 128,-1,21
 250 362 250 362 250 333 c 128,-1,22
 250 304 250 304 250.5 281.5 c 128,-1,23
 251 259 251 259 253 228 c 128,-1,24
 255 197 255 197 258.5 174 c 128,-1,25
 262 151 262 151 268 127 c 128,-1,26
 274 103 274 103 283 87.5 c 128,-1,27
 292 72 292 72 305 62 c 128,-1,0
 318 52 318 52 335 52 c 128,-1,1
335 680 m 0,28,29
 494 680 494 680 572 591.5 c 128,-1,30
 650 503 650 503 650 339 c 0,31,32
 650 259 650 259 630 193 c 128,-1,33
 610 127 610 127 572 79 c 128,-1,34
 534 31 534 31 473.5 4.5 c 128,-1,35
 413 -22 413 -22 335 -22 c 0,36,37
 259 -22 259 -22 199.5 3.5 c 128,-1,38
 140 29 140 29 100.5 75.5 c 128,-1,39
 61 122 61 122 40.5 185.5 c 128,-1,40
 20 249 20 249 20 326 c 0,41,42
 20 492 20 492 99 586 c 128,-1,43
 178 680 178 680 335 680 c 0,28,29
476 862 m 1,44,45
 493 848 493 848 503.5 828 c 128,-1,46
 514 808 514 808 514 788 c 0,47,48
 514 775 514 775 509.5 765 c 128,-1,49
 505 755 505 755 499 748.5 c 128,-1,50
 493 742 493 742 481 736.5 c 128,-1,51
 469 731 469 731 461 728.5 c 128,-1,52
 453 726 453 726 436 724 c 128,-1,53
 419 722 419 722 412 721.5 c 128,-1,54
 405 721 405 721 387 719 c 2,55,-1
 241 709 l 1,56,-1
 229 760 l 1,57,-1
 476 862 l 1,44,45
EndSplineSet
Validated: 1
Substitution2: "'locl' Localized Forms in Latin lookup 13 subtable" Oacute.loclPLK
Substitution2: "'aalt' Access All Alternates lookup 0 subtable" Oacute.loclPLK
Position2: "'cpsp' Capital Spacing lookup 3 subtable" dx=5 dy=0 dh=10 dv=0
EndChar

StartChar: Obreve
Encoding: 334 334 88
Width: 669
Flags: MW
HStem: -22 74<295 375 295 441> 606 74<295 375> 700 52<314 363 314 411>
VStem: 20 230<276 390 276 434> 142 146<798 811 791 837> 382 147<817 837> 420 230<276 390>
LayerCount: 2
UndoRedoHistory
Layer: 0
Undoes
EndUndoes
Redoes
EndRedoes
EndUndoRedoHistory
UndoRedoHistory
Layer: 1
Undoes
EndUndoes
Redoes
EndRedoes
EndUndoRedoHistory
Fore
SplineSet
335 52 m 128,-1,1
 352 52 352 52 365 62 c 128,-1,2
 378 72 378 72 387 87.5 c 128,-1,3
 396 103 396 103 402 127 c 128,-1,4
 408 151 408 151 411.5 174 c 128,-1,5
 415 197 415 197 417 228 c 128,-1,6
 419 259 419 259 419.5 281.5 c 128,-1,7
 420 304 420 304 420 333 c 128,-1,8
 420 362 420 362 419.5 384.5 c 128,-1,9
 419 407 419 407 417 436.5 c 128,-1,10
 415 466 415 466 411.5 488.5 c 128,-1,11
 408 511 408 511 402 534 c 128,-1,12
 396 557 396 557 387 572 c 128,-1,13
 378 587 378 587 365 596.5 c 128,-1,14
 352 606 352 606 335 606 c 128,-1,15
 318 606 318 606 305 596.5 c 128,-1,16
 292 587 292 587 283 572 c 128,-1,17
 274 557 274 557 268 534 c 128,-1,18
 262 511 262 511 258.5 488.5 c 128,-1,19
 255 466 255 466 253 436.5 c 128,-1,20
 251 407 251 407 250.5 384.5 c 128,-1,21
 250 362 250 362 250 333 c 128,-1,22
 250 304 250 304 250.5 281.5 c 128,-1,23
 251 259 251 259 253 228 c 128,-1,24
 255 197 255 197 258.5 174 c 128,-1,25
 262 151 262 151 268 127 c 128,-1,26
 274 103 274 103 283 87.5 c 128,-1,27
 292 72 292 72 305 62 c 128,-1,0
 318 52 318 52 335 52 c 128,-1,1
335 680 m 0,28,29
 494 680 494 680 572 591.5 c 128,-1,30
 650 503 650 503 650 339 c 0,31,32
 650 259 650 259 630 193 c 128,-1,33
 610 127 610 127 572 79 c 128,-1,34
 534 31 534 31 473.5 4.5 c 128,-1,35
 413 -22 413 -22 335 -22 c 0,36,37
 259 -22 259 -22 199.5 3.5 c 128,-1,38
 140 29 140 29 100.5 75.5 c 128,-1,39
 61 122 61 122 40.5 185.5 c 128,-1,40
 20 249 20 249 20 326 c 0,41,42
 20 492 20 492 99 586 c 128,-1,43
 178 680 178 680 335 680 c 0,28,29
529 837 m 1,44,45
 529 806 529 806 519.5 782.5 c 128,-1,46
 510 759 510 759 488.5 739.5 c 128,-1,47
 467 720 467 720 428.5 710 c 128,-1,48
 390 700 390 700 335 700 c 128,-1,49
 280 700 280 700 241.5 710 c 128,-1,50
 203 720 203 720 182 739.5 c 128,-1,51
 161 759 161 759 151.5 782.5 c 128,-1,52
 142 806 142 806 142 837 c 1,53,-1
 289 837 l 1,54,55
 289 831 289 831 288.5 821 c 128,-1,56
 288 811 288 811 288 805 c 0,57,58
 288 780 288 780 297.5 766 c 128,-1,59
 307 752 307 752 335 752 c 0,60,61
 364 752 364 752 373.5 766.5 c 128,-1,62
 383 781 383 781 383 808 c 0,63,64
 383 813 383 813 382.5 822.5 c 128,-1,65
 382 832 382 832 382 837 c 1,66,-1
 529 837 l 1,44,45
EndSplineSet
Validated: 8388609
Position2: "'cpsp' Capital Spacing lookup 3 subtable" dx=5 dy=0 dh=10 dv=0
EndChar

StartChar: Ocircumflex
Encoding: 212 212 89
Width: 669
Flags: MW
HStem: -22 74<295 375 295 441> 606 74<295 375>
VStem: 20 230<276 390 276 434> 420 230<276 390>
LayerCount: 2
UndoRedoHistory
Layer: 0
Undoes
EndUndoes
Redoes
EndRedoes
EndUndoRedoHistory
UndoRedoHistory
Layer: 1
Undoes
EndUndoes
Redoes
EndRedoes
EndUndoRedoHistory
Fore
SplineSet
335 52 m 128,-1,1
 352 52 352 52 365 62 c 128,-1,2
 378 72 378 72 387 87.5 c 128,-1,3
 396 103 396 103 402 127 c 128,-1,4
 408 151 408 151 411.5 174 c 128,-1,5
 415 197 415 197 417 228 c 128,-1,6
 419 259 419 259 419.5 281.5 c 128,-1,7
 420 304 420 304 420 333 c 128,-1,8
 420 362 420 362 419.5 384.5 c 128,-1,9
 419 407 419 407 417 436.5 c 128,-1,10
 415 466 415 466 411.5 488.5 c 128,-1,11
 408 511 408 511 402 534 c 128,-1,12
 396 557 396 557 387 572 c 128,-1,13
 378 587 378 587 365 596.5 c 128,-1,14
 352 606 352 606 335 606 c 128,-1,15
 318 606 318 606 305 596.5 c 128,-1,16
 292 587 292 587 283 572 c 128,-1,17
 274 557 274 557 268 534 c 128,-1,18
 262 511 262 511 258.5 488.5 c 128,-1,19
 255 466 255 466 253 436.5 c 128,-1,20
 251 407 251 407 250.5 384.5 c 128,-1,21
 250 362 250 362 250 333 c 128,-1,22
 250 304 250 304 250.5 281.5 c 128,-1,23
 251 259 251 259 253 228 c 128,-1,24
 255 197 255 197 258.5 174 c 128,-1,25
 262 151 262 151 268 127 c 128,-1,26
 274 103 274 103 283 87.5 c 128,-1,27
 292 72 292 72 305 62 c 128,-1,0
 318 52 318 52 335 52 c 128,-1,1
335 680 m 0,28,29
 494 680 494 680 572 591.5 c 128,-1,30
 650 503 650 503 650 339 c 0,31,32
 650 259 650 259 630 193 c 128,-1,33
 610 127 610 127 572 79 c 128,-1,34
 534 31 534 31 473.5 4.5 c 128,-1,35
 413 -22 413 -22 335 -22 c 0,36,37
 259 -22 259 -22 199.5 3.5 c 128,-1,38
 140 29 140 29 100.5 75.5 c 128,-1,39
 61 122 61 122 40.5 185.5 c 128,-1,40
 20 249 20 249 20 326 c 0,41,42
 20 492 20 492 99 586 c 128,-1,43
 178 680 178 680 335 680 c 0,28,29
160 731 m 1,44,-1
 312 846 l 1,45,-1
 355 846 l 1,46,-1
 509 731 l 1,47,-1
 470 684 l 1,48,-1
 335 735 l 1,49,-1
 199 684 l 1,50,-1
 160 731 l 1,44,-1
EndSplineSet
Validated: 1
Position2: "'cpsp' Capital Spacing lookup 3 subtable" dx=5 dy=0 dh=10 dv=0
EndChar

StartChar: Odieresis
Encoding: 214 214 90
Width: 669
Flags: MW
HStem: -22 74<295 375 295 441> 606 74<295 375> 711 160<192 250 422 480>
VStem: 20 230<276 390 276 434> 112 217<765 815> 342 217<765 815> 420 230<276 390>
LayerCount: 2
UndoRedoHistory
Layer: 0
Undoes
EndUndoes
Redoes
EndRedoes
EndUndoRedoHistory
UndoRedoHistory
Layer: 1
Undoes
EndUndoes
Redoes
EndRedoes
EndUndoRedoHistory
Fore
SplineSet
335 52 m 128,-1,1
 352 52 352 52 365 62 c 128,-1,2
 378 72 378 72 387 87.5 c 128,-1,3
 396 103 396 103 402 127 c 128,-1,4
 408 151 408 151 411.5 174 c 128,-1,5
 415 197 415 197 417 228 c 128,-1,6
 419 259 419 259 419.5 281.5 c 128,-1,7
 420 304 420 304 420 333 c 128,-1,8
 420 362 420 362 419.5 384.5 c 128,-1,9
 419 407 419 407 417 436.5 c 128,-1,10
 415 466 415 466 411.5 488.5 c 128,-1,11
 408 511 408 511 402 534 c 128,-1,12
 396 557 396 557 387 572 c 128,-1,13
 378 587 378 587 365 596.5 c 128,-1,14
 352 606 352 606 335 606 c 128,-1,15
 318 606 318 606 305 596.5 c 128,-1,16
 292 587 292 587 283 572 c 128,-1,17
 274 557 274 557 268 534 c 128,-1,18
 262 511 262 511 258.5 488.5 c 128,-1,19
 255 466 255 466 253 436.5 c 128,-1,20
 251 407 251 407 250.5 384.5 c 128,-1,21
 250 362 250 362 250 333 c 128,-1,22
 250 304 250 304 250.5 281.5 c 128,-1,23
 251 259 251 259 253 228 c 128,-1,24
 255 197 255 197 258.5 174 c 128,-1,25
 262 151 262 151 268 127 c 128,-1,26
 274 103 274 103 283 87.5 c 128,-1,27
 292 72 292 72 305 62 c 128,-1,0
 318 52 318 52 335 52 c 128,-1,1
335 680 m 0,28,29
 494 680 494 680 572 591.5 c 128,-1,30
 650 503 650 503 650 339 c 0,31,32
 650 259 650 259 630 193 c 128,-1,33
 610 127 610 127 572 79 c 128,-1,34
 534 31 534 31 473.5 4.5 c 128,-1,35
 413 -22 413 -22 335 -22 c 0,36,37
 259 -22 259 -22 199.5 3.5 c 128,-1,38
 140 29 140 29 100.5 75.5 c 128,-1,39
 61 122 61 122 40.5 185.5 c 128,-1,40
 20 249 20 249 20 326 c 0,41,42
 20 492 20 492 99 586 c 128,-1,43
 178 680 178 680 335 680 c 0,28,29
453 871 m 0,44,45
 501 871 501 871 530 850 c 128,-1,46
 559 829 559 829 559 791 c 0,47,48
 559 752 559 752 529 731.5 c 128,-1,49
 499 711 499 711 449 711 c 0,50,51
 401 711 401 711 371.5 731.5 c 128,-1,52
 342 752 342 752 342 789 c 0,53,54
 342 828 342 828 373.5 849.5 c 128,-1,55
 405 871 405 871 453 871 c 0,44,45
223 871 m 0,56,57
 271 871 271 871 300 850 c 128,-1,58
 329 829 329 829 329 791 c 0,59,60
 329 752 329 752 299 731.5 c 128,-1,61
 269 711 269 711 219 711 c 0,62,63
 171 711 171 711 141.5 731.5 c 128,-1,64
 112 752 112 752 112 789 c 0,65,66
 112 828 112 828 143.5 849.5 c 128,-1,67
 175 871 175 871 223 871 c 0,56,57
EndSplineSet
Validated: 8388609
Position2: "'cpsp' Capital Spacing lookup 3 subtable" dx=5 dy=0 dh=10 dv=0
EndChar

StartChar: Odotbelow
Encoding: 7884 7884 91
Width: 669
Flags: MW
HStem: -201 160<309 368> -22 74<295 375 295 441> 606 74<295 375>
VStem: 20 230<276 390 276 434> 229 217<-147 -97> 420 230<276 390>
LayerCount: 2
UndoRedoHistory
Layer: 0
Undoes
EndUndoes
Redoes
EndRedoes
EndUndoRedoHistory
UndoRedoHistory
Layer: 1
Undoes
EndUndoes
Redoes
EndRedoes
EndUndoRedoHistory
Fore
SplineSet
340 -41 m 0,0,1
 388 -41 388 -41 417 -62 c 128,-1,2
 446 -83 446 -83 446 -121 c 0,3,4
 446 -160 446 -160 415.5 -180.5 c 128,-1,5
 385 -201 385 -201 336 -201 c 0,6,7
 288 -201 288 -201 258.5 -180.5 c 128,-1,8
 229 -160 229 -160 229 -123 c 0,9,10
 229 -84 229 -84 260.5 -62.5 c 128,-1,11
 292 -41 292 -41 340 -41 c 0,0,1
335 52 m 128,-1,13
 352 52 352 52 365 62 c 128,-1,14
 378 72 378 72 387 87.5 c 128,-1,15
 396 103 396 103 402 127 c 128,-1,16
 408 151 408 151 411.5 174 c 128,-1,17
 415 197 415 197 417 228 c 128,-1,18
 419 259 419 259 419.5 281.5 c 128,-1,19
 420 304 420 304 420 333 c 128,-1,20
 420 362 420 362 419.5 384.5 c 128,-1,21
 419 407 419 407 417 436.5 c 128,-1,22
 415 466 415 466 411.5 488.5 c 128,-1,23
 408 511 408 511 402 534 c 128,-1,24
 396 557 396 557 387 572 c 128,-1,25
 378 587 378 587 365 596.5 c 128,-1,26
 352 606 352 606 335 606 c 128,-1,27
 318 606 318 606 305 596.5 c 128,-1,28
 292 587 292 587 283 572 c 128,-1,29
 274 557 274 557 268 534 c 128,-1,30
 262 511 262 511 258.5 488.5 c 128,-1,31
 255 466 255 466 253 436.5 c 128,-1,32
 251 407 251 407 250.5 384.5 c 128,-1,33
 250 362 250 362 250 333 c 128,-1,34
 250 304 250 304 250.5 281.5 c 128,-1,35
 251 259 251 259 253 228 c 128,-1,36
 255 197 255 197 258.5 174 c 128,-1,37
 262 151 262 151 268 127 c 128,-1,38
 274 103 274 103 283 87.5 c 128,-1,39
 292 72 292 72 305 62 c 128,-1,12
 318 52 318 52 335 52 c 128,-1,13
335 680 m 0,40,41
 494 680 494 680 572 591.5 c 128,-1,42
 650 503 650 503 650 339 c 0,43,44
 650 259 650 259 630 193 c 128,-1,45
 610 127 610 127 572 79 c 128,-1,46
 534 31 534 31 473.5 4.5 c 128,-1,47
 413 -22 413 -22 335 -22 c 0,48,49
 259 -22 259 -22 199.5 3.5 c 128,-1,50
 140 29 140 29 100.5 75.5 c 128,-1,51
 61 122 61 122 40.5 185.5 c 128,-1,52
 20 249 20 249 20 326 c 0,53,54
 20 492 20 492 99 586 c 128,-1,55
 178 680 178 680 335 680 c 0,40,41
EndSplineSet
Validated: 8388609
Position2: "'cpsp' Capital Spacing lookup 3 subtable" dx=5 dy=0 dh=10 dv=0
EndChar

StartChar: Ograve
Encoding: 210 210 92
Width: 669
Flags: MW
HStem: -22 74<295 375 295 441> 606 74<295 375>
VStem: 20 230<276 390 276 434> 420 230<276 390>
LayerCount: 2
UndoRedoHistory
Layer: 0
Undoes
EndUndoes
Redoes
EndRedoes
EndUndoRedoHistory
UndoRedoHistory
Layer: 1
Undoes
EndUndoes
Redoes
EndRedoes
EndUndoRedoHistory
Fore
SplineSet
335 52 m 128,-1,1
 352 52 352 52 365 62 c 128,-1,2
 378 72 378 72 387 87.5 c 128,-1,3
 396 103 396 103 402 127 c 128,-1,4
 408 151 408 151 411.5 174 c 128,-1,5
 415 197 415 197 417 228 c 128,-1,6
 419 259 419 259 419.5 281.5 c 128,-1,7
 420 304 420 304 420 333 c 128,-1,8
 420 362 420 362 419.5 384.5 c 128,-1,9
 419 407 419 407 417 436.5 c 128,-1,10
 415 466 415 466 411.5 488.5 c 128,-1,11
 408 511 408 511 402 534 c 128,-1,12
 396 557 396 557 387 572 c 128,-1,13
 378 587 378 587 365 596.5 c 128,-1,14
 352 606 352 606 335 606 c 128,-1,15
 318 606 318 606 305 596.5 c 128,-1,16
 292 587 292 587 283 572 c 128,-1,17
 274 557 274 557 268 534 c 128,-1,18
 262 511 262 511 258.5 488.5 c 128,-1,19
 255 466 255 466 253 436.5 c 128,-1,20
 251 407 251 407 250.5 384.5 c 128,-1,21
 250 362 250 362 250 333 c 128,-1,22
 250 304 250 304 250.5 281.5 c 128,-1,23
 251 259 251 259 253 228 c 128,-1,24
 255 197 255 197 258.5 174 c 128,-1,25
 262 151 262 151 268 127 c 128,-1,26
 274 103 274 103 283 87.5 c 128,-1,27
 292 72 292 72 305 62 c 128,-1,0
 318 52 318 52 335 52 c 128,-1,1
335 680 m 0,28,29
 494 680 494 680 572 591.5 c 128,-1,30
 650 503 650 503 650 339 c 0,31,32
 650 259 650 259 630 193 c 128,-1,33
 610 127 610 127 572 79 c 128,-1,34
 534 31 534 31 473.5 4.5 c 128,-1,35
 413 -22 413 -22 335 -22 c 0,36,37
 259 -22 259 -22 199.5 3.5 c 128,-1,38
 140 29 140 29 100.5 75.5 c 128,-1,39
 61 122 61 122 40.5 185.5 c 128,-1,40
 20 249 20 249 20 326 c 0,41,42
 20 492 20 492 99 586 c 128,-1,43
 178 680 178 680 335 680 c 0,28,29
283 720 m 2,44,45
 269 721 269 721 264 721.5 c 128,-1,46
 259 722 259 722 245 723.5 c 128,-1,47
 231 725 231 725 225 726.5 c 128,-1,48
 219 728 219 728 207.5 730.5 c 128,-1,49
 196 733 196 733 190.5 736.5 c 128,-1,50
 185 740 185 740 177 745 c 128,-1,51
 169 750 169 750 165.5 756 c 128,-1,52
 162 762 162 762 159 770.5 c 128,-1,53
 156 779 156 779 156 789 c 0,54,55
 156 809 156 809 166.5 829 c 128,-1,56
 177 849 177 849 194 863 c 1,57,-1
 441 761 l 1,58,-1
 429 710 l 1,59,-1
 283 720 l 2,44,45
EndSplineSet
Validated: 1
Position2: "'cpsp' Capital Spacing lookup 3 subtable" dx=5 dy=0 dh=10 dv=0
EndChar

StartChar: Ohungarumlaut
Encoding: 336 336 93
Width: 669
Flags: MW
HStem: -22 74<295 375 295 441> 606 74<295 375>
VStem: 20 230<276 390 276 434> 420 230<276 390>
LayerCount: 2
UndoRedoHistory
Layer: 0
Undoes
EndUndoes
Redoes
EndRedoes
EndUndoRedoHistory
UndoRedoHistory
Layer: 1
Undoes
EndUndoes
Redoes
EndRedoes
EndUndoRedoHistory
Fore
SplineSet
335 52 m 128,-1,1
 352 52 352 52 365 62 c 128,-1,2
 378 72 378 72 387 87.5 c 128,-1,3
 396 103 396 103 402 127 c 128,-1,4
 408 151 408 151 411.5 174 c 128,-1,5
 415 197 415 197 417 228 c 128,-1,6
 419 259 419 259 419.5 281.5 c 128,-1,7
 420 304 420 304 420 333 c 128,-1,8
 420 362 420 362 419.5 384.5 c 128,-1,9
 419 407 419 407 417 436.5 c 128,-1,10
 415 466 415 466 411.5 488.5 c 128,-1,11
 408 511 408 511 402 534 c 128,-1,12
 396 557 396 557 387 572 c 128,-1,13
 378 587 378 587 365 596.5 c 128,-1,14
 352 606 352 606 335 606 c 128,-1,15
 318 606 318 606 305 596.5 c 128,-1,16
 292 587 292 587 283 572 c 128,-1,17
 274 557 274 557 268 534 c 128,-1,18
 262 511 262 511 258.5 488.5 c 128,-1,19
 255 466 255 466 253 436.5 c 128,-1,20
 251 407 251 407 250.5 384.5 c 128,-1,21
 250 362 250 362 250 333 c 128,-1,22
 250 304 250 304 250.5 281.5 c 128,-1,23
 251 259 251 259 253 228 c 128,-1,24
 255 197 255 197 258.5 174 c 128,-1,25
 262 151 262 151 268 127 c 128,-1,26
 274 103 274 103 283 87.5 c 128,-1,27
 292 72 292 72 305 62 c 128,-1,0
 318 52 318 52 335 52 c 128,-1,1
335 680 m 0,28,29
 494 680 494 680 572 591.5 c 128,-1,30
 650 503 650 503 650 339 c 0,31,32
 650 259 650 259 630 193 c 128,-1,33
 610 127 610 127 572 79 c 128,-1,34
 534 31 534 31 473.5 4.5 c 128,-1,35
 413 -22 413 -22 335 -22 c 0,36,37
 259 -22 259 -22 199.5 3.5 c 128,-1,38
 140 29 140 29 100.5 75.5 c 128,-1,39
 61 122 61 122 40.5 185.5 c 128,-1,40
 20 249 20 249 20 326 c 0,41,42
 20 492 20 492 99 586 c 128,-1,43
 178 680 178 680 335 680 c 0,28,29
567 862 m 1,44,45
 605 838 605 838 605 799 c 0,46,47
 605 768 605 768 584 748.5 c 128,-1,48
 563 729 563 729 518 720 c 2,49,-1
 413 700 l 1,50,-1
 392 751 l 1,51,-1
 567 862 l 1,44,45
354 862 m 1,52,53
 393 838 393 838 393 799 c 0,54,55
 393 768 393 768 372.5 748.5 c 128,-1,56
 352 729 352 729 306 720 c 2,57,-1
 200 700 l 1,58,-1
 179 751 l 1,59,-1
 354 862 l 1,52,53
EndSplineSet
Validated: 1
Position2: "'cpsp' Capital Spacing lookup 3 subtable" dx=5 dy=0 dh=10 dv=0
EndChar

StartChar: Omacron
Encoding: 332 332 94
Width: 669
Flags: MW
HStem: -22 74<295 375 295 441> 606 74<295 375> 771 92<238 432 190 480>
VStem: 20 230<276 390 276 434> 420 230<276 390>
LayerCount: 2
UndoRedoHistory
Layer: 0
Undoes
EndUndoes
Redoes
EndRedoes
EndUndoRedoHistory
UndoRedoHistory
Layer: 1
Undoes
EndUndoes
Redoes
EndRedoes
EndUndoRedoHistory
Fore
SplineSet
335 52 m 128,-1,1
 352 52 352 52 365 62 c 128,-1,2
 378 72 378 72 387 87.5 c 128,-1,3
 396 103 396 103 402 127 c 128,-1,4
 408 151 408 151 411.5 174 c 128,-1,5
 415 197 415 197 417 228 c 128,-1,6
 419 259 419 259 419.5 281.5 c 128,-1,7
 420 304 420 304 420 333 c 128,-1,8
 420 362 420 362 419.5 384.5 c 128,-1,9
 419 407 419 407 417 436.5 c 128,-1,10
 415 466 415 466 411.5 488.5 c 128,-1,11
 408 511 408 511 402 534 c 128,-1,12
 396 557 396 557 387 572 c 128,-1,13
 378 587 378 587 365 596.5 c 128,-1,14
 352 606 352 606 335 606 c 128,-1,15
 318 606 318 606 305 596.5 c 128,-1,16
 292 587 292 587 283 572 c 128,-1,17
 274 557 274 557 268 534 c 128,-1,18
 262 511 262 511 258.5 488.5 c 128,-1,19
 255 466 255 466 253 436.5 c 128,-1,20
 251 407 251 407 250.5 384.5 c 128,-1,21
 250 362 250 362 250 333 c 128,-1,22
 250 304 250 304 250.5 281.5 c 128,-1,23
 251 259 251 259 253 228 c 128,-1,24
 255 197 255 197 258.5 174 c 128,-1,25
 262 151 262 151 268 127 c 128,-1,26
 274 103 274 103 283 87.5 c 128,-1,27
 292 72 292 72 305 62 c 128,-1,0
 318 52 318 52 335 52 c 128,-1,1
335 680 m 0,28,29
 494 680 494 680 572 591.5 c 128,-1,30
 650 503 650 503 650 339 c 0,31,32
 650 259 650 259 630 193 c 128,-1,33
 610 127 610 127 572 79 c 128,-1,34
 534 31 534 31 473.5 4.5 c 128,-1,35
 413 -22 413 -22 335 -22 c 0,36,37
 259 -22 259 -22 199.5 3.5 c 128,-1,38
 140 29 140 29 100.5 75.5 c 128,-1,39
 61 122 61 122 40.5 185.5 c 128,-1,40
 20 249 20 249 20 326 c 0,41,42
 20 492 20 492 99 586 c 128,-1,43
 178 680 178 680 335 680 c 0,28,29
480 863 m 1,44,45
 489 848 489 848 489 824 c 0,46,47
 489 800 489 800 473.5 785.5 c 128,-1,48
 458 771 458 771 432 771 c 2,49,-1
 190 771 l 1,50,51
 181 786 181 786 181 810 c 128,-1,52
 181 834 181 834 196 848.5 c 128,-1,53
 211 863 211 863 238 863 c 2,54,-1
 480 863 l 1,44,45
EndSplineSet
Validated: 1
Position2: "'cpsp' Capital Spacing lookup 3 subtable" dx=5 dy=0 dh=10 dv=0
EndChar

StartChar: Oogonek
Encoding: 490 490 95
Width: 669
Flags: MW
HStem: -274 86<410 420> -22 74<295 335 335 355> 606 74<295 375>
VStem: 20 230<276 390 276 434> 252 121<-157 -138> 420 230<276 390>
LayerCount: 2
UndoRedoHistory
Layer: 0
Undoes
EndUndoes
Redoes
EndRedoes
EndUndoRedoHistory
UndoRedoHistory
Layer: 1
Undoes
EndUndoes
Redoes
EndRedoes
EndUndoRedoHistory
Fore
SplineSet
250 333 m 128,-1,1
 250 304 250 304 250.5 281.5 c 128,-1,2
 251 259 251 259 253 228 c 128,-1,3
 255 197 255 197 258.5 174 c 128,-1,4
 262 151 262 151 268 127 c 128,-1,5
 274 103 274 103 283 87.5 c 128,-1,6
 292 72 292 72 305 62 c 128,-1,7
 318 52 318 52 335 52 c 128,-1,8
 352 52 352 52 365 62 c 128,-1,9
 378 72 378 72 387 87.5 c 128,-1,10
 396 103 396 103 402 127 c 128,-1,11
 408 151 408 151 411.5 174 c 128,-1,12
 415 197 415 197 417 228 c 128,-1,13
 419 259 419 259 419.5 281.5 c 128,-1,14
 420 304 420 304 420 333 c 128,-1,15
 420 362 420 362 419.5 384.5 c 128,-1,16
 419 407 419 407 417 436.5 c 128,-1,17
 415 466 415 466 411.5 488.5 c 128,-1,18
 408 511 408 511 402 534 c 128,-1,19
 396 557 396 557 387 572 c 128,-1,20
 378 587 378 587 365 596.5 c 128,-1,21
 352 606 352 606 335 606 c 128,-1,22
 318 606 318 606 305 596.5 c 128,-1,23
 292 587 292 587 283 572 c 128,-1,24
 274 557 274 557 268 534 c 128,-1,25
 262 511 262 511 258.5 488.5 c 128,-1,26
 255 466 255 466 253 436.5 c 128,-1,27
 251 407 251 407 250.5 384.5 c 128,-1,0
 250 362 250 362 250 333 c 128,-1,1
461 0 m 1,28,29
 373 -63 373 -63 373 -136 c 0,30,31
 373 -166 373 -166 386 -177 c 128,-1,32
 399 -188 399 -188 429 -188 c 0,33,34
 445 -188 445 -188 461 -181.5 c 128,-1,35
 477 -175 477 -175 484 -163 c 1,36,37
 510 -182 510 -182 510 -206 c 0,38,39
 510 -229 510 -229 490 -245.5 c 128,-1,40
 470 -262 470 -262 446.5 -268 c 128,-1,41
 423 -274 423 -274 400 -274 c 0,42,43
 370 -274 370 -274 344.5 -268.5 c 128,-1,44
 319 -263 319 -263 297.5 -251.5 c 128,-1,45
 276 -240 276 -240 264 -219 c 128,-1,46
 252 -198 252 -198 252 -171 c 0,47,48
 252 -86 252 -86 355 -22 c 1,49,-1
 335 -22 l 2,50,51
 259 -22 259 -22 199.5 3.5 c 128,-1,52
 140 29 140 29 100.5 75.5 c 128,-1,53
 61 122 61 122 40.5 185.5 c 128,-1,54
 20 249 20 249 20 326 c 0,55,56
 20 492 20 492 99 586 c 128,-1,57
 178 680 178 680 335 680 c 0,58,59
 494 680 494 680 572 591.5 c 128,-1,60
 650 503 650 503 650 339 c 0,61,62
 650 213 650 213 602 124 c 128,-1,63
 554 35 554 35 461 0 c 1,28,29
EndSplineSet
Validated: 1
Position2: "'cpsp' Capital Spacing lookup 3 subtable" dx=5 dy=0 dh=10 dv=0
EndChar

StartChar: Oslash
Encoding: 216 216 96
Width: 669
Flags: MW
HStem: -22 74<313 375 313 441> 606 74<295 351> 700 20G<516 532>
VStem: 20 230<317 333 317 434> 420 230<276 345>
LayerCount: 2
UndoRedoHistory
Layer: 0
Undoes
EndUndoes
Redoes
EndRedoes
EndUndoRedoHistory
UndoRedoHistory
Layer: 1
Undoes
EndUndoes
Redoes
EndRedoes
EndUndoRedoHistory
Fore
SplineSet
259 168 m 1,0,1
 277 52 277 52 335 52 c 0,2,3
 352 52 352 52 365 62 c 128,-1,4
 378 72 378 72 387 87.5 c 128,-1,5
 396 103 396 103 402 127 c 128,-1,6
 408 151 408 151 411.5 174 c 128,-1,7
 415 197 415 197 417 228 c 128,-1,8
 419 259 419 259 419.5 281.5 c 128,-1,9
 420 304 420 304 420 333 c 0,10,11
 420 383 420 383 419 410 c 1,12,-1
 259 168 l 1,0,1
399 543 m 1,13,14
 379 606 379 606 335 606 c 0,15,16
 318 606 318 606 305 596.5 c 128,-1,17
 292 587 292 587 283 572 c 128,-1,18
 274 557 274 557 268 534 c 128,-1,19
 262 511 262 511 258.5 488.5 c 128,-1,20
 255 466 255 466 253 436.5 c 128,-1,21
 251 407 251 407 250.5 384.5 c 128,-1,22
 250 362 250 362 250 333 c 2,23,-1
 250 317 l 1,24,-1
 399 543 l 1,13,14
552 612 m 1,25,26
 650 526 650 526 650 339 c 0,27,28
 650 259 650 259 630 193 c 128,-1,29
 610 127 610 127 572 79 c 128,-1,30
 534 31 534 31 473.5 4.5 c 128,-1,31
 413 -22 413 -22 335 -22 c 0,32,33
 237 -22 237 -22 163 22 c 1,34,-1
 111 -57 l 1,35,36
 85 -57 85 -57 64 -46 c 128,-1,37
 43 -35 43 -35 43 -13 c 0,38,39
 43 3 43 3 59 27 c 2,40,-1
 95 82 l 1,41,42
 20 176 20 176 20 326 c 0,43,44
 20 492 20 492 99 586 c 128,-1,45
 178 680 178 680 335 680 c 0,46,47
 415 680 415 680 475 657 c 1,48,-1
 516 720 l 1,49,50
 542 720 542 720 563 708.5 c 128,-1,51
 584 697 584 697 584 676 c 0,52,53
 584 660 584 660 568 636 c 2,54,-1
 552 612 l 1,25,26
EndSplineSet
Validated: 1
Position2: "'cpsp' Capital Spacing lookup 3 subtable" dx=5 dy=0 dh=10 dv=0
EndChar

StartChar: Oslashacute
Encoding: 510 510 97
Width: 669
Flags: MW
HStem: -22 74<313 375 313 441> 606 74<295 351> 700 20G<386 386 516 532>
VStem: 20 230<317 333 317 434> 420 230<276 345>
LayerCount: 2
UndoRedoHistory
Layer: 0
Undoes
EndUndoes
Redoes
EndRedoes
EndUndoRedoHistory
UndoRedoHistory
Layer: 1
Undoes
EndUndoes
Redoes
EndRedoes
EndUndoRedoHistory
Fore
SplineSet
259 168 m 1,0,1
 277 52 277 52 335 52 c 0,2,3
 352 52 352 52 365 62 c 128,-1,4
 378 72 378 72 387 87.5 c 128,-1,5
 396 103 396 103 402 127 c 128,-1,6
 408 151 408 151 411.5 174 c 128,-1,7
 415 197 415 197 417 228 c 128,-1,8
 419 259 419 259 419.5 281.5 c 128,-1,9
 420 304 420 304 420 333 c 0,10,11
 420 383 420 383 419 410 c 1,12,-1
 259 168 l 1,0,1
399 543 m 1,13,14
 379 606 379 606 335 606 c 0,15,16
 318 606 318 606 305 596.5 c 128,-1,17
 292 587 292 587 283 572 c 128,-1,18
 274 557 274 557 268 534 c 128,-1,19
 262 511 262 511 258.5 488.5 c 128,-1,20
 255 466 255 466 253 436.5 c 128,-1,21
 251 407 251 407 250.5 384.5 c 128,-1,22
 250 362 250 362 250 333 c 2,23,-1
 250 317 l 1,24,-1
 399 543 l 1,13,14
552 612 m 1,25,26
 650 526 650 526 650 339 c 0,27,28
 650 259 650 259 630 193 c 128,-1,29
 610 127 610 127 572 79 c 128,-1,30
 534 31 534 31 473.5 4.5 c 128,-1,31
 413 -22 413 -22 335 -22 c 0,32,33
 237 -22 237 -22 163 22 c 1,34,-1
 111 -57 l 1,35,36
 85 -57 85 -57 64 -46 c 128,-1,37
 43 -35 43 -35 43 -13 c 0,38,39
 43 3 43 3 59 27 c 2,40,-1
 95 82 l 1,41,42
 20 176 20 176 20 326 c 0,43,44
 20 492 20 492 99 586 c 128,-1,45
 178 680 178 680 335 680 c 0,46,47
 415 680 415 680 475 657 c 1,48,-1
 516 720 l 1,49,50
 542 720 542 720 563 708.5 c 128,-1,51
 584 697 584 697 584 676 c 0,52,53
 584 660 584 660 568 636 c 2,54,-1
 552 612 l 1,25,26
475 863 m 1,55,56
 492 849 492 849 502.5 829 c 128,-1,57
 513 809 513 809 513 789 c 0,58,59
 513 776 513 776 508.5 766 c 128,-1,60
 504 756 504 756 498 749.5 c 128,-1,61
 492 743 492 743 480 737.5 c 128,-1,62
 468 732 468 732 460 729.5 c 128,-1,63
 452 727 452 727 435 725 c 128,-1,64
 418 723 418 723 411 722.5 c 128,-1,65
 404 722 404 722 386 720 c 2,66,-1
 240 710 l 1,67,-1
 228 761 l 1,68,-1
 475 863 l 1,55,56
EndSplineSet
Validated: 1
Position2: "'cpsp' Capital Spacing lookup 3 subtable" dx=5 dy=0 dh=10 dv=0
EndChar

StartChar: Otilde
Encoding: 213 213 98
Width: 669
Flags: MW
HStem: -22 74<295 375 295 441> 606 74<295 375> 711 104<420 459 420 462> 731 104<212 252>
VStem: 20 230<276 390 276 434> 420 230<276 390>
LayerCount: 2
UndoRedoHistory
Layer: 0
Undoes
EndUndoes
Redoes
EndRedoes
EndUndoRedoHistory
UndoRedoHistory
Layer: 1
Undoes
EndUndoes
Redoes
EndRedoes
EndUndoRedoHistory
Fore
SplineSet
335 52 m 128,-1,1
 352 52 352 52 365 62 c 128,-1,2
 378 72 378 72 387 87.5 c 128,-1,3
 396 103 396 103 402 127 c 128,-1,4
 408 151 408 151 411.5 174 c 128,-1,5
 415 197 415 197 417 228 c 128,-1,6
 419 259 419 259 419.5 281.5 c 128,-1,7
 420 304 420 304 420 333 c 128,-1,8
 420 362 420 362 419.5 384.5 c 128,-1,9
 419 407 419 407 417 436.5 c 128,-1,10
 415 466 415 466 411.5 488.5 c 128,-1,11
 408 511 408 511 402 534 c 128,-1,12
 396 557 396 557 387 572 c 128,-1,13
 378 587 378 587 365 596.5 c 128,-1,14
 352 606 352 606 335 606 c 128,-1,15
 318 606 318 606 305 596.5 c 128,-1,16
 292 587 292 587 283 572 c 128,-1,17
 274 557 274 557 268 534 c 128,-1,18
 262 511 262 511 258.5 488.5 c 128,-1,19
 255 466 255 466 253 436.5 c 128,-1,20
 251 407 251 407 250.5 384.5 c 128,-1,21
 250 362 250 362 250 333 c 128,-1,22
 250 304 250 304 250.5 281.5 c 128,-1,23
 251 259 251 259 253 228 c 128,-1,24
 255 197 255 197 258.5 174 c 128,-1,25
 262 151 262 151 268 127 c 128,-1,26
 274 103 274 103 283 87.5 c 128,-1,27
 292 72 292 72 305 62 c 128,-1,0
 318 52 318 52 335 52 c 128,-1,1
335 680 m 0,28,29
 494 680 494 680 572 591.5 c 128,-1,30
 650 503 650 503 650 339 c 0,31,32
 650 259 650 259 630 193 c 128,-1,33
 610 127 610 127 572 79 c 128,-1,34
 534 31 534 31 473.5 4.5 c 128,-1,35
 413 -22 413 -22 335 -22 c 0,36,37
 259 -22 259 -22 199.5 3.5 c 128,-1,38
 140 29 140 29 100.5 75.5 c 128,-1,39
 61 122 61 122 40.5 185.5 c 128,-1,40
 20 249 20 249 20 326 c 0,41,42
 20 492 20 492 99 586 c 128,-1,43
 178 680 178 680 335 680 c 0,28,29
512 835 m 1,44,45
 535 807 535 807 535 775 c 0,46,47
 535 738 535 738 508.5 724.5 c 128,-1,48
 482 711 482 711 435 711 c 0,49,50
 408 711 408 711 330.5 721 c 128,-1,51
 253 731 253 731 224 731 c 0,52,53
 180 731 180 731 160 711 c 1,54,55
 137 739 137 739 137 771 c 0,56,57
 137 808 137 808 163.5 821.5 c 128,-1,58
 190 835 190 835 237 835 c 0,59,60
 264 835 264 835 342 825 c 128,-1,61
 420 815 420 815 448 815 c 0,62,63
 492 815 492 815 512 835 c 1,44,45
EndSplineSet
Validated: 8388609
Position2: "'cpsp' Capital Spacing lookup 3 subtable" dx=5 dy=0 dh=10 dv=0
EndChar

StartChar: OE
Encoding: 338 338 99
Width: 807
Flags: MW
HStem: -22 74<295 359> 0 84<615 800> 297 84<615 763 615 763> 576 84<615 793 615 615> 606 74<295 360 228 375>
VStem: 20 230<276 390 276 434> 420 195<276 297 381 390>
LayerCount: 2
UndoRedoHistory
Layer: 0
Undoes
EndUndoes
Redoes
EndRedoes
EndUndoRedoHistory
UndoRedoHistory
Layer: 1
Undoes
EndUndoes
Redoes
EndRedoes
EndUndoRedoHistory
Fore
SplineSet
335 52 m 128,-1,1
 352 52 352 52 365 62 c 128,-1,2
 378 72 378 72 387 87.5 c 128,-1,3
 396 103 396 103 402 127 c 128,-1,4
 408 151 408 151 411.5 174 c 128,-1,5
 415 197 415 197 417 228 c 128,-1,6
 419 259 419 259 419.5 281.5 c 128,-1,7
 420 304 420 304 420 333 c 128,-1,8
 420 362 420 362 419.5 384.5 c 128,-1,9
 419 407 419 407 417 436.5 c 128,-1,10
 415 466 415 466 411.5 488.5 c 128,-1,11
 408 511 408 511 402 534 c 128,-1,12
 396 557 396 557 387 572 c 128,-1,13
 378 587 378 587 365 596.5 c 128,-1,14
 352 606 352 606 335 606 c 128,-1,15
 318 606 318 606 305 596.5 c 128,-1,16
 292 587 292 587 283 572 c 128,-1,17
 274 557 274 557 268 534 c 128,-1,18
 262 511 262 511 258.5 488.5 c 128,-1,19
 255 466 255 466 253 436.5 c 128,-1,20
 251 407 251 407 250.5 384.5 c 128,-1,21
 250 362 250 362 250 333 c 128,-1,22
 250 304 250 304 250.5 281.5 c 128,-1,23
 251 259 251 259 253 228 c 128,-1,24
 255 197 255 197 258.5 174 c 128,-1,25
 262 151 262 151 268 127 c 128,-1,26
 274 103 274 103 283 87.5 c 128,-1,27
 292 72 292 72 305 62 c 128,-1,0
 318 52 318 52 335 52 c 128,-1,1
800 0 m 1,28,-1
 462 0 l 1,29,30
 404 -22 404 -22 335 -22 c 0,31,32
 259 -22 259 -22 199.5 3.5 c 128,-1,33
 140 29 140 29 100.5 75.5 c 128,-1,34
 61 122 61 122 40.5 185.5 c 128,-1,35
 20 249 20 249 20 326 c 0,36,37
 20 492 20 492 99 586 c 128,-1,38
 178 680 178 680 335 680 c 0,39,40
 409 680 409 680 467 660 c 1,41,-1
 793 660 l 1,42,-1
 793 576 l 1,43,-1
 615 576 l 1,44,-1
 615 381 l 1,45,-1
 763 381 l 1,46,-1
 763 297 l 1,47,-1
 615 297 l 1,48,-1
 615 84 l 1,49,-1
 808 84 l 1,50,-1
 800 0 l 1,28,-1
EndSplineSet
Validated: 8388609
Position2: "'cpsp' Capital Spacing lookup 3 subtable" dx=5 dy=0 dh=10 dv=0
EndChar

StartChar: P
Encoding: 80 80 100
Width: 617
Flags: MW
HStem: 263 74<292 462> 591 74<299 341>
VStem: 50 214<0 585 0 651 0 651> 394 210<421 498>
LayerCount: 2
UndoRedoHistory
Layer: 0
Undoes
EndUndoes
Redoes
EndRedoes
EndUndoRedoHistory
UndoRedoHistory
Layer: 1
Undoes
EndUndoes
Redoes
EndRedoes
EndUndoRedoHistory
Fore
SplineSet
50 651 m 1,0,1
 195 665 195 665 305 665 c 0,2,3
 357 665 357 665 399 660 c 128,-1,4
 441 655 441 655 480.5 641 c 128,-1,5
 520 627 520 627 546 605 c 128,-1,6
 572 583 572 583 588 547.5 c 128,-1,7
 604 512 604 512 604 465 c 0,8,9
 604 374 604 374 548 318.5 c 128,-1,10
 492 263 492 263 401 263 c 0,11,12
 292 263 292 263 292 337 c 1,13,14
 350 337 350 337 372 367 c 128,-1,15
 394 397 394 397 394 462 c 0,16,17
 394 490 394 490 390 512 c 128,-1,18
 386 534 386 534 376.5 552.5 c 128,-1,19
 367 571 367 571 349.5 581 c 128,-1,20
 332 591 332 591 306 591 c 0,21,22
 284 591 284 591 264 585 c 1,23,-1
 264 0 l 1,24,-1
 50 0 l 1,25,-1
 50 651 l 1,0,1
EndSplineSet
Validated: 1
Position2: "'cpsp' Capital Spacing lookup 3 subtable" dx=5 dy=0 dh=10 dv=0
EndChar

StartChar: Thorn
Encoding: 222 222 101
Width: 617
Flags: MW
HStem: 135 74<292 462> 463 74<299 307 307 341> 640 20G<50 264 264 264>
VStem: 50 214<0 457 537 660 0 660 0 660> 394 210<293 369>
LayerCount: 2
UndoRedoHistory
Layer: 0
Undoes
EndUndoes
Redoes
EndRedoes
EndUndoRedoHistory
UndoRedoHistory
Layer: 1
Undoes
EndUndoes
Redoes
EndRedoes
EndUndoRedoHistory
Fore
SplineSet
264 537 m 1,0,-1
 307 537 l 2,1,2
 359 537 359 537 400.5 532 c 128,-1,3
 442 527 442 527 481.5 513 c 128,-1,4
 521 499 521 499 547 477 c 128,-1,5
 573 455 573 455 588.5 419.5 c 128,-1,6
 604 384 604 384 604 337 c 0,7,8
 604 246 604 246 548 190.5 c 128,-1,9
 492 135 492 135 401 135 c 0,10,11
 353 135 353 135 322.5 152.5 c 128,-1,12
 292 170 292 170 292 209 c 1,13,14
 349 209 349 209 371.5 239.5 c 128,-1,15
 394 270 394 270 394 334 c 0,16,17
 394 463 394 463 306 463 c 0,18,19
 284 463 284 463 264 457 c 1,20,-1
 264 0 l 1,21,-1
 50 0 l 1,22,-1
 50 660 l 1,23,-1
 264 660 l 1,24,-1
 264 537 l 1,0,-1
EndSplineSet
Validated: 1
Position2: "'cpsp' Capital Spacing lookup 3 subtable" dx=5 dy=0 dh=10 dv=0
EndChar

StartChar: Q
Encoding: 81 81 102
Width: 669
Flags: MW
HStem: -189 139<493 538 493 576> -104 104<208 208> -38 20G -22 74<336 336> 606 74<295 375>
VStem: 20 230<276 390 276 434> 420 230<276 390>
LayerCount: 2
UndoRedoHistory
Layer: 0
Undoes
EndUndoes
Redoes
EndRedoes
EndUndoRedoHistory
UndoRedoHistory
Layer: 1
Undoes
EndUndoes
Redoes
EndRedoes
EndUndoRedoHistory
Fore
SplineSet
335 606 m 128,-1,1
 318 606 318 606 305 596.5 c 128,-1,2
 292 587 292 587 283 572 c 128,-1,3
 274 557 274 557 268 534 c 128,-1,4
 262 511 262 511 258.5 488.5 c 128,-1,5
 255 466 255 466 253 436.5 c 128,-1,6
 251 407 251 407 250.5 384.5 c 128,-1,7
 250 362 250 362 250 333 c 128,-1,8
 250 304 250 304 250.5 281.5 c 128,-1,9
 251 259 251 259 253 228 c 128,-1,10
 255 197 255 197 258.5 174 c 128,-1,11
 262 151 262 151 268 127 c 128,-1,12
 274 103 274 103 283 87.5 c 128,-1,13
 292 72 292 72 305 62 c 128,-1,14
 318 52 318 52 335 52 c 128,-1,15
 352 52 352 52 365 62 c 128,-1,16
 378 72 378 72 387 87.5 c 128,-1,17
 396 103 396 103 402 127 c 128,-1,18
 408 151 408 151 411.5 174 c 128,-1,19
 415 197 415 197 417 228 c 128,-1,20
 419 259 419 259 419.5 281.5 c 128,-1,21
 420 304 420 304 420 333 c 128,-1,22
 420 362 420 362 419.5 384.5 c 128,-1,23
 419 407 419 407 417 436.5 c 128,-1,24
 415 466 415 466 411.5 488.5 c 128,-1,25
 408 511 408 511 402 534 c 128,-1,26
 396 557 396 557 387 572 c 128,-1,27
 378 587 378 587 365 596.5 c 128,-1,0
 352 606 352 606 335 606 c 128,-1,1
335 680 m 0,28,29
 494 680 494 680 572 591.5 c 128,-1,30
 650 503 650 503 650 339 c 0,31,32
 650 236 650 236 607.5 153 c 128,-1,33
 565 70 565 70 493.5 24.5 c 128,-1,34
 422 -21 422 -21 336 -22 c 1,35,36
 448 -50 448 -50 520 -50 c 0,37,38
 552 -50 552 -50 574.5 -43.5 c 128,-1,39
 597 -37 597 -37 617 -18 c 1,40,41
 644 -64 644 -64 644 -100 c 0,42,43
 644 -189 644 -189 548 -189 c 0,44,45
 510 -189 510 -189 463 -176 c 128,-1,46
 416 -163 416 -163 378.5 -146.5 c 128,-1,47
 341 -130 341 -130 294 -117 c 128,-1,48
 247 -104 247 -104 208 -104 c 0,49,50
 152 -104 152 -104 127 -117 c 1,51,52
 106 -93 106 -93 106 -65 c 0,53,54
 106 -49 106 -49 111.5 -37 c 128,-1,55
 117 -25 117 -25 125.5 -18.5 c 128,-1,56
 134 -12 134 -12 148 -7.5 c 128,-1,57
 162 -3 162 -3 175.5 -1.5 c 128,-1,58
 189 0 189 0 208 0 c 1,59,60
 117 36 117 36 68.5 121 c 128,-1,61
 20 206 20 206 20 326 c 0,62,63
 20 492 20 492 99 586 c 128,-1,64
 178 680 178 680 335 680 c 0,28,29
EndSplineSet
Validated: 8388609
Position2: "'cpsp' Capital Spacing lookup 3 subtable" dx=5 dy=0 dh=10 dv=0
EndChar

StartChar: R
Encoding: 82 82 103
Width: 621
Flags: MW
HStem: 591 74<299 338>
VStem: 50 214<0 585 0 651 0 651> 383 211<424 495>
LayerCount: 2
UndoRedoHistory
Layer: 0
Undoes
EndUndoes
Redoes
EndRedoes
EndUndoRedoHistory
UndoRedoHistory
Layer: 1
Undoes
EndUndoes
Redoes
EndRedoes
EndUndoRedoHistory
Fore
SplineSet
50 651 m 1,0,1
 195 665 195 665 305 665 c 0,2,3
 357 665 357 665 398 660 c 128,-1,4
 439 655 439 655 477 641.5 c 128,-1,5
 515 628 515 628 540 606 c 128,-1,6
 565 584 565 584 579.5 548.5 c 128,-1,7
 594 513 594 513 594 465 c 0,8,9
 594 398 594 398 563 349.5 c 128,-1,10
 532 301 532 301 478 279 c 1,11,-1
 636 0 l 1,12,-1
 417 0 l 1,13,-1
 301 298 l 2,14,15
 292 322 292 322 292 337 c 1,16,17
 345 337 345 337 364 368 c 128,-1,18
 383 399 383 399 383 462 c 0,19,20
 383 489 383 489 380 510 c 128,-1,21
 377 531 377 531 369 550.5 c 128,-1,22
 361 570 361 570 345.5 580.5 c 128,-1,23
 330 591 330 591 306 591 c 0,24,25
 284 591 284 591 264 585 c 1,26,-1
 264 0 l 1,27,-1
 50 0 l 1,28,-1
 50 651 l 1,0,1
EndSplineSet
Validated: 1
Position2: "'cpsp' Capital Spacing lookup 3 subtable" dx=5 dy=0 dh=10 dv=0
EndChar

StartChar: Racute
Encoding: 340 340 104
Width: 621
Flags: MW
HStem: 591 74<299 338>
VStem: 50 214<0 585 0 651 0 651> 383 211<424 495>
LayerCount: 2
UndoRedoHistory
Layer: 0
Undoes
EndUndoes
Redoes
EndRedoes
EndUndoRedoHistory
UndoRedoHistory
Layer: 1
Undoes
EndUndoes
Redoes
EndRedoes
EndUndoRedoHistory
Fore
SplineSet
50 651 m 1,0,1
 195 665 195 665 305 665 c 0,2,3
 357 665 357 665 398 660 c 128,-1,4
 439 655 439 655 477 641.5 c 128,-1,5
 515 628 515 628 540 606 c 128,-1,6
 565 584 565 584 579.5 548.5 c 128,-1,7
 594 513 594 513 594 465 c 0,8,9
 594 398 594 398 563 349.5 c 128,-1,10
 532 301 532 301 478 279 c 1,11,-1
 636 0 l 1,12,-1
 417 0 l 1,13,-1
 301 298 l 2,14,15
 292 322 292 322 292 337 c 1,16,17
 345 337 345 337 364 368 c 128,-1,18
 383 399 383 399 383 462 c 0,19,20
 383 489 383 489 380 510 c 128,-1,21
 377 531 377 531 369 550.5 c 128,-1,22
 361 570 361 570 345.5 580.5 c 128,-1,23
 330 591 330 591 306 591 c 0,24,25
 284 591 284 591 264 585 c 1,26,-1
 264 0 l 1,27,-1
 50 0 l 1,28,-1
 50 651 l 1,0,1
447 862 m 1,29,30
 464 848 464 848 474.5 828 c 128,-1,31
 485 808 485 808 485 788 c 0,32,33
 485 775 485 775 480.5 765 c 128,-1,34
 476 755 476 755 470 748.5 c 128,-1,35
 464 742 464 742 451.5 736.5 c 128,-1,36
 439 731 439 731 431 728.5 c 128,-1,37
 423 726 423 726 406.5 724 c 128,-1,38
 390 722 390 722 382.5 721.5 c 128,-1,39
 375 721 375 721 358 719 c 2,40,-1
 212 709 l 1,41,-1
 200 760 l 1,42,-1
 447 862 l 1,29,30
EndSplineSet
Validated: 1
Position2: "'cpsp' Capital Spacing lookup 3 subtable" dx=5 dy=0 dh=10 dv=0
EndChar

StartChar: Rcaron
Encoding: 344 344 105
Width: 621
Flags: MW
HStem: 591 74<299 338>
VStem: 50 214<0 585 0 651 0 651> 383 211<424 495>
LayerCount: 2
UndoRedoHistory
Layer: 0
Undoes
EndUndoes
Redoes
EndRedoes
EndUndoRedoHistory
UndoRedoHistory
Layer: 1
Undoes
EndUndoes
Redoes
EndRedoes
EndUndoRedoHistory
Fore
SplineSet
50 651 m 1,0,1
 195 665 195 665 305 665 c 0,2,3
 357 665 357 665 398 660 c 128,-1,4
 439 655 439 655 477 641.5 c 128,-1,5
 515 628 515 628 540 606 c 128,-1,6
 565 584 565 584 579.5 548.5 c 128,-1,7
 594 513 594 513 594 465 c 0,8,9
 594 398 594 398 563 349.5 c 128,-1,10
 532 301 532 301 478 279 c 1,11,-1
 636 0 l 1,12,-1
 417 0 l 1,13,-1
 301 298 l 2,14,15
 292 322 292 322 292 337 c 1,16,17
 345 337 345 337 364 368 c 128,-1,18
 383 399 383 399 383 462 c 0,19,20
 383 489 383 489 380 510 c 128,-1,21
 377 531 377 531 369 550.5 c 128,-1,22
 361 570 361 570 345.5 580.5 c 128,-1,23
 330 591 330 591 306 591 c 0,24,25
 284 591 284 591 264 585 c 1,26,-1
 264 0 l 1,27,-1
 50 0 l 1,28,-1
 50 651 l 1,0,1
478 811 m 1,29,-1
 337 695 l 1,30,-1
 273 695 l 1,31,-1
 128 811 l 1,32,-1
 168 857 l 1,33,-1
 303 805 l 1,34,-1
 439 857 l 1,35,-1
 478 811 l 1,29,-1
EndSplineSet
Validated: 1
Position2: "'cpsp' Capital Spacing lookup 3 subtable" dx=5 dy=0 dh=10 dv=0
EndChar

StartChar: Rcommaaccent
Encoding: 342 342 106
Width: 621
Flags: MW
HStem: -258 207<308 314> 591 74<299 338>
VStem: 50 214<0 585 0 651 0 651> 276 137<-165 -134> 383 211<424 495>
LayerCount: 2
UndoRedoHistory
Layer: 0
Undoes
EndUndoes
Redoes
EndRedoes
EndUndoRedoHistory
UndoRedoHistory
Layer: 1
Undoes
EndUndoes
Redoes
EndRedoes
EndUndoRedoHistory
Fore
SplineSet
319 -51 m 0,0,1
 368 -51 368 -51 390.5 -70.5 c 128,-1,2
 413 -90 413 -90 413 -132 c 0,3,4
 413 -182 413 -182 373 -220 c 128,-1,5
 333 -258 333 -258 275 -258 c 0,6,7
 272 -258 272 -258 235 -255 c 1,8,9
 276 -202 276 -202 276 -150 c 0,10,11
 276 -103 276 -103 253 -66 c 1,12,13
 262 -60 262 -60 281.5 -55.5 c 128,-1,14
 301 -51 301 -51 319 -51 c 0,0,1
50 651 m 1,15,16
 195 665 195 665 305 665 c 0,17,18
 357 665 357 665 398 660 c 128,-1,19
 439 655 439 655 477 641.5 c 128,-1,20
 515 628 515 628 540 606 c 128,-1,21
 565 584 565 584 579.5 548.5 c 128,-1,22
 594 513 594 513 594 465 c 0,23,24
 594 398 594 398 563 349.5 c 128,-1,25
 532 301 532 301 478 279 c 1,26,-1
 636 0 l 1,27,-1
 417 0 l 1,28,-1
 301 298 l 2,29,30
 292 322 292 322 292 337 c 1,31,32
 345 337 345 337 364 368 c 128,-1,33
 383 399 383 399 383 462 c 0,34,35
 383 489 383 489 380 510 c 128,-1,36
 377 531 377 531 369 550.5 c 128,-1,37
 361 570 361 570 345.5 580.5 c 128,-1,38
 330 591 330 591 306 591 c 0,39,40
 284 591 284 591 264 585 c 1,41,-1
 264 0 l 1,42,-1
 50 0 l 1,43,-1
 50 651 l 1,15,16
EndSplineSet
Validated: 8388609
Position2: "'cpsp' Capital Spacing lookup 3 subtable" dx=5 dy=0 dh=10 dv=0
EndChar

StartChar: Rdotbelow
Encoding: 7770 7770 107
Width: 621
Flags: MW
HStem: -201 160<312 371> 591 74<299 338>
VStem: 50 214<0 585 0 651 0 651> 232 217<-147 -97> 383 211<424 495>
LayerCount: 2
UndoRedoHistory
Layer: 0
Undoes
EndUndoes
Redoes
EndRedoes
EndUndoRedoHistory
UndoRedoHistory
Layer: 1
Undoes
EndUndoes
Redoes
EndRedoes
EndUndoRedoHistory
Fore
SplineSet
343 -41 m 0,0,1
 391 -41 391 -41 420 -62 c 128,-1,2
 449 -83 449 -83 449 -121 c 0,3,4
 449 -160 449 -160 418.5 -180.5 c 128,-1,5
 388 -201 388 -201 339 -201 c 0,6,7
 291 -201 291 -201 261.5 -180.5 c 128,-1,8
 232 -160 232 -160 232 -123 c 0,9,10
 232 -84 232 -84 263.5 -62.5 c 128,-1,11
 295 -41 295 -41 343 -41 c 0,0,1
50 651 m 1,12,13
 195 665 195 665 305 665 c 0,14,15
 357 665 357 665 398 660 c 128,-1,16
 439 655 439 655 477 641.5 c 128,-1,17
 515 628 515 628 540 606 c 128,-1,18
 565 584 565 584 579.5 548.5 c 128,-1,19
 594 513 594 513 594 465 c 0,20,21
 594 398 594 398 563 349.5 c 128,-1,22
 532 301 532 301 478 279 c 1,23,-1
 636 0 l 1,24,-1
 417 0 l 1,25,-1
 301 298 l 2,26,27
 292 322 292 322 292 337 c 1,28,29
 345 337 345 337 364 368 c 128,-1,30
 383 399 383 399 383 462 c 0,31,32
 383 489 383 489 380 510 c 128,-1,33
 377 531 377 531 369 550.5 c 128,-1,34
 361 570 361 570 345.5 580.5 c 128,-1,35
 330 591 330 591 306 591 c 0,36,37
 284 591 284 591 264 585 c 1,38,-1
 264 0 l 1,39,-1
 50 0 l 1,40,-1
 50 651 l 1,12,13
EndSplineSet
Validated: 8388609
Position2: "'cpsp' Capital Spacing lookup 3 subtable" dx=5 dy=0 dh=10 dv=0
EndChar

StartChar: S
Encoding: 83 83 108
Width: 554
Flags: MW
HStem: -22 74<234 291 234 329> 606 74<262 307>
VStem: 14 171<133 149> 29 188<459 544> 346 189<114 210> 349 171<519 548>
LayerCount: 2
UndoRedoHistory
Layer: 0
Undoes
EndUndoes
Redoes
EndRedoes
EndUndoRedoHistory
UndoRedoHistory
Layer: 1
Undoes
EndUndoes
Redoes
EndRedoes
EndUndoRedoHistory
Fore
SplineSet
296 680 m 0,0,1
 327 680 327 680 356.5 676.5 c 128,-1,2
 386 673 386 673 416.5 664 c 128,-1,3
 447 655 447 655 469.5 641 c 128,-1,4
 492 627 492 627 506 605 c 128,-1,5
 520 583 520 583 520 555 c 0,6,7
 520 504 520 504 485 478 c 128,-1,8
 450 452 450 452 395 452 c 0,9,10
 365 452 365 452 343 459 c 1,11,12
 349 495 349 495 349 524 c 0,13,14
 349 606 349 606 282 606 c 0,15,16
 252 606 252 606 234.5 588.5 c 128,-1,17
 217 571 217 571 217 541 c 0,18,19
 217 508 217 508 234.5 482 c 128,-1,20
 252 456 252 456 280 438.5 c 128,-1,21
 308 421 308 421 342 405 c 128,-1,22
 376 389 376 389 410 370.5 c 128,-1,23
 444 352 444 352 472 329.5 c 128,-1,24
 500 307 500 307 517.5 272 c 128,-1,25
 535 237 535 237 535 192 c 0,26,27
 535 147 535 147 520 110.5 c 128,-1,28
 505 74 505 74 479.5 49.5 c 128,-1,29
 454 25 454 25 418 9 c 128,-1,30
 382 -7 382 -7 340.5 -14.5 c 128,-1,31
 299 -22 299 -22 252 -22 c 0,32,33
 218 -22 218 -22 186 -18.5 c 128,-1,34
 154 -15 154 -15 122 -5.5 c 128,-1,35
 90 4 90 4 66.5 19 c 128,-1,36
 43 34 43 34 28.5 58 c 128,-1,37
 14 82 14 82 14 113 c 0,38,39
 14 165 14 165 49.5 195.5 c 128,-1,40
 85 226 85 226 139 226 c 0,41,42
 171 226 171 226 191 220 c 1,43,44
 185 190 185 190 185 165 c 0,45,46
 185 112 185 112 203 82 c 128,-1,47
 221 52 221 52 266 52 c 0,48,49
 303 52 303 52 324.5 72 c 128,-1,50
 346 92 346 92 346 128 c 0,51,52
 346 161 346 161 328.5 187 c 128,-1,53
 311 213 311 213 283 230.5 c 128,-1,54
 255 248 255 248 221.5 264 c 128,-1,55
 188 280 188 280 154 298.5 c 128,-1,56
 120 317 120 317 92 339.5 c 128,-1,57
 64 362 64 362 46.5 397 c 128,-1,58
 29 432 29 432 29 477 c 0,59,60
 29 516 29 516 44 549.5 c 128,-1,61
 59 583 59 583 84.5 606.5 c 128,-1,62
 110 630 110 630 144 647 c 128,-1,63
 178 664 178 664 216.5 672 c 128,-1,64
 255 680 255 680 296 680 c 0,0,1
EndSplineSet
Validated: 8388609
Position2: "'cpsp' Capital Spacing lookup 3 subtable" dx=5 dy=0 dh=10 dv=0
EndChar

StartChar: Sacute
Encoding: 346 346 109
Width: 554
Flags: MW
HStem: -22 74<234 291 234 329> 606 74<262 307>
VStem: 14 171<133 149> 29 188<459 544> 346 189<114 210> 349 171<519 548>
LayerCount: 2
UndoRedoHistory
Layer: 0
Undoes
EndUndoes
Redoes
EndRedoes
EndUndoRedoHistory
UndoRedoHistory
Layer: 1
Undoes
EndUndoes
Redoes
EndRedoes
EndUndoRedoHistory
Fore
SplineSet
296 680 m 0,0,1
 327 680 327 680 356.5 676.5 c 128,-1,2
 386 673 386 673 416.5 664 c 128,-1,3
 447 655 447 655 469.5 641 c 128,-1,4
 492 627 492 627 506 605 c 128,-1,5
 520 583 520 583 520 555 c 0,6,7
 520 504 520 504 485 478 c 128,-1,8
 450 452 450 452 395 452 c 0,9,10
 365 452 365 452 343 459 c 1,11,12
 349 495 349 495 349 524 c 0,13,14
 349 606 349 606 282 606 c 0,15,16
 252 606 252 606 234.5 588.5 c 128,-1,17
 217 571 217 571 217 541 c 0,18,19
 217 508 217 508 234.5 482 c 128,-1,20
 252 456 252 456 280 438.5 c 128,-1,21
 308 421 308 421 342 405 c 128,-1,22
 376 389 376 389 410 370.5 c 128,-1,23
 444 352 444 352 472 329.5 c 128,-1,24
 500 307 500 307 517.5 272 c 128,-1,25
 535 237 535 237 535 192 c 0,26,27
 535 147 535 147 520 110.5 c 128,-1,28
 505 74 505 74 479.5 49.5 c 128,-1,29
 454 25 454 25 418 9 c 128,-1,30
 382 -7 382 -7 340.5 -14.5 c 128,-1,31
 299 -22 299 -22 252 -22 c 0,32,33
 218 -22 218 -22 186 -18.5 c 128,-1,34
 154 -15 154 -15 122 -5.5 c 128,-1,35
 90 4 90 4 66.5 19 c 128,-1,36
 43 34 43 34 28.5 58 c 128,-1,37
 14 82 14 82 14 113 c 0,38,39
 14 165 14 165 49.5 195.5 c 128,-1,40
 85 226 85 226 139 226 c 0,41,42
 171 226 171 226 191 220 c 1,43,44
 185 190 185 190 185 165 c 0,45,46
 185 112 185 112 203 82 c 128,-1,47
 221 52 221 52 266 52 c 0,48,49
 303 52 303 52 324.5 72 c 128,-1,50
 346 92 346 92 346 128 c 0,51,52
 346 161 346 161 328.5 187 c 128,-1,53
 311 213 311 213 283 230.5 c 128,-1,54
 255 248 255 248 221.5 264 c 128,-1,55
 188 280 188 280 154 298.5 c 128,-1,56
 120 317 120 317 92 339.5 c 128,-1,57
 64 362 64 362 46.5 397 c 128,-1,58
 29 432 29 432 29 477 c 0,59,60
 29 516 29 516 44 549.5 c 128,-1,61
 59 583 59 583 84.5 606.5 c 128,-1,62
 110 630 110 630 144 647 c 128,-1,63
 178 664 178 664 216.5 672 c 128,-1,64
 255 680 255 680 296 680 c 0,0,1
423 862 m 1,65,66
 440 848 440 848 450.5 828 c 128,-1,67
 461 808 461 808 461 788 c 0,68,69
 461 775 461 775 456.5 765 c 128,-1,70
 452 755 452 755 446 748.5 c 128,-1,71
 440 742 440 742 428 736.5 c 128,-1,72
 416 731 416 731 407.5 728.5 c 128,-1,73
 399 726 399 726 382.5 724 c 128,-1,74
 366 722 366 722 359 721.5 c 128,-1,75
 352 721 352 721 334 719 c 2,76,-1
 188 709 l 1,77,-1
 176 760 l 1,78,-1
 423 862 l 1,65,66
EndSplineSet
Validated: 8388609
Substitution2: "'locl' Localized Forms in Latin lookup 13 subtable" Sacute.loclPLK
Substitution2: "'aalt' Access All Alternates lookup 0 subtable" Sacute.loclPLK
Position2: "'cpsp' Capital Spacing lookup 3 subtable" dx=5 dy=0 dh=10 dv=0
EndChar

StartChar: Scaron
Encoding: 352 352 110
Width: 554
Flags: MW
HStem: -22 74<234 291 234 329> 606 74<262 307>
VStem: 14 171<133 149> 29 188<459 544> 346 189<114 210> 349 171<519 548>
LayerCount: 2
UndoRedoHistory
Layer: 0
Undoes
EndUndoes
Redoes
EndRedoes
EndUndoRedoHistory
UndoRedoHistory
Layer: 1
Undoes
EndUndoes
Redoes
EndRedoes
EndUndoRedoHistory
Fore
SplineSet
296 680 m 0,0,1
 327 680 327 680 356.5 676.5 c 128,-1,2
 386 673 386 673 416.5 664 c 128,-1,3
 447 655 447 655 469.5 641 c 128,-1,4
 492 627 492 627 506 605 c 128,-1,5
 520 583 520 583 520 555 c 0,6,7
 520 504 520 504 485 478 c 128,-1,8
 450 452 450 452 395 452 c 0,9,10
 365 452 365 452 343 459 c 1,11,12
 349 495 349 495 349 524 c 0,13,14
 349 606 349 606 282 606 c 0,15,16
 252 606 252 606 234.5 588.5 c 128,-1,17
 217 571 217 571 217 541 c 0,18,19
 217 508 217 508 234.5 482 c 128,-1,20
 252 456 252 456 280 438.5 c 128,-1,21
 308 421 308 421 342 405 c 128,-1,22
 376 389 376 389 410 370.5 c 128,-1,23
 444 352 444 352 472 329.5 c 128,-1,24
 500 307 500 307 517.5 272 c 128,-1,25
 535 237 535 237 535 192 c 0,26,27
 535 147 535 147 520 110.5 c 128,-1,28
 505 74 505 74 479.5 49.5 c 128,-1,29
 454 25 454 25 418 9 c 128,-1,30
 382 -7 382 -7 340.5 -14.5 c 128,-1,31
 299 -22 299 -22 252 -22 c 0,32,33
 218 -22 218 -22 186 -18.5 c 128,-1,34
 154 -15 154 -15 122 -5.5 c 128,-1,35
 90 4 90 4 66.5 19 c 128,-1,36
 43 34 43 34 28.5 58 c 128,-1,37
 14 82 14 82 14 113 c 0,38,39
 14 165 14 165 49.5 195.5 c 128,-1,40
 85 226 85 226 139 226 c 0,41,42
 171 226 171 226 191 220 c 1,43,44
 185 190 185 190 185 165 c 0,45,46
 185 112 185 112 203 82 c 128,-1,47
 221 52 221 52 266 52 c 0,48,49
 303 52 303 52 324.5 72 c 128,-1,50
 346 92 346 92 346 128 c 0,51,52
 346 161 346 161 328.5 187 c 128,-1,53
 311 213 311 213 283 230.5 c 128,-1,54
 255 248 255 248 221.5 264 c 128,-1,55
 188 280 188 280 154 298.5 c 128,-1,56
 120 317 120 317 92 339.5 c 128,-1,57
 64 362 64 362 46.5 397 c 128,-1,58
 29 432 29 432 29 477 c 0,59,60
 29 516 29 516 44 549.5 c 128,-1,61
 59 583 59 583 84.5 606.5 c 128,-1,62
 110 630 110 630 144 647 c 128,-1,63
 178 664 178 664 216.5 672 c 128,-1,64
 255 680 255 680 296 680 c 0,0,1
455 811 m 1,65,-1
 314 695 l 1,66,-1
 250 695 l 1,67,-1
 105 811 l 1,68,-1
 145 857 l 1,69,-1
 280 805 l 1,70,-1
 416 857 l 1,71,-1
 455 811 l 1,65,-1
EndSplineSet
Validated: 8388609
Position2: "'cpsp' Capital Spacing lookup 3 subtable" dx=5 dy=0 dh=10 dv=0
EndChar

StartChar: Scedilla
Encoding: 350 350 111
Width: 554
Flags: MW
HStem: -258 68<218 232 202 273> -110 53<188 294> -22 74<249 252 249 249> 606 74<262 307>
VStem: 14 171<133 149> 29 188<459 544> 262 122<-163 -133> 346 189<114 210> 349 171<519 548>
LayerCount: 2
UndoRedoHistory
Layer: 0
Undoes
EndUndoes
Redoes
EndRedoes
EndUndoRedoHistory
UndoRedoHistory
Layer: 1
Undoes
EndUndoes
Redoes
EndRedoes
EndUndoRedoHistory
Fore
SplineSet
189 -19 m 1,0,1
 153 -15 153 -15 123.5 -6 c 128,-1,2
 94 3 94 3 68.5 18 c 128,-1,3
 43 33 43 33 28.5 57.5 c 128,-1,4
 14 82 14 82 14 113 c 0,5,6
 14 165 14 165 49.5 195.5 c 128,-1,7
 85 226 85 226 139 226 c 0,8,9
 171 226 171 226 191 220 c 1,10,11
 185 190 185 190 185 165 c 0,12,13
 185 112 185 112 203 82 c 128,-1,14
 221 52 221 52 266 52 c 0,15,16
 303 52 303 52 324.5 72 c 128,-1,17
 346 92 346 92 346 128 c 0,18,19
 346 161 346 161 328.5 187 c 128,-1,20
 311 213 311 213 283 230.5 c 128,-1,21
 255 248 255 248 221.5 264 c 128,-1,22
 188 280 188 280 154 298.5 c 128,-1,23
 120 317 120 317 92 339.5 c 128,-1,24
 64 362 64 362 46.5 397 c 128,-1,25
 29 432 29 432 29 477 c 0,26,27
 29 516 29 516 44 549.5 c 128,-1,28
 59 583 59 583 84.5 606.5 c 128,-1,29
 110 630 110 630 144 647 c 128,-1,30
 178 664 178 664 216.5 672 c 128,-1,31
 255 680 255 680 296 680 c 0,32,33
 327 680 327 680 356.5 676.5 c 128,-1,34
 386 673 386 673 416.5 664 c 128,-1,35
 447 655 447 655 469.5 641 c 128,-1,36
 492 627 492 627 506 605 c 128,-1,37
 520 583 520 583 520 555 c 0,38,39
 520 504 520 504 485 478 c 128,-1,40
 450 452 450 452 395 452 c 0,41,42
 365 452 365 452 343 459 c 1,43,44
 349 495 349 495 349 524 c 0,45,46
 349 606 349 606 282 606 c 0,47,48
 252 606 252 606 234.5 588.5 c 128,-1,49
 217 571 217 571 217 541 c 0,50,51
 217 508 217 508 234.5 482 c 128,-1,52
 252 456 252 456 280 438.5 c 128,-1,53
 308 421 308 421 342 405 c 128,-1,54
 376 389 376 389 410 370.5 c 128,-1,55
 444 352 444 352 472 329.5 c 128,-1,56
 500 307 500 307 517.5 272 c 128,-1,57
 535 237 535 237 535 192 c 0,58,59
 535 147 535 147 520 110.5 c 128,-1,60
 505 74 505 74 479.5 49.5 c 128,-1,61
 454 25 454 25 418 9 c 128,-1,62
 382 -7 382 -7 340.5 -14.5 c 128,-1,63
 299 -22 299 -22 252 -22 c 2,64,-1
 249 -22 l 1,65,-1
 234 -58 l 1,66,67
 238 -58 238 -58 247 -57.5 c 128,-1,68
 256 -57 256 -57 259 -57 c 0,69,70
 316 -57 316 -57 350 -80.5 c 128,-1,71
 384 -104 384 -104 384 -154 c 0,72,73
 384 -188 384 -188 361.5 -212 c 128,-1,74
 339 -236 339 -236 307 -247 c 128,-1,75
 275 -258 275 -258 238 -258 c 0,76,77
 220 -258 220 -258 203.5 -255 c 128,-1,78
 187 -252 187 -252 169.5 -246 c 128,-1,79
 152 -240 152 -240 141.5 -227.5 c 128,-1,80
 131 -215 131 -215 131 -197 c 0,81,82
 131 -173 131 -173 143 -157 c 1,83,84
 169 -190 169 -190 222 -190 c 0,85,86
 238 -190 238 -190 250 -178.5 c 128,-1,87
 262 -167 262 -167 262 -151 c 0,88,89
 262 -110 262 -110 195 -110 c 0,90,91
 181 -110 181 -110 155 -112 c 1,92,-1
 189 -19 l 1,0,1
EndSplineSet
Validated: 8388609
Substitution2: "'locl' Localized Forms in Latin lookup 12 subtable" Scommaaccent
Substitution2: "'locl' Localized Forms in Latin lookup 11 subtable" Scommaaccent
Substitution2: "'aalt' Access All Alternates lookup 0 subtable" Scommaaccent
Position2: "'cpsp' Capital Spacing lookup 3 subtable" dx=5 dy=0 dh=10 dv=0
EndChar

StartChar: Scircumflex
Encoding: 348 348 112
Width: 554
Flags: MW
HStem: -22 74<234 291 234 329> 606 74<262 307>
VStem: 14 171<133 149> 29 188<459 544> 346 189<114 210> 349 171<519 548>
LayerCount: 2
UndoRedoHistory
Layer: 0
Undoes
EndUndoes
Redoes
EndRedoes
EndUndoRedoHistory
UndoRedoHistory
Layer: 1
Undoes
EndUndoes
Redoes
EndRedoes
EndUndoRedoHistory
Fore
SplineSet
296 680 m 0,0,1
 327 680 327 680 356.5 676.5 c 128,-1,2
 386 673 386 673 416.5 664 c 128,-1,3
 447 655 447 655 469.5 641 c 128,-1,4
 492 627 492 627 506 605 c 128,-1,5
 520 583 520 583 520 555 c 0,6,7
 520 504 520 504 485 478 c 128,-1,8
 450 452 450 452 395 452 c 0,9,10
 365 452 365 452 343 459 c 1,11,12
 349 495 349 495 349 524 c 0,13,14
 349 606 349 606 282 606 c 0,15,16
 252 606 252 606 234.5 588.5 c 128,-1,17
 217 571 217 571 217 541 c 0,18,19
 217 508 217 508 234.5 482 c 128,-1,20
 252 456 252 456 280 438.5 c 128,-1,21
 308 421 308 421 342 405 c 128,-1,22
 376 389 376 389 410 370.5 c 128,-1,23
 444 352 444 352 472 329.5 c 128,-1,24
 500 307 500 307 517.5 272 c 128,-1,25
 535 237 535 237 535 192 c 0,26,27
 535 147 535 147 520 110.5 c 128,-1,28
 505 74 505 74 479.5 49.5 c 128,-1,29
 454 25 454 25 418 9 c 128,-1,30
 382 -7 382 -7 340.5 -14.5 c 128,-1,31
 299 -22 299 -22 252 -22 c 0,32,33
 218 -22 218 -22 186 -18.5 c 128,-1,34
 154 -15 154 -15 122 -5.5 c 128,-1,35
 90 4 90 4 66.5 19 c 128,-1,36
 43 34 43 34 28.5 58 c 128,-1,37
 14 82 14 82 14 113 c 0,38,39
 14 165 14 165 49.5 195.5 c 128,-1,40
 85 226 85 226 139 226 c 0,41,42
 171 226 171 226 191 220 c 1,43,44
 185 190 185 190 185 165 c 0,45,46
 185 112 185 112 203 82 c 128,-1,47
 221 52 221 52 266 52 c 0,48,49
 303 52 303 52 324.5 72 c 128,-1,50
 346 92 346 92 346 128 c 0,51,52
 346 161 346 161 328.5 187 c 128,-1,53
 311 213 311 213 283 230.5 c 128,-1,54
 255 248 255 248 221.5 264 c 128,-1,55
 188 280 188 280 154 298.5 c 128,-1,56
 120 317 120 317 92 339.5 c 128,-1,57
 64 362 64 362 46.5 397 c 128,-1,58
 29 432 29 432 29 477 c 0,59,60
 29 516 29 516 44 549.5 c 128,-1,61
 59 583 59 583 84.5 606.5 c 128,-1,62
 110 630 110 630 144 647 c 128,-1,63
 178 664 178 664 216.5 672 c 128,-1,64
 255 680 255 680 296 680 c 0,0,1
107 731 m 1,65,-1
 259 846 l 1,66,-1
 302 846 l 1,67,-1
 456 731 l 1,68,-1
 417 684 l 1,69,-1
 282 735 l 1,70,-1
 146 684 l 1,71,-1
 107 731 l 1,65,-1
EndSplineSet
Validated: 8388609
Position2: "'cpsp' Capital Spacing lookup 3 subtable" dx=5 dy=0 dh=10 dv=0
EndChar

StartChar: Scommaaccent
Encoding: 536 536 113
Width: 554
Flags: MW
HStem: -258 207<222 228> -22 74<234 291 234 329> 606 74<262 307>
VStem: 14 171<133 149> 29 188<459 544> 190 137<-165 -134> 346 189<114 210> 349 171<519 548>
LayerCount: 2
UndoRedoHistory
Layer: 0
Undoes
EndUndoes
Redoes
EndRedoes
EndUndoRedoHistory
UndoRedoHistory
Layer: 1
Undoes
EndUndoes
Redoes
EndRedoes
EndUndoRedoHistory
Fore
SplineSet
233 -51 m 0,0,1
 282 -51 282 -51 304.5 -70.5 c 128,-1,2
 327 -90 327 -90 327 -132 c 0,3,4
 327 -182 327 -182 287 -220 c 128,-1,5
 247 -258 247 -258 189 -258 c 0,6,7
 186 -258 186 -258 149 -255 c 1,8,9
 190 -202 190 -202 190 -150 c 0,10,11
 190 -103 190 -103 167 -66 c 1,12,13
 176 -60 176 -60 195.5 -55.5 c 128,-1,14
 215 -51 215 -51 233 -51 c 0,0,1
296 680 m 0,15,16
 327 680 327 680 356.5 676.5 c 128,-1,17
 386 673 386 673 416.5 664 c 128,-1,18
 447 655 447 655 469.5 641 c 128,-1,19
 492 627 492 627 506 605 c 128,-1,20
 520 583 520 583 520 555 c 0,21,22
 520 504 520 504 485 478 c 128,-1,23
 450 452 450 452 395 452 c 0,24,25
 365 452 365 452 343 459 c 1,26,27
 349 495 349 495 349 524 c 0,28,29
 349 606 349 606 282 606 c 0,30,31
 252 606 252 606 234.5 588.5 c 128,-1,32
 217 571 217 571 217 541 c 0,33,34
 217 508 217 508 234.5 482 c 128,-1,35
 252 456 252 456 280 438.5 c 128,-1,36
 308 421 308 421 342 405 c 128,-1,37
 376 389 376 389 410 370.5 c 128,-1,38
 444 352 444 352 472 329.5 c 128,-1,39
 500 307 500 307 517.5 272 c 128,-1,40
 535 237 535 237 535 192 c 0,41,42
 535 147 535 147 520 110.5 c 128,-1,43
 505 74 505 74 479.5 49.5 c 128,-1,44
 454 25 454 25 418 9 c 128,-1,45
 382 -7 382 -7 340.5 -14.5 c 128,-1,46
 299 -22 299 -22 252 -22 c 0,47,48
 218 -22 218 -22 186 -18.5 c 128,-1,49
 154 -15 154 -15 122 -5.5 c 128,-1,50
 90 4 90 4 66.5 19 c 128,-1,51
 43 34 43 34 28.5 58 c 128,-1,52
 14 82 14 82 14 113 c 0,53,54
 14 165 14 165 49.5 195.5 c 128,-1,55
 85 226 85 226 139 226 c 0,56,57
 171 226 171 226 191 220 c 1,58,59
 185 190 185 190 185 165 c 0,60,61
 185 112 185 112 203 82 c 128,-1,62
 221 52 221 52 266 52 c 0,63,64
 303 52 303 52 324.5 72 c 128,-1,65
 346 92 346 92 346 128 c 0,66,67
 346 161 346 161 328.5 187 c 128,-1,68
 311 213 311 213 283 230.5 c 128,-1,69
 255 248 255 248 221.5 264 c 128,-1,70
 188 280 188 280 154 298.5 c 128,-1,71
 120 317 120 317 92 339.5 c 128,-1,72
 64 362 64 362 46.5 397 c 128,-1,73
 29 432 29 432 29 477 c 0,74,75
 29 516 29 516 44 549.5 c 128,-1,76
 59 583 59 583 84.5 606.5 c 128,-1,77
 110 630 110 630 144 647 c 128,-1,78
 178 664 178 664 216.5 672 c 128,-1,79
 255 680 255 680 296 680 c 0,15,16
EndSplineSet
Validated: 8388609
Position2: "'cpsp' Capital Spacing lookup 3 subtable" dx=5 dy=0 dh=10 dv=0
EndChar

StartChar: Sdotbelow
Encoding: 7778 7778 114
Width: 554
Flags: MW
HStem: -201 160<225 284> -22 74<234 291 234 329> 606 74<262 307>
VStem: 14 171<133 149> 29 188<459 544> 145 217<-147 -97> 346 189<114 210> 349 171<519 548>
LayerCount: 2
UndoRedoHistory
Layer: 0
Undoes
EndUndoes
Redoes
EndRedoes
EndUndoRedoHistory
UndoRedoHistory
Layer: 1
Undoes
EndUndoes
Redoes
EndRedoes
EndUndoRedoHistory
Fore
SplineSet
256 -41 m 0,0,1
 304 -41 304 -41 333 -62 c 128,-1,2
 362 -83 362 -83 362 -121 c 0,3,4
 362 -160 362 -160 331.5 -180.5 c 128,-1,5
 301 -201 301 -201 252 -201 c 0,6,7
 204 -201 204 -201 174.5 -180.5 c 128,-1,8
 145 -160 145 -160 145 -123 c 0,9,10
 145 -84 145 -84 176.5 -62.5 c 128,-1,11
 208 -41 208 -41 256 -41 c 0,0,1
296 680 m 0,12,13
 327 680 327 680 356.5 676.5 c 128,-1,14
 386 673 386 673 416.5 664 c 128,-1,15
 447 655 447 655 469.5 641 c 128,-1,16
 492 627 492 627 506 605 c 128,-1,17
 520 583 520 583 520 555 c 0,18,19
 520 504 520 504 485 478 c 128,-1,20
 450 452 450 452 395 452 c 0,21,22
 365 452 365 452 343 459 c 1,23,24
 349 495 349 495 349 524 c 0,25,26
 349 606 349 606 282 606 c 0,27,28
 252 606 252 606 234.5 588.5 c 128,-1,29
 217 571 217 571 217 541 c 0,30,31
 217 508 217 508 234.5 482 c 128,-1,32
 252 456 252 456 280 438.5 c 128,-1,33
 308 421 308 421 342 405 c 128,-1,34
 376 389 376 389 410 370.5 c 128,-1,35
 444 352 444 352 472 329.5 c 128,-1,36
 500 307 500 307 517.5 272 c 128,-1,37
 535 237 535 237 535 192 c 0,38,39
 535 147 535 147 520 110.5 c 128,-1,40
 505 74 505 74 479.5 49.5 c 128,-1,41
 454 25 454 25 418 9 c 128,-1,42
 382 -7 382 -7 340.5 -14.5 c 128,-1,43
 299 -22 299 -22 252 -22 c 0,44,45
 218 -22 218 -22 186 -18.5 c 128,-1,46
 154 -15 154 -15 122 -5.5 c 128,-1,47
 90 4 90 4 66.5 19 c 128,-1,48
 43 34 43 34 28.5 58 c 128,-1,49
 14 82 14 82 14 113 c 0,50,51
 14 165 14 165 49.5 195.5 c 128,-1,52
 85 226 85 226 139 226 c 0,53,54
 171 226 171 226 191 220 c 1,55,56
 185 190 185 190 185 165 c 0,57,58
 185 112 185 112 203 82 c 128,-1,59
 221 52 221 52 266 52 c 0,60,61
 303 52 303 52 324.5 72 c 128,-1,62
 346 92 346 92 346 128 c 0,63,64
 346 161 346 161 328.5 187 c 128,-1,65
 311 213 311 213 283 230.5 c 128,-1,66
 255 248 255 248 221.5 264 c 128,-1,67
 188 280 188 280 154 298.5 c 128,-1,68
 120 317 120 317 92 339.5 c 128,-1,69
 64 362 64 362 46.5 397 c 128,-1,70
 29 432 29 432 29 477 c 0,71,72
 29 516 29 516 44 549.5 c 128,-1,73
 59 583 59 583 84.5 606.5 c 128,-1,74
 110 630 110 630 144 647 c 128,-1,75
 178 664 178 664 216.5 672 c 128,-1,76
 255 680 255 680 296 680 c 0,12,13
EndSplineSet
Validated: 8388609
Position2: "'cpsp' Capital Spacing lookup 3 subtable" dx=5 dy=0 dh=10 dv=0
EndChar

StartChar: uni1E9E
Encoding: 7838 7838 115
Width: 758
Flags: MW
HStem: -22 57<493 532 493 570> 0 169<40 418> 605 75<333 412>
VStem: 40 217<0 321 321 332 0 440> 299 162<89 116> 353 165<402 443> 569 174<85 158>
LayerCount: 2
UndoRedoHistory
Layer: 0
Undoes
EndUndoes
Redoes
EndRedoes
EndUndoRedoHistory
UndoRedoHistory
Layer: 1
Undoes
EndUndoes
Redoes
EndRedoes
EndUndoRedoHistory
Fore
SplineSet
40 321 m 2,0,1
 40 502 40 502 124 591 c 128,-1,2
 208 680 208 680 386 680 c 0,3,4
 573 680 573 680 656 554 c 1,5,6
 630 550 630 550 607 543 c 128,-1,7
 584 536 584 536 563 524.5 c 128,-1,8
 542 513 542 513 530 494.5 c 128,-1,9
 518 476 518 476 518 453 c 0,10,11
 518 432 518 432 530.5 412 c 128,-1,12
 543 392 543 392 563 373.5 c 128,-1,13
 583 355 583 355 607 336 c 128,-1,14
 631 317 631 317 655 296 c 128,-1,15
 679 275 679 275 698.5 253.5 c 128,-1,16
 718 232 718 232 730.5 205 c 128,-1,17
 743 178 743 178 743 149 c 0,18,19
 743 103 743 103 724.5 69 c 128,-1,20
 706 35 706 35 672.5 15.5 c 128,-1,21
 639 -4 639 -4 598 -13 c 128,-1,22
 557 -22 557 -22 507 -22 c 0,23,24
 470 -22 470 -22 436.5 -17 c 128,-1,25
 403 -12 403 -12 370.5 -0.5 c 128,-1,26
 338 11 338 11 318.5 33.5 c 128,-1,27
 299 56 299 56 299 87 c 0,28,29
 299 128 299 128 331.5 148.5 c 128,-1,30
 364 169 364 169 412 169 c 0,31,32
 450 169 450 169 465 160 c 1,33,34
 461 128 461 128 461 110 c 0,35,36
 461 35 461 35 514 35 c 0,37,38
 540 35 540 35 554.5 52.5 c 128,-1,39
 569 70 569 70 569 97 c 0,40,41
 569 121 569 121 557 144.5 c 128,-1,42
 545 168 545 168 526 187.5 c 128,-1,43
 507 207 507 207 484 226 c 128,-1,44
 461 245 461 245 438 264.5 c 128,-1,45
 415 284 415 284 396 304 c 128,-1,46
 377 324 377 324 365 349 c 128,-1,47
 353 374 353 374 353 401 c 0,48,49
 353 431 353 431 365 456.5 c 128,-1,50
 377 482 377 482 397.5 500.5 c 128,-1,51
 418 519 418 519 442 532 c 128,-1,52
 466 545 466 545 494 554 c 1,53,54
 451 605 451 605 386 605 c 0,55,56
 354 605 354 605 331.5 593.5 c 128,-1,57
 309 582 309 582 294.5 561.5 c 128,-1,58
 280 541 280 541 271.5 506 c 128,-1,59
 263 471 263 471 260 430 c 128,-1,60
 257 389 257 389 257 332 c 2,61,-1
 257 0 l 1,62,-1
 40 0 l 1,63,-1
 40 321 l 2,0,1
EndSplineSet
Validated: 8388609
Position2: "'cpsp' Capital Spacing lookup 3 subtable" dx=5 dy=0 dh=10 dv=0
EndChar

StartChar: Schwa
Encoding: 399 399 116
Width: 643
Flags: MW
HStem: -22 76<277 342 277 397> 302 62 543 140<227 297>
VStem: 20 202<137 215 137 247> 393 231
LayerCount: 2
UndoRedoHistory
Layer: 0
Undoes
EndUndoes
Redoes
EndRedoes
EndUndoRedoHistory
UndoRedoHistory
Layer: 1
Undoes
EndUndoes
Redoes
EndRedoes
EndUndoRedoHistory
Fore
SplineSet
301 54 m 0,0,1
 390 54 390 54 393 302 c 1,2,-1
 389 302 l 2,3,4
 307 302 307 302 264.5 270 c 128,-1,5
 222 238 222 238 222 163 c 0,6,7
 222 121 222 121 244.5 87.5 c 128,-1,8
 267 54 267 54 301 54 c 0,0,1
286 683 m 0,9,10
 451 683 451 683 537.5 590 c 128,-1,11
 624 497 624 497 624 329 c 0,12,13
 624 155 624 155 539 66.5 c 128,-1,14
 454 -22 454 -22 283 -22 c 0,15,16
 243 -22 243 -22 206.5 -16 c 128,-1,17
 170 -10 170 -10 135.5 4.5 c 128,-1,18
 101 19 101 19 75.5 40 c 128,-1,19
 50 61 50 61 35 92.5 c 128,-1,20
 20 124 20 124 20 163 c 0,21,22
 20 212 20 212 35 248.5 c 128,-1,23
 50 285 50 285 75 306.5 c 128,-1,24
 100 328 100 328 138 341 c 128,-1,25
 176 354 176 354 216.5 359 c 128,-1,26
 257 364 257 364 310 364 c 0,27,28
 360 364 360 364 392 360 c 1,29,30
 390 391 390 391 384.5 417 c 128,-1,31
 379 443 379 443 367.5 466.5 c 128,-1,32
 356 490 356 490 340 506.5 c 128,-1,33
 324 523 324 523 300 533 c 128,-1,34
 276 543 276 543 246 543 c 0,35,36
 196 543 196 543 149 513 c 128,-1,37
 102 483 102 483 79 437 c 1,38,39
 62 445 62 445 52 465 c 128,-1,40
 42 485 42 485 42 507 c 0,41,42
 42 550 42 550 63 585 c 128,-1,43
 84 620 84 620 119.5 641 c 128,-1,44
 155 662 155 662 197.5 672.5 c 128,-1,45
 240 683 240 683 286 683 c 0,9,10
EndSplineSet
Validated: 1
Position2: "'cpsp' Capital Spacing lookup 3 subtable" dx=5 dy=0 dh=10 dv=0
EndChar

StartChar: T
Encoding: 84 84 117
Width: 505
Flags: MW
HStem: 576 84<8 146 8 501 360 493 360 360>
VStem: 146 214<0 576 0 576>
LayerCount: 2
UndoRedoHistory
Layer: 0
Undoes
EndUndoes
Redoes
EndRedoes
EndUndoRedoHistory
UndoRedoHistory
Layer: 1
Undoes
EndUndoes
Redoes
EndRedoes
EndUndoRedoHistory
Fore
SplineSet
493 576 m 1,0,-1
 360 576 l 1,1,-1
 360 0 l 1,2,-1
 146 0 l 1,3,-1
 146 576 l 1,4,-1
 8 576 l 1,5,-1
 8 660 l 1,6,-1
 501 660 l 1,7,-1
 493 576 l 1,0,-1
EndSplineSet
Validated: 1
Position2: "'cpsp' Capital Spacing lookup 3 subtable" dx=5 dy=0 dh=10 dv=0
EndChar

StartChar: Tbar
Encoding: 358 358 118
Width: 505
Flags: MW
HStem: 287 92<79 146 79 146 15 146 360 426> 576 84<8 146 8 501 360 360 360 493>
VStem: 146 214<0 287 0 287 379 576>
LayerCount: 2
UndoRedoHistory
Layer: 0
Undoes
EndUndoes
Redoes
EndRedoes
EndUndoRedoHistory
UndoRedoHistory
Layer: 1
Undoes
EndUndoes
Redoes
EndRedoes
EndUndoRedoHistory
Fore
SplineSet
490 379 m 1,0,1
 494 367 494 367 494 349 c 0,2,3
 494 318 494 318 476 302.5 c 128,-1,4
 458 287 458 287 426 287 c 2,5,-1
 360 287 l 1,6,-1
 360 0 l 1,7,-1
 146 0 l 1,8,-1
 146 287 l 1,9,-1
 15 287 l 1,10,11
 11 299 11 299 11 316 c 0,12,13
 11 348 11 348 29 363.5 c 128,-1,14
 47 379 47 379 79 379 c 2,15,-1
 146 379 l 1,16,-1
 146 576 l 1,17,-1
 8 576 l 1,18,-1
 8 660 l 1,19,-1
 501 660 l 1,20,-1
 493 576 l 1,21,-1
 360 576 l 1,22,-1
 360 379 l 1,23,-1
 490 379 l 1,0,1
EndSplineSet
Validated: 1
Position2: "'cpsp' Capital Spacing lookup 3 subtable" dx=5 dy=0 dh=10 dv=0
EndChar

StartChar: Tcaron
Encoding: 356 356 119
Width: 505
Flags: MW
HStem: 576 84<8 146 8 501 360 493 360 360>
VStem: 146 214<0 576 0 576>
LayerCount: 2
UndoRedoHistory
Layer: 0
Undoes
EndUndoes
Redoes
EndRedoes
EndUndoRedoHistory
UndoRedoHistory
Layer: 1
Undoes
EndUndoes
Redoes
EndRedoes
EndUndoRedoHistory
Fore
SplineSet
360 576 m 1,0,-1
 360 0 l 1,1,-1
 146 0 l 1,2,-1
 146 576 l 1,3,-1
 8 576 l 1,4,-1
 8 660 l 1,5,-1
 501 660 l 1,6,-1
 493 576 l 1,7,-1
 360 576 l 1,0,-1
426 811 m 1,8,-1
 285 695 l 1,9,-1
 221 695 l 1,10,-1
 76 811 l 1,11,-1
 116 857 l 1,12,-1
 251 805 l 1,13,-1
 387 857 l 1,14,-1
 426 811 l 1,8,-1
EndSplineSet
Validated: 1
Position2: "'cpsp' Capital Spacing lookup 3 subtable" dx=5 dy=0 dh=10 dv=0
EndChar

StartChar: Tcedilla
Encoding: 354 354 120
Width: 505
Flags: MW
HStem: -258 68<220 234 204 275> -110 53<190 296> 576 84<8 146 8 501 360 360 360 493>
VStem: 146 214<0 576 0 576> 264 122<-163 -133>
LayerCount: 2
UndoRedoHistory
Layer: 0
Undoes
EndUndoes
Redoes
EndRedoes
EndUndoRedoHistory
UndoRedoHistory
Layer: 1
Undoes
EndUndoes
Redoes
EndRedoes
EndUndoRedoHistory
Fore
SplineSet
260 0 m 1,0,-1
 236 -58 l 1,1,2
 240 -58 240 -58 249 -57.5 c 128,-1,3
 258 -57 258 -57 261 -57 c 0,4,5
 318 -57 318 -57 352 -80.5 c 128,-1,6
 386 -104 386 -104 386 -154 c 0,7,8
 386 -188 386 -188 364 -212 c 128,-1,9
 342 -236 342 -236 309.5 -247 c 128,-1,10
 277 -258 277 -258 240 -258 c 0,11,12
 222 -258 222 -258 205.5 -255 c 128,-1,13
 189 -252 189 -252 171.5 -246 c 128,-1,14
 154 -240 154 -240 143.5 -227.5 c 128,-1,15
 133 -215 133 -215 133 -197 c 0,16,17
 133 -173 133 -173 145 -157 c 1,18,19
 171 -190 171 -190 224 -190 c 0,20,21
 240 -190 240 -190 252 -178.5 c 128,-1,22
 264 -167 264 -167 264 -151 c 0,23,24
 264 -110 264 -110 197 -110 c 0,25,26
 184 -110 184 -110 157 -112 c 1,27,-1
 198 0 l 1,28,-1
 146 0 l 1,29,-1
 146 576 l 1,30,-1
 8 576 l 1,31,-1
 8 660 l 1,32,-1
 501 660 l 1,33,-1
 493 576 l 1,34,-1
 360 576 l 1,35,-1
 360 0 l 1,36,-1
 260 0 l 1,0,-1
EndSplineSet
Validated: 8388609
Substitution2: "'locl' Localized Forms in Latin lookup 12 subtable" uni021A
Substitution2: "'locl' Localized Forms in Latin lookup 11 subtable" uni021A
Substitution2: "'aalt' Access All Alternates lookup 0 subtable" uni021A
Position2: "'cpsp' Capital Spacing lookup 3 subtable" dx=5 dy=0 dh=10 dv=0
EndChar

StartChar: uni021A
Encoding: 538 538 121
Width: 505
Flags: MW
HStem: -258 207<223 229> 576 84<8 146 8 501 360 493 360 360>
VStem: 146 214<0 576 0 576> 191 137<-165 -134>
LayerCount: 2
UndoRedoHistory
Layer: 0
Undoes
EndUndoes
Redoes
EndRedoes
EndUndoRedoHistory
UndoRedoHistory
Layer: 1
Undoes
EndUndoes
Redoes
EndRedoes
EndUndoRedoHistory
Fore
SplineSet
234 -51 m 0,0,1
 283 -51 283 -51 305.5 -70.5 c 128,-1,2
 328 -90 328 -90 328 -132 c 0,3,4
 328 -182 328 -182 288 -220 c 128,-1,5
 248 -258 248 -258 190 -258 c 0,6,7
 187 -258 187 -258 150 -255 c 1,8,9
 191 -202 191 -202 191 -150 c 0,10,11
 191 -103 191 -103 168 -66 c 1,12,13
 177 -60 177 -60 196.5 -55.5 c 128,-1,14
 216 -51 216 -51 234 -51 c 0,0,1
360 576 m 1,15,-1
 360 0 l 1,16,-1
 146 0 l 1,17,-1
 146 576 l 1,18,-1
 8 576 l 1,19,-1
 8 660 l 1,20,-1
 501 660 l 1,21,-1
 493 576 l 1,22,-1
 360 576 l 1,15,-1
EndSplineSet
Validated: 8388609
Position2: "'cpsp' Capital Spacing lookup 3 subtable" dx=5 dy=0 dh=10 dv=0
EndChar

StartChar: Tdotbelow
Encoding: 7788 7788 122
Width: 505
Flags: MW
HStem: -201 160<227 286> 576 84<8 146 8 501 360 493 360 360>
VStem: 146 214<0 576 0 576> 147 217<-147 -97>
LayerCount: 2
UndoRedoHistory
Layer: 0
Undoes
EndUndoes
Redoes
EndRedoes
EndUndoRedoHistory
UndoRedoHistory
Layer: 1
Undoes
EndUndoes
Redoes
EndRedoes
EndUndoRedoHistory
Fore
SplineSet
258 -41 m 0,0,1
 306 -41 306 -41 335 -62 c 128,-1,2
 364 -83 364 -83 364 -121 c 0,3,4
 364 -160 364 -160 333.5 -180.5 c 128,-1,5
 303 -201 303 -201 254 -201 c 0,6,7
 206 -201 206 -201 176.5 -180.5 c 128,-1,8
 147 -160 147 -160 147 -123 c 0,9,10
 147 -84 147 -84 178.5 -62.5 c 128,-1,11
 210 -41 210 -41 258 -41 c 0,0,1
360 576 m 1,12,-1
 360 0 l 1,13,-1
 146 0 l 1,14,-1
 146 576 l 1,15,-1
 8 576 l 1,16,-1
 8 660 l 1,17,-1
 501 660 l 1,18,-1
 493 576 l 1,19,-1
 360 576 l 1,12,-1
EndSplineSet
Validated: 8388609
Position2: "'cpsp' Capital Spacing lookup 3 subtable" dx=5 dy=0 dh=10 dv=0
EndChar

StartChar: U
Encoding: 85 85 123
Width: 609
Flags: MW
HStem: -22 84<301 371 301 411> 640 20G<42 256 256 256 418 569 569 569>
VStem: 42 214<241 252 252 660> 418 151<263 274 274 660>
LayerCount: 2
UndoRedoHistory
Layer: 0
Undoes
EndUndoes
Redoes
EndRedoes
EndUndoRedoHistory
UndoRedoHistory
Layer: 1
Undoes
EndUndoes
Redoes
EndRedoes
EndUndoRedoHistory
Fore
SplineSet
569 274 m 2,0,1
 569 200 569 200 556 146.5 c 128,-1,2
 543 93 543 93 514 54.5 c 128,-1,3
 485 16 485 16 435.5 -3 c 128,-1,4
 386 -22 386 -22 315 -22 c 0,5,6
 175 -22 175 -22 108.5 41 c 128,-1,7
 42 104 42 104 42 241 c 2,8,-1
 42 660 l 1,9,-1
 256 660 l 1,10,-1
 256 252 l 2,11,12
 256 218 256 218 257 194.5 c 128,-1,13
 258 171 258 171 261 148 c 128,-1,14
 264 125 264 125 269.5 110.5 c 128,-1,15
 275 96 275 96 284 84 c 128,-1,16
 293 72 293 72 306 67 c 128,-1,17
 319 62 319 62 336 62 c 0,18,19
 357 62 357 62 371.5 70.5 c 128,-1,20
 386 79 386 79 395 93.5 c 128,-1,21
 404 108 404 108 409.5 134.5 c 128,-1,22
 415 161 415 161 416.5 190.5 c 128,-1,23
 418 220 418 220 418 263 c 2,24,-1
 418 660 l 1,25,-1
 569 660 l 1,26,-1
 569 274 l 2,0,1
EndSplineSet
Validated: 1
Position2: "'cpsp' Capital Spacing lookup 3 subtable" dx=5 dy=0 dh=10 dv=0
EndChar

StartChar: Uacute
Encoding: 218 218 124
Width: 609
Flags: MW
HStem: -22 84<301 371 301 411> 640 20G<42 256 256 256 418 569 569 569>
VStem: 42 214<241 252 252 660> 418 151<263 274 274 660>
LayerCount: 2
UndoRedoHistory
Layer: 0
Undoes
EndUndoes
Redoes
EndRedoes
EndUndoRedoHistory
UndoRedoHistory
Layer: 1
Undoes
EndUndoes
Redoes
EndRedoes
EndUndoRedoHistory
Fore
SplineSet
569 274 m 2,0,1
 569 200 569 200 556 146.5 c 128,-1,2
 543 93 543 93 514 54.5 c 128,-1,3
 485 16 485 16 435.5 -3 c 128,-1,4
 386 -22 386 -22 315 -22 c 0,5,6
 175 -22 175 -22 108.5 41 c 128,-1,7
 42 104 42 104 42 241 c 2,8,-1
 42 660 l 1,9,-1
 256 660 l 1,10,-1
 256 252 l 2,11,12
 256 218 256 218 257 194.5 c 128,-1,13
 258 171 258 171 261 148 c 128,-1,14
 264 125 264 125 269.5 110.5 c 128,-1,15
 275 96 275 96 284 84 c 128,-1,16
 293 72 293 72 306 67 c 128,-1,17
 319 62 319 62 336 62 c 0,18,19
 357 62 357 62 371.5 70.5 c 128,-1,20
 386 79 386 79 395 93.5 c 128,-1,21
 404 108 404 108 409.5 134.5 c 128,-1,22
 415 161 415 161 416.5 190.5 c 128,-1,23
 418 220 418 220 418 263 c 2,24,-1
 418 660 l 1,25,-1
 569 660 l 1,26,-1
 569 274 l 2,0,1
476 862 m 1,27,28
 493 848 493 848 503.5 828 c 128,-1,29
 514 808 514 808 514 788 c 0,30,31
 514 775 514 775 509.5 765 c 128,-1,32
 505 755 505 755 499 748.5 c 128,-1,33
 493 742 493 742 481 736.5 c 128,-1,34
 469 731 469 731 461 728.5 c 128,-1,35
 453 726 453 726 436 724 c 128,-1,36
 419 722 419 722 412 721.5 c 128,-1,37
 405 721 405 721 387 719 c 2,38,-1
 241 709 l 1,39,-1
 229 760 l 1,40,-1
 476 862 l 1,27,28
EndSplineSet
Validated: 1
Position2: "'cpsp' Capital Spacing lookup 3 subtable" dx=5 dy=0 dh=10 dv=0
EndChar

StartChar: Ubreve
Encoding: 364 364 125
Width: 609
Flags: MW
HStem: -22 84<301 371 301 411> 640 20G<42 256 256 256 418 569 569 569> 700 52<313 362 313 410>
VStem: 42 214<241 252 252 660> 141 146<798 811 791 837> 381 147<817 837> 418 151<263 274 274 660>
LayerCount: 2
UndoRedoHistory
Layer: 0
Undoes
EndUndoes
Redoes
EndRedoes
EndUndoRedoHistory
UndoRedoHistory
Layer: 1
Undoes
EndUndoes
Redoes
EndRedoes
EndUndoRedoHistory
Fore
SplineSet
569 274 m 2,0,1
 569 200 569 200 556 146.5 c 128,-1,2
 543 93 543 93 514 54.5 c 128,-1,3
 485 16 485 16 435.5 -3 c 128,-1,4
 386 -22 386 -22 315 -22 c 0,5,6
 175 -22 175 -22 108.5 41 c 128,-1,7
 42 104 42 104 42 241 c 2,8,-1
 42 660 l 1,9,-1
 256 660 l 1,10,-1
 256 252 l 2,11,12
 256 218 256 218 257 194.5 c 128,-1,13
 258 171 258 171 261 148 c 128,-1,14
 264 125 264 125 269.5 110.5 c 128,-1,15
 275 96 275 96 284 84 c 128,-1,16
 293 72 293 72 306 67 c 128,-1,17
 319 62 319 62 336 62 c 0,18,19
 357 62 357 62 371.5 70.5 c 128,-1,20
 386 79 386 79 395 93.5 c 128,-1,21
 404 108 404 108 409.5 134.5 c 128,-1,22
 415 161 415 161 416.5 190.5 c 128,-1,23
 418 220 418 220 418 263 c 2,24,-1
 418 660 l 1,25,-1
 569 660 l 1,26,-1
 569 274 l 2,0,1
528 837 m 1,27,28
 528 806 528 806 518.5 782.5 c 128,-1,29
 509 759 509 759 487.5 739.5 c 128,-1,30
 466 720 466 720 427.5 710 c 128,-1,31
 389 700 389 700 334 700 c 128,-1,32
 279 700 279 700 240.5 710 c 128,-1,33
 202 720 202 720 181 739.5 c 128,-1,34
 160 759 160 759 150.5 782.5 c 128,-1,35
 141 806 141 806 141 837 c 1,36,-1
 288 837 l 1,37,38
 288 831 288 831 287.5 821 c 128,-1,39
 287 811 287 811 287 805 c 0,40,41
 287 780 287 780 296.5 766 c 128,-1,42
 306 752 306 752 334 752 c 0,43,44
 363 752 363 752 372.5 766.5 c 128,-1,45
 382 781 382 781 382 808 c 0,46,47
 382 813 382 813 381.5 822.5 c 128,-1,48
 381 832 381 832 381 837 c 1,49,-1
 528 837 l 1,27,28
EndSplineSet
Validated: 8388609
Position2: "'cpsp' Capital Spacing lookup 3 subtable" dx=5 dy=0 dh=10 dv=0
EndChar

StartChar: Ucircumflex
Encoding: 219 219 126
Width: 609
Flags: MW
HStem: -22 84<301 371 301 411> 640 20G<42 256 256 256 418 569 569 569>
VStem: 42 214<241 252 252 660> 418 151<263 274 274 660>
LayerCount: 2
UndoRedoHistory
Layer: 0
Undoes
EndUndoes
Redoes
EndRedoes
EndUndoRedoHistory
UndoRedoHistory
Layer: 1
Undoes
EndUndoes
Redoes
EndRedoes
EndUndoRedoHistory
Fore
SplineSet
569 274 m 2,0,1
 569 200 569 200 556 146.5 c 128,-1,2
 543 93 543 93 514 54.5 c 128,-1,3
 485 16 485 16 435.5 -3 c 128,-1,4
 386 -22 386 -22 315 -22 c 0,5,6
 175 -22 175 -22 108.5 41 c 128,-1,7
 42 104 42 104 42 241 c 2,8,-1
 42 660 l 1,9,-1
 256 660 l 1,10,-1
 256 252 l 2,11,12
 256 218 256 218 257 194.5 c 128,-1,13
 258 171 258 171 261 148 c 128,-1,14
 264 125 264 125 269.5 110.5 c 128,-1,15
 275 96 275 96 284 84 c 128,-1,16
 293 72 293 72 306 67 c 128,-1,17
 319 62 319 62 336 62 c 0,18,19
 357 62 357 62 371.5 70.5 c 128,-1,20
 386 79 386 79 395 93.5 c 128,-1,21
 404 108 404 108 409.5 134.5 c 128,-1,22
 415 161 415 161 416.5 190.5 c 128,-1,23
 418 220 418 220 418 263 c 2,24,-1
 418 660 l 1,25,-1
 569 660 l 1,26,-1
 569 274 l 2,0,1
159 731 m 1,27,-1
 311 846 l 1,28,-1
 354 846 l 1,29,-1
 508 731 l 1,30,-1
 469 684 l 1,31,-1
 334 735 l 1,32,-1
 198 684 l 1,33,-1
 159 731 l 1,27,-1
EndSplineSet
Validated: 1
Position2: "'cpsp' Capital Spacing lookup 3 subtable" dx=5 dy=0 dh=10 dv=0
EndChar

StartChar: Udieresis
Encoding: 220 220 127
Width: 609
Flags: MW
HStem: -22 84<301 371 301 411> 640 20G<42 256 256 256 418 569 569 569> 711 160<191 250 421 479>
VStem: 42 214<241 252 252 660> 111 217<765 815> 341 217<765 815> 418 151<263 274 274 660>
LayerCount: 2
UndoRedoHistory
Layer: 0
Undoes
EndUndoes
Redoes
EndRedoes
EndUndoRedoHistory
UndoRedoHistory
Layer: 1
Undoes
EndUndoes
Redoes
EndRedoes
EndUndoRedoHistory
Fore
SplineSet
569 274 m 2,0,1
 569 200 569 200 556 146.5 c 128,-1,2
 543 93 543 93 514 54.5 c 128,-1,3
 485 16 485 16 435.5 -3 c 128,-1,4
 386 -22 386 -22 315 -22 c 0,5,6
 175 -22 175 -22 108.5 41 c 128,-1,7
 42 104 42 104 42 241 c 2,8,-1
 42 660 l 1,9,-1
 256 660 l 1,10,-1
 256 252 l 2,11,12
 256 218 256 218 257 194.5 c 128,-1,13
 258 171 258 171 261 148 c 128,-1,14
 264 125 264 125 269.5 110.5 c 128,-1,15
 275 96 275 96 284 84 c 128,-1,16
 293 72 293 72 306 67 c 128,-1,17
 319 62 319 62 336 62 c 0,18,19
 357 62 357 62 371.5 70.5 c 128,-1,20
 386 79 386 79 395 93.5 c 128,-1,21
 404 108 404 108 409.5 134.5 c 128,-1,22
 415 161 415 161 416.5 190.5 c 128,-1,23
 418 220 418 220 418 263 c 2,24,-1
 418 660 l 1,25,-1
 569 660 l 1,26,-1
 569 274 l 2,0,1
452 871 m 0,27,28
 500 871 500 871 529 850 c 128,-1,29
 558 829 558 829 558 791 c 0,30,31
 558 752 558 752 528 731.5 c 128,-1,32
 498 711 498 711 448 711 c 0,33,34
 400 711 400 711 370.5 731.5 c 128,-1,35
 341 752 341 752 341 789 c 0,36,37
 341 828 341 828 372.5 849.5 c 128,-1,38
 404 871 404 871 452 871 c 0,27,28
222 871 m 0,39,40
 270 871 270 871 299 850 c 128,-1,41
 328 829 328 829 328 791 c 0,42,43
 328 752 328 752 297.5 731.5 c 128,-1,44
 267 711 267 711 218 711 c 0,45,46
 170 711 170 711 140.5 731.5 c 128,-1,47
 111 752 111 752 111 789 c 0,48,49
 111 828 111 828 142.5 849.5 c 128,-1,50
 174 871 174 871 222 871 c 0,39,40
EndSplineSet
Validated: 8388609
Position2: "'cpsp' Capital Spacing lookup 3 subtable" dx=5 dy=0 dh=10 dv=0
EndChar

StartChar: Udotbelow
Encoding: 7908 7908 128
Width: 609
Flags: MW
HStem: -201 160<308 367> -22 84<301 371 301 411> 640 20G<42 256 256 256 418 569 569 569>
VStem: 42 214<241 252 252 660> 228 217<-147 -97> 418 151<263 274 274 660>
LayerCount: 2
UndoRedoHistory
Layer: 0
Undoes
EndUndoes
Redoes
EndRedoes
EndUndoRedoHistory
UndoRedoHistory
Layer: 1
Undoes
EndUndoes
Redoes
EndRedoes
EndUndoRedoHistory
Fore
SplineSet
339 -41 m 0,0,1
 387 -41 387 -41 416 -62 c 128,-1,2
 445 -83 445 -83 445 -121 c 0,3,4
 445 -160 445 -160 414.5 -180.5 c 128,-1,5
 384 -201 384 -201 335 -201 c 0,6,7
 287 -201 287 -201 257.5 -180.5 c 128,-1,8
 228 -160 228 -160 228 -123 c 0,9,10
 228 -84 228 -84 259.5 -62.5 c 128,-1,11
 291 -41 291 -41 339 -41 c 0,0,1
569 274 m 2,12,13
 569 200 569 200 556 146.5 c 128,-1,14
 543 93 543 93 514 54.5 c 128,-1,15
 485 16 485 16 435.5 -3 c 128,-1,16
 386 -22 386 -22 315 -22 c 0,17,18
 175 -22 175 -22 108.5 41 c 128,-1,19
 42 104 42 104 42 241 c 2,20,-1
 42 660 l 1,21,-1
 256 660 l 1,22,-1
 256 252 l 2,23,24
 256 218 256 218 257 194.5 c 128,-1,25
 258 171 258 171 261 148 c 128,-1,26
 264 125 264 125 269.5 110.5 c 128,-1,27
 275 96 275 96 284 84 c 128,-1,28
 293 72 293 72 306 67 c 128,-1,29
 319 62 319 62 336 62 c 0,30,31
 357 62 357 62 371.5 70.5 c 128,-1,32
 386 79 386 79 395 93.5 c 128,-1,33
 404 108 404 108 409.5 134.5 c 128,-1,34
 415 161 415 161 416.5 190.5 c 128,-1,35
 418 220 418 220 418 263 c 2,36,-1
 418 660 l 1,37,-1
 569 660 l 1,38,-1
 569 274 l 2,12,13
EndSplineSet
Validated: 8388609
Position2: "'cpsp' Capital Spacing lookup 3 subtable" dx=5 dy=0 dh=10 dv=0
EndChar

StartChar: Ugrave
Encoding: 217 217 129
Width: 609
Flags: MW
HStem: -22 84<301 371 301 411> 640 20G<42 256 256 256 418 569 569 569>
VStem: 42 214<241 252 252 660> 418 151<263 274 274 660>
LayerCount: 2
UndoRedoHistory
Layer: 0
Undoes
EndUndoes
Redoes
EndRedoes
EndUndoRedoHistory
UndoRedoHistory
Layer: 1
Undoes
EndUndoes
Redoes
EndRedoes
EndUndoRedoHistory
Fore
SplineSet
569 274 m 2,0,1
 569 200 569 200 556 146.5 c 128,-1,2
 543 93 543 93 514 54.5 c 128,-1,3
 485 16 485 16 435.5 -3 c 128,-1,4
 386 -22 386 -22 315 -22 c 0,5,6
 175 -22 175 -22 108.5 41 c 128,-1,7
 42 104 42 104 42 241 c 2,8,-1
 42 660 l 1,9,-1
 256 660 l 1,10,-1
 256 252 l 2,11,12
 256 218 256 218 257 194.5 c 128,-1,13
 258 171 258 171 261 148 c 128,-1,14
 264 125 264 125 269.5 110.5 c 128,-1,15
 275 96 275 96 284 84 c 128,-1,16
 293 72 293 72 306 67 c 128,-1,17
 319 62 319 62 336 62 c 0,18,19
 357 62 357 62 371.5 70.5 c 128,-1,20
 386 79 386 79 395 93.5 c 128,-1,21
 404 108 404 108 409.5 134.5 c 128,-1,22
 415 161 415 161 416.5 190.5 c 128,-1,23
 418 220 418 220 418 263 c 2,24,-1
 418 660 l 1,25,-1
 569 660 l 1,26,-1
 569 274 l 2,0,1
282 720 m 2,27,28
 268 721 268 721 263 721.5 c 128,-1,29
 258 722 258 722 244 723.5 c 128,-1,30
 230 725 230 725 224 726.5 c 128,-1,31
 218 728 218 728 206.5 730.5 c 128,-1,32
 195 733 195 733 189.5 736.5 c 128,-1,33
 184 740 184 740 176 745 c 128,-1,34
 168 750 168 750 164.5 756 c 128,-1,35
 161 762 161 762 158 770.5 c 128,-1,36
 155 779 155 779 155 789 c 0,37,38
 155 809 155 809 165.5 829 c 128,-1,39
 176 849 176 849 193 863 c 1,40,-1
 440 761 l 1,41,-1
 428 710 l 1,42,-1
 282 720 l 2,27,28
EndSplineSet
Validated: 1
Position2: "'cpsp' Capital Spacing lookup 3 subtable" dx=5 dy=0 dh=10 dv=0
EndChar

StartChar: Uhungarumlaut
Encoding: 368 368 130
Width: 609
Flags: MW
HStem: -22 84<301 371 301 411> 640 20G<42 256 256 256 418 569 569 569>
VStem: 42 214<241 252 252 660> 418 151<263 274 274 660>
LayerCount: 2
UndoRedoHistory
Layer: 0
Undoes
EndUndoes
Redoes
EndRedoes
EndUndoRedoHistory
UndoRedoHistory
Layer: 1
Undoes
EndUndoes
Redoes
EndRedoes
EndUndoRedoHistory
Fore
SplineSet
569 274 m 2,0,1
 569 200 569 200 556 146.5 c 128,-1,2
 543 93 543 93 514 54.5 c 128,-1,3
 485 16 485 16 435.5 -3 c 128,-1,4
 386 -22 386 -22 315 -22 c 0,5,6
 175 -22 175 -22 108.5 41 c 128,-1,7
 42 104 42 104 42 241 c 2,8,-1
 42 660 l 1,9,-1
 256 660 l 1,10,-1
 256 252 l 2,11,12
 256 218 256 218 257 194.5 c 128,-1,13
 258 171 258 171 261 148 c 128,-1,14
 264 125 264 125 269.5 110.5 c 128,-1,15
 275 96 275 96 284 84 c 128,-1,16
 293 72 293 72 306 67 c 128,-1,17
 319 62 319 62 336 62 c 0,18,19
 357 62 357 62 371.5 70.5 c 128,-1,20
 386 79 386 79 395 93.5 c 128,-1,21
 404 108 404 108 409.5 134.5 c 128,-1,22
 415 161 415 161 416.5 190.5 c 128,-1,23
 418 220 418 220 418 263 c 2,24,-1
 418 660 l 1,25,-1
 569 660 l 1,26,-1
 569 274 l 2,0,1
566 862 m 1,27,28
 604 838 604 838 604 799 c 0,29,30
 604 768 604 768 583 748.5 c 128,-1,31
 562 729 562 729 517 720 c 2,32,-1
 412 700 l 1,33,-1
 391 751 l 1,34,-1
 566 862 l 1,27,28
353 862 m 1,35,36
 392 838 392 838 392 799 c 0,37,38
 392 768 392 768 371.5 748.5 c 128,-1,39
 351 729 351 729 305 720 c 2,40,-1
 199 700 l 1,41,-1
 178 751 l 1,42,-1
 353 862 l 1,35,36
EndSplineSet
Validated: 1
Position2: "'cpsp' Capital Spacing lookup 3 subtable" dx=5 dy=0 dh=10 dv=0
EndChar

StartChar: Umacron
Encoding: 362 362 131
Width: 609
Flags: MW
HStem: -22 84<301 371 301 411> 640 20G<42 256 256 256 418 569 569 569> 771 92<236 430 188 478>
VStem: 42 214<241 252 252 660> 418 151<263 274 274 660>
LayerCount: 2
UndoRedoHistory
Layer: 0
Undoes
EndUndoes
Redoes
EndRedoes
EndUndoRedoHistory
UndoRedoHistory
Layer: 1
Undoes
EndUndoes
Redoes
EndRedoes
EndUndoRedoHistory
Fore
SplineSet
569 274 m 2,0,1
 569 200 569 200 556 146.5 c 128,-1,2
 543 93 543 93 514 54.5 c 128,-1,3
 485 16 485 16 435.5 -3 c 128,-1,4
 386 -22 386 -22 315 -22 c 0,5,6
 175 -22 175 -22 108.5 41 c 128,-1,7
 42 104 42 104 42 241 c 2,8,-1
 42 660 l 1,9,-1
 256 660 l 1,10,-1
 256 252 l 2,11,12
 256 218 256 218 257 194.5 c 128,-1,13
 258 171 258 171 261 148 c 128,-1,14
 264 125 264 125 269.5 110.5 c 128,-1,15
 275 96 275 96 284 84 c 128,-1,16
 293 72 293 72 306 67 c 128,-1,17
 319 62 319 62 336 62 c 0,18,19
 357 62 357 62 371.5 70.5 c 128,-1,20
 386 79 386 79 395 93.5 c 128,-1,21
 404 108 404 108 409.5 134.5 c 128,-1,22
 415 161 415 161 416.5 190.5 c 128,-1,23
 418 220 418 220 418 263 c 2,24,-1
 418 660 l 1,25,-1
 569 660 l 1,26,-1
 569 274 l 2,0,1
478 863 m 1,27,28
 487 848 487 848 487 824 c 0,29,30
 487 800 487 800 472 785.5 c 128,-1,31
 457 771 457 771 430 771 c 2,32,-1
 188 771 l 1,33,34
 179 786 179 786 179 810 c 128,-1,35
 179 834 179 834 194 848.5 c 128,-1,36
 209 863 209 863 236 863 c 2,37,-1
 478 863 l 1,27,28
EndSplineSet
Validated: 1
Position2: "'cpsp' Capital Spacing lookup 3 subtable" dx=5 dy=0 dh=10 dv=0
EndChar

StartChar: Uogonek
Encoding: 370 370 132
Width: 609
Flags: MW
HStem: -264 86<409 419> -22 84<301 315> 640 20G<42 256 256 256 418 569 569 569>
VStem: 42 214<241 252 252 660> 251 121<-146 -131> 418 151<263 274 274 660>
LayerCount: 2
UndoRedoHistory
Layer: 0
Undoes
EndUndoes
Redoes
EndRedoes
EndUndoRedoHistory
UndoRedoHistory
Layer: 1
Undoes
EndUndoes
Redoes
EndRedoes
EndUndoRedoHistory
Fore
SplineSet
569 274 m 2,0,1
 569 170 569 170 542.5 103.5 c 128,-1,2
 516 37 516 37 456 6 c 1,3,4
 372 -54 372 -54 372 -126 c 0,5,6
 372 -156 372 -156 385 -167 c 128,-1,7
 398 -178 398 -178 428 -178 c 0,8,9
 444 -178 444 -178 460 -171.5 c 128,-1,10
 476 -165 476 -165 483 -153 c 1,11,12
 509 -172 509 -172 509 -196 c 0,13,14
 509 -214 509 -214 497.5 -228 c 128,-1,15
 486 -242 486 -242 468.5 -249.5 c 128,-1,16
 451 -257 451 -257 433.5 -260.5 c 128,-1,17
 416 -264 416 -264 399 -264 c 0,18,19
 369 -264 369 -264 343.5 -258.5 c 128,-1,20
 318 -253 318 -253 296.5 -241.5 c 128,-1,21
 275 -230 275 -230 263 -209 c 128,-1,22
 251 -188 251 -188 251 -161 c 0,23,24
 251 -83 251 -83 339 -21 c 1,25,-1
 315 -22 l 1,26,27
 175 -22 175 -22 108.5 41 c 128,-1,28
 42 104 42 104 42 241 c 2,29,-1
 42 660 l 1,30,-1
 256 660 l 1,31,-1
 256 252 l 2,32,33
 256 218 256 218 257 194.5 c 128,-1,34
 258 171 258 171 261 148 c 128,-1,35
 264 125 264 125 269.5 110.5 c 128,-1,36
 275 96 275 96 284 84 c 128,-1,37
 293 72 293 72 306 67 c 128,-1,38
 319 62 319 62 336 62 c 0,39,40
 357 62 357 62 371.5 70.5 c 128,-1,41
 386 79 386 79 395 93.5 c 128,-1,42
 404 108 404 108 409.5 134.5 c 128,-1,43
 415 161 415 161 416.5 190.5 c 128,-1,44
 418 220 418 220 418 263 c 2,45,-1
 418 660 l 1,46,-1
 569 660 l 1,47,-1
 569 274 l 2,0,1
EndSplineSet
Validated: 8388609
Position2: "'cpsp' Capital Spacing lookup 3 subtable" dx=5 dy=0 dh=10 dv=0
EndChar

StartChar: Uring
Encoding: 366 366 133
Width: 609
Flags: MW
HStem: -22 84<301 371 301 411> 640 20G<42 256 256 256 418 569 569 569> 699 40<318 350 318 368> 850 41<318 350>
VStem: 42 214<241 252 252 660> 219 70<780 811 780 827> 379 71<780 811> 418 151<263 274 274 660>
LayerCount: 2
UndoRedoHistory
Layer: 0
Undoes
EndUndoes
Redoes
EndRedoes
EndUndoRedoHistory
UndoRedoHistory
Layer: 1
Undoes
EndUndoes
Redoes
EndRedoes
EndUndoRedoHistory
Fore
SplineSet
569 274 m 2,0,1
 569 200 569 200 556 146.5 c 128,-1,2
 543 93 543 93 514 54.5 c 128,-1,3
 485 16 485 16 435.5 -3 c 128,-1,4
 386 -22 386 -22 315 -22 c 0,5,6
 175 -22 175 -22 108.5 41 c 128,-1,7
 42 104 42 104 42 241 c 2,8,-1
 42 660 l 1,9,-1
 256 660 l 1,10,-1
 256 252 l 2,11,12
 256 218 256 218 257 194.5 c 128,-1,13
 258 171 258 171 261 148 c 128,-1,14
 264 125 264 125 269.5 110.5 c 128,-1,15
 275 96 275 96 284 84 c 128,-1,16
 293 72 293 72 306 67 c 128,-1,17
 319 62 319 62 336 62 c 0,18,19
 357 62 357 62 371.5 70.5 c 128,-1,20
 386 79 386 79 395 93.5 c 128,-1,21
 404 108 404 108 409.5 134.5 c 128,-1,22
 415 161 415 161 416.5 190.5 c 128,-1,23
 418 220 418 220 418 263 c 2,24,-1
 418 660 l 1,25,-1
 569 660 l 1,26,-1
 569 274 l 2,0,1
334 739 m 0,27,28
 356 739 356 739 367.5 755 c 128,-1,29
 379 771 379 771 379 796 c 0,30,31
 379 820 379 820 367.5 835 c 128,-1,32
 356 850 356 850 334 850 c 128,-1,33
 312 850 312 850 300.5 835 c 128,-1,34
 289 820 289 820 289 796 c 0,35,36
 289 770 289 770 300 754.5 c 128,-1,37
 311 739 311 739 334 739 c 0,27,28
334 699 m 0,38,39
 284 699 284 699 251.5 725 c 128,-1,40
 219 751 219 751 219 796 c 0,41,42
 219 841 219 841 251 866 c 128,-1,43
 283 891 283 891 334 891 c 0,44,45
 386 891 386 891 418 866 c 128,-1,46
 450 841 450 841 450 796 c 0,47,48
 450 752 450 752 417.5 725.5 c 128,-1,49
 385 699 385 699 334 699 c 0,38,39
EndSplineSet
Validated: 8388609
Position2: "'cpsp' Capital Spacing lookup 3 subtable" dx=5 dy=0 dh=10 dv=0
EndChar

StartChar: Utilde
Encoding: 360 360 134
Width: 609
Flags: MW
HStem: -22 84<301 371 301 411> 640 20G<42 256 256 256 418 569 569 569> 711 104<419 458 419 461> 731 104<211 251>
VStem: 42 214<241 252 252 660> 418 151<263 274 274 660>
LayerCount: 2
UndoRedoHistory
Layer: 0
Undoes
EndUndoes
Redoes
EndRedoes
EndUndoRedoHistory
UndoRedoHistory
Layer: 1
Undoes
EndUndoes
Redoes
EndRedoes
EndUndoRedoHistory
Fore
SplineSet
569 274 m 2,0,1
 569 200 569 200 556 146.5 c 128,-1,2
 543 93 543 93 514 54.5 c 128,-1,3
 485 16 485 16 435.5 -3 c 128,-1,4
 386 -22 386 -22 315 -22 c 0,5,6
 175 -22 175 -22 108.5 41 c 128,-1,7
 42 104 42 104 42 241 c 2,8,-1
 42 660 l 1,9,-1
 256 660 l 1,10,-1
 256 252 l 2,11,12
 256 218 256 218 257 194.5 c 128,-1,13
 258 171 258 171 261 148 c 128,-1,14
 264 125 264 125 269.5 110.5 c 128,-1,15
 275 96 275 96 284 84 c 128,-1,16
 293 72 293 72 306 67 c 128,-1,17
 319 62 319 62 336 62 c 0,18,19
 357 62 357 62 371.5 70.5 c 128,-1,20
 386 79 386 79 395 93.5 c 128,-1,21
 404 108 404 108 409.5 134.5 c 128,-1,22
 415 161 415 161 416.5 190.5 c 128,-1,23
 418 220 418 220 418 263 c 2,24,-1
 418 660 l 1,25,-1
 569 660 l 1,26,-1
 569 274 l 2,0,1
511 835 m 1,27,28
 534 807 534 807 534 775 c 0,29,30
 534 738 534 738 507.5 724.5 c 128,-1,31
 481 711 481 711 434 711 c 0,32,33
 407 711 407 711 329.5 721 c 128,-1,34
 252 731 252 731 223 731 c 0,35,36
 179 731 179 731 159 711 c 1,37,38
 136 739 136 739 136 771 c 0,39,40
 136 808 136 808 162.5 821.5 c 128,-1,41
 189 835 189 835 236 835 c 0,42,43
 263 835 263 835 340.5 825 c 128,-1,44
 418 815 418 815 447 815 c 0,45,46
 491 815 491 815 511 835 c 1,27,28
EndSplineSet
Validated: 8388609
Position2: "'cpsp' Capital Spacing lookup 3 subtable" dx=5 dy=0 dh=10 dv=0
EndChar

StartChar: V
Encoding: 86 86 135
Width: 583
Flags: MW
HStem: 0 122<333 333 333 415> 640 20G<3 223 223 223 441 599 599 599>
VStem: 3 596<660 660>
LayerCount: 2
UndoRedoHistory
Layer: 0
Undoes
EndUndoes
Redoes
EndRedoes
EndUndoRedoHistory
UndoRedoHistory
Layer: 1
Undoes
EndUndoes
Redoes
EndRedoes
EndUndoRedoHistory
Fore
SplineSet
415 0 m 1,0,-1
 160 0 l 1,1,-1
 3 660 l 1,2,-1
 223 660 l 1,3,-1
 333 122 l 1,4,-1
 441 660 l 1,5,-1
 599 660 l 1,6,-1
 415 0 l 1,0,-1
EndSplineSet
Validated: 1
Position2: "'cpsp' Capital Spacing lookup 3 subtable" dx=5 dy=0 dh=10 dv=0
EndChar

StartChar: W
Encoding: 87 87 136
Width: 964
Flags: MW
HStem: 0 122<333 333 333 416> 640 20G<3 223 223 223 441 602 602 602 821 979 979 979>
VStem: 3 976<660 660>
LayerCount: 2
UndoRedoHistory
Layer: 0
Undoes
EndUndoes
Redoes
EndRedoes
EndUndoRedoHistory
UndoRedoHistory
Layer: 1
Undoes
EndUndoes
Redoes
EndRedoes
EndUndoRedoHistory
Fore
SplineSet
796 0 m 1,0,-1
 540 0 l 1,1,-1
 476 329 l 1,2,-1
 416 0 l 1,3,-1
 160 0 l 1,4,-1
 3 660 l 1,5,-1
 223 660 l 1,6,-1
 333 122 l 1,7,-1
 441 660 l 1,8,-1
 602 660 l 1,9,-1
 713 122 l 1,10,-1
 821 660 l 1,11,-1
 979 660 l 1,12,-1
 796 0 l 1,0,-1
EndSplineSet
Validated: 1
Position2: "'cpsp' Capital Spacing lookup 3 subtable" dx=5 dy=0 dh=10 dv=0
EndChar

